%TF.GenerationSoftware,KiCad,Pcbnew,7.0.1*%
%TF.CreationDate,2023-07-19T12:38:44+03:00*%
%TF.ProjectId,deltaAY,64656c74-6141-4592-9e6b-696361645f70,rev?*%
%TF.SameCoordinates,Original*%
%TF.FileFunction,Other,User*%
%FSLAX46Y46*%
G04 Gerber Fmt 4.6, Leading zero omitted, Abs format (unit mm)*
G04 Created by KiCad (PCBNEW 7.0.1) date 2023-07-19 12:38:44*
%MOMM*%
%LPD*%
G01*
G04 APERTURE LIST*
%ADD10C,0.050000*%
G04 APERTURE END LIST*
D10*
%TO.C,U2*%
X76380000Y-63475200D02*
X76380000Y-45125200D01*
X76380000Y-45125200D02*
X65830000Y-45125200D01*
X65830000Y-63475200D02*
X76380000Y-63475200D01*
X65830000Y-45125200D02*
X65830000Y-63475200D01*
%TO.C,C2*%
X123472600Y-83007200D02*
G75*
G03*
X123472600Y-83007200I-4250000J0D01*
G01*
%TO.C,U1*%
X63680000Y-63475200D02*
X63680000Y-45125200D01*
X63680000Y-45125200D02*
X53130000Y-45125200D01*
X53130000Y-63475200D02*
X63680000Y-63475200D01*
X53130000Y-45125200D02*
X53130000Y-63475200D01*
%TO.C,C1*%
X123472600Y-72390000D02*
G75*
G03*
X123472600Y-72390000I-4250000J0D01*
G01*
%TO.C,R7*%
X108990000Y-83745200D02*
X108990000Y-80745200D01*
X108990000Y-80745200D02*
X99270000Y-80745200D01*
X99270000Y-83745200D02*
X108990000Y-83745200D01*
X99270000Y-80745200D02*
X99270000Y-83745200D01*
%TO.C,R2*%
X75980000Y-82475200D02*
X75980000Y-79475200D01*
X75980000Y-79475200D02*
X66260000Y-79475200D01*
X66260000Y-82475200D02*
X75980000Y-82475200D01*
X66260000Y-79475200D02*
X66260000Y-82475200D01*
%TO.C,R8*%
X109000000Y-87555200D02*
X109000000Y-84555200D01*
X109000000Y-84555200D02*
X99280000Y-84555200D01*
X99280000Y-87555200D02*
X109000000Y-87555200D01*
X99280000Y-84555200D02*
X99280000Y-87555200D01*
%TO.C,R3*%
X99270000Y-65465200D02*
X99270000Y-68465200D01*
X99270000Y-68465200D02*
X108990000Y-68465200D01*
X108990000Y-65465200D02*
X99270000Y-65465200D01*
X108990000Y-68465200D02*
X108990000Y-65465200D01*
%TO.C,R1*%
X66260000Y-74395200D02*
X66260000Y-77395200D01*
X66260000Y-77395200D02*
X75980000Y-77395200D01*
X75980000Y-74395200D02*
X66260000Y-74395200D01*
X75980000Y-77395200D02*
X75980000Y-74395200D01*
%TO.C,R6*%
X109000000Y-79935200D02*
X109000000Y-76935200D01*
X109000000Y-76935200D02*
X99280000Y-76935200D01*
X99280000Y-79935200D02*
X109000000Y-79935200D01*
X99280000Y-76935200D02*
X99280000Y-79935200D01*
%TO.C,U5*%
X63695000Y-85065200D02*
X63695000Y-66715200D01*
X63695000Y-66715200D02*
X53145000Y-66715200D01*
X53145000Y-85065200D02*
X63695000Y-85065200D01*
X53145000Y-66715200D02*
X53145000Y-85065200D01*
%TO.C,U3*%
X89095000Y-63480200D02*
X89095000Y-45130200D01*
X89095000Y-45130200D02*
X78545000Y-45130200D01*
X78545000Y-63480200D02*
X89095000Y-63480200D01*
X78545000Y-45130200D02*
X78545000Y-63480200D01*
%TO.C,R5*%
X99280000Y-73125200D02*
X99280000Y-76125200D01*
X99280000Y-76125200D02*
X109000000Y-76125200D01*
X109000000Y-73125200D02*
X99280000Y-73125200D01*
X109000000Y-76125200D02*
X109000000Y-73125200D01*
%TO.C,Y1*%
X79361000Y-84934400D02*
X96661000Y-84934400D01*
X96661000Y-84934400D02*
X96661000Y-71834400D01*
X79361000Y-71834400D02*
X79361000Y-84934400D01*
X96661000Y-71834400D02*
X79361000Y-71834400D01*
%TO.C,R4*%
X99280000Y-69315200D02*
X99280000Y-72315200D01*
X99280000Y-72315200D02*
X109000000Y-72315200D01*
X109000000Y-69315200D02*
X99280000Y-69315200D01*
X109000000Y-72315200D02*
X109000000Y-69315200D01*
%TO.C,U4*%
X91160000Y-63425200D02*
X142510000Y-63425200D01*
X142510000Y-63425200D02*
X142510000Y-45225200D01*
X91160000Y-45225200D02*
X91160000Y-63425200D01*
X142510000Y-45225200D02*
X91160000Y-45225200D01*
%TD*%
M02*
