%TF.GenerationSoftware,KiCad,Pcbnew,7.0.1*%
%TF.CreationDate,2023-07-19T12:38:44+03:00*%
%TF.ProjectId,deltaAY,64656c74-6141-4592-9e6b-696361645f70,rev?*%
%TF.SameCoordinates,Original*%
%TF.FileFunction,Legend,Top*%
%TF.FilePolarity,Positive*%
%FSLAX46Y46*%
G04 Gerber Fmt 4.6, Leading zero omitted, Abs format (unit mm)*
G04 Created by KiCad (PCBNEW 7.0.1) date 2023-07-19 12:38:44*
%MOMM*%
%LPD*%
G01*
G04 APERTURE LIST*
%ADD10C,0.150000*%
%ADD11C,0.120000*%
%ADD12C,0.100000*%
G04 APERTURE END LIST*
D10*
X72500000Y-69000000D02*
G75*
G03*
X72500000Y-69000000I-2500000J0D01*
G01*
X130500000Y-69000000D02*
G75*
G03*
X130500000Y-69000000I-2500000J0D01*
G01*
%TO.C,U2*%
X70586695Y-44039619D02*
X70586695Y-44849142D01*
X70586695Y-44849142D02*
X70634314Y-44944380D01*
X70634314Y-44944380D02*
X70681933Y-44992000D01*
X70681933Y-44992000D02*
X70777171Y-45039619D01*
X70777171Y-45039619D02*
X70967647Y-45039619D01*
X70967647Y-45039619D02*
X71062885Y-44992000D01*
X71062885Y-44992000D02*
X71110504Y-44944380D01*
X71110504Y-44944380D02*
X71158123Y-44849142D01*
X71158123Y-44849142D02*
X71158123Y-44039619D01*
X71586695Y-44134857D02*
X71634314Y-44087238D01*
X71634314Y-44087238D02*
X71729552Y-44039619D01*
X71729552Y-44039619D02*
X71967647Y-44039619D01*
X71967647Y-44039619D02*
X72062885Y-44087238D01*
X72062885Y-44087238D02*
X72110504Y-44134857D01*
X72110504Y-44134857D02*
X72158123Y-44230095D01*
X72158123Y-44230095D02*
X72158123Y-44325333D01*
X72158123Y-44325333D02*
X72110504Y-44468190D01*
X72110504Y-44468190D02*
X71539076Y-45039619D01*
X71539076Y-45039619D02*
X72158123Y-45039619D01*
X71582619Y-61925790D02*
X70582619Y-61925790D01*
X71582619Y-61354362D02*
X71011190Y-61782933D01*
X70582619Y-61354362D02*
X71154047Y-61925790D01*
X70582619Y-60449600D02*
X70582619Y-60925790D01*
X70582619Y-60925790D02*
X71058809Y-60973409D01*
X71058809Y-60973409D02*
X71011190Y-60925790D01*
X71011190Y-60925790D02*
X70963571Y-60830552D01*
X70963571Y-60830552D02*
X70963571Y-60592457D01*
X70963571Y-60592457D02*
X71011190Y-60497219D01*
X71011190Y-60497219D02*
X71058809Y-60449600D01*
X71058809Y-60449600D02*
X71154047Y-60401981D01*
X71154047Y-60401981D02*
X71392142Y-60401981D01*
X71392142Y-60401981D02*
X71487380Y-60449600D01*
X71487380Y-60449600D02*
X71535000Y-60497219D01*
X71535000Y-60497219D02*
X71582619Y-60592457D01*
X71582619Y-60592457D02*
X71582619Y-60830552D01*
X71582619Y-60830552D02*
X71535000Y-60925790D01*
X71535000Y-60925790D02*
X71487380Y-60973409D01*
X70582619Y-59497219D02*
X70582619Y-59973409D01*
X70582619Y-59973409D02*
X71058809Y-60021028D01*
X71058809Y-60021028D02*
X71011190Y-59973409D01*
X71011190Y-59973409D02*
X70963571Y-59878171D01*
X70963571Y-59878171D02*
X70963571Y-59640076D01*
X70963571Y-59640076D02*
X71011190Y-59544838D01*
X71011190Y-59544838D02*
X71058809Y-59497219D01*
X71058809Y-59497219D02*
X71154047Y-59449600D01*
X71154047Y-59449600D02*
X71392142Y-59449600D01*
X71392142Y-59449600D02*
X71487380Y-59497219D01*
X71487380Y-59497219D02*
X71535000Y-59544838D01*
X71535000Y-59544838D02*
X71582619Y-59640076D01*
X71582619Y-59640076D02*
X71582619Y-59878171D01*
X71582619Y-59878171D02*
X71535000Y-59973409D01*
X71535000Y-59973409D02*
X71487380Y-60021028D01*
X70582619Y-58544838D02*
X70582619Y-59021028D01*
X70582619Y-59021028D02*
X71058809Y-59068647D01*
X71058809Y-59068647D02*
X71011190Y-59021028D01*
X71011190Y-59021028D02*
X70963571Y-58925790D01*
X70963571Y-58925790D02*
X70963571Y-58687695D01*
X70963571Y-58687695D02*
X71011190Y-58592457D01*
X71011190Y-58592457D02*
X71058809Y-58544838D01*
X71058809Y-58544838D02*
X71154047Y-58497219D01*
X71154047Y-58497219D02*
X71392142Y-58497219D01*
X71392142Y-58497219D02*
X71487380Y-58544838D01*
X71487380Y-58544838D02*
X71535000Y-58592457D01*
X71535000Y-58592457D02*
X71582619Y-58687695D01*
X71582619Y-58687695D02*
X71582619Y-58925790D01*
X71582619Y-58925790D02*
X71535000Y-59021028D01*
X71535000Y-59021028D02*
X71487380Y-59068647D01*
X71582619Y-57497219D02*
X70582619Y-57497219D01*
X70582619Y-57497219D02*
X70582619Y-57640076D01*
X70582619Y-57640076D02*
X70630238Y-57782933D01*
X70630238Y-57782933D02*
X70725476Y-57878171D01*
X70725476Y-57878171D02*
X70868333Y-57925790D01*
X70868333Y-57925790D02*
X71439761Y-58021028D01*
X71439761Y-58021028D02*
X71535000Y-58068647D01*
X71535000Y-58068647D02*
X71582619Y-58163885D01*
X71582619Y-58163885D02*
X71582619Y-58211504D01*
X71058809Y-57021028D02*
X71058809Y-56687695D01*
X71582619Y-56544838D02*
X71582619Y-57021028D01*
X71582619Y-57021028D02*
X70582619Y-57021028D01*
X70582619Y-57021028D02*
X70582619Y-56544838D01*
X71582619Y-55592457D02*
X71582619Y-56163885D01*
X71582619Y-55878171D02*
X70582619Y-55878171D01*
X70582619Y-55878171D02*
X70725476Y-55973409D01*
X70725476Y-55973409D02*
X70820714Y-56068647D01*
X70820714Y-56068647D02*
X70868333Y-56163885D01*
X71963571Y-54116266D02*
X71915952Y-54163885D01*
X71915952Y-54163885D02*
X71773095Y-54259123D01*
X71773095Y-54259123D02*
X71677857Y-54306742D01*
X71677857Y-54306742D02*
X71535000Y-54354361D01*
X71535000Y-54354361D02*
X71296904Y-54401980D01*
X71296904Y-54401980D02*
X71106428Y-54401980D01*
X71106428Y-54401980D02*
X70868333Y-54354361D01*
X70868333Y-54354361D02*
X70725476Y-54306742D01*
X70725476Y-54306742D02*
X70630238Y-54259123D01*
X70630238Y-54259123D02*
X70487380Y-54163885D01*
X70487380Y-54163885D02*
X70439761Y-54116266D01*
X71535000Y-53782932D02*
X71582619Y-53640075D01*
X71582619Y-53640075D02*
X71582619Y-53401980D01*
X71582619Y-53401980D02*
X71535000Y-53306742D01*
X71535000Y-53306742D02*
X71487380Y-53259123D01*
X71487380Y-53259123D02*
X71392142Y-53211504D01*
X71392142Y-53211504D02*
X71296904Y-53211504D01*
X71296904Y-53211504D02*
X71201666Y-53259123D01*
X71201666Y-53259123D02*
X71154047Y-53306742D01*
X71154047Y-53306742D02*
X71106428Y-53401980D01*
X71106428Y-53401980D02*
X71058809Y-53592456D01*
X71058809Y-53592456D02*
X71011190Y-53687694D01*
X71011190Y-53687694D02*
X70963571Y-53735313D01*
X70963571Y-53735313D02*
X70868333Y-53782932D01*
X70868333Y-53782932D02*
X70773095Y-53782932D01*
X70773095Y-53782932D02*
X70677857Y-53735313D01*
X70677857Y-53735313D02*
X70630238Y-53687694D01*
X70630238Y-53687694D02*
X70582619Y-53592456D01*
X70582619Y-53592456D02*
X70582619Y-53354361D01*
X70582619Y-53354361D02*
X70630238Y-53211504D01*
X71582619Y-52782932D02*
X70582619Y-52782932D01*
X70582619Y-52782932D02*
X71582619Y-52211504D01*
X71582619Y-52211504D02*
X70582619Y-52211504D01*
X70582619Y-51830551D02*
X70582619Y-51163885D01*
X70582619Y-51163885D02*
X71582619Y-51592456D01*
X70915952Y-50354361D02*
X71582619Y-50354361D01*
X70535000Y-50592456D02*
X71249285Y-50830551D01*
X71249285Y-50830551D02*
X71249285Y-50211504D01*
X71582619Y-49354361D02*
X71582619Y-49830551D01*
X71582619Y-49830551D02*
X70582619Y-49830551D01*
X71535000Y-49068646D02*
X71582619Y-48925789D01*
X71582619Y-48925789D02*
X71582619Y-48687694D01*
X71582619Y-48687694D02*
X71535000Y-48592456D01*
X71535000Y-48592456D02*
X71487380Y-48544837D01*
X71487380Y-48544837D02*
X71392142Y-48497218D01*
X71392142Y-48497218D02*
X71296904Y-48497218D01*
X71296904Y-48497218D02*
X71201666Y-48544837D01*
X71201666Y-48544837D02*
X71154047Y-48592456D01*
X71154047Y-48592456D02*
X71106428Y-48687694D01*
X71106428Y-48687694D02*
X71058809Y-48878170D01*
X71058809Y-48878170D02*
X71011190Y-48973408D01*
X71011190Y-48973408D02*
X70963571Y-49021027D01*
X70963571Y-49021027D02*
X70868333Y-49068646D01*
X70868333Y-49068646D02*
X70773095Y-49068646D01*
X70773095Y-49068646D02*
X70677857Y-49021027D01*
X70677857Y-49021027D02*
X70630238Y-48973408D01*
X70630238Y-48973408D02*
X70582619Y-48878170D01*
X70582619Y-48878170D02*
X70582619Y-48640075D01*
X70582619Y-48640075D02*
X70630238Y-48497218D01*
X70582619Y-47878170D02*
X70582619Y-47782932D01*
X70582619Y-47782932D02*
X70630238Y-47687694D01*
X70630238Y-47687694D02*
X70677857Y-47640075D01*
X70677857Y-47640075D02*
X70773095Y-47592456D01*
X70773095Y-47592456D02*
X70963571Y-47544837D01*
X70963571Y-47544837D02*
X71201666Y-47544837D01*
X71201666Y-47544837D02*
X71392142Y-47592456D01*
X71392142Y-47592456D02*
X71487380Y-47640075D01*
X71487380Y-47640075D02*
X71535000Y-47687694D01*
X71535000Y-47687694D02*
X71582619Y-47782932D01*
X71582619Y-47782932D02*
X71582619Y-47878170D01*
X71582619Y-47878170D02*
X71535000Y-47973408D01*
X71535000Y-47973408D02*
X71487380Y-48021027D01*
X71487380Y-48021027D02*
X71392142Y-48068646D01*
X71392142Y-48068646D02*
X71201666Y-48116265D01*
X71201666Y-48116265D02*
X70963571Y-48116265D01*
X70963571Y-48116265D02*
X70773095Y-48068646D01*
X70773095Y-48068646D02*
X70677857Y-48021027D01*
X70677857Y-48021027D02*
X70630238Y-47973408D01*
X70630238Y-47973408D02*
X70582619Y-47878170D01*
X70677857Y-47163884D02*
X70630238Y-47116265D01*
X70630238Y-47116265D02*
X70582619Y-47021027D01*
X70582619Y-47021027D02*
X70582619Y-46782932D01*
X70582619Y-46782932D02*
X70630238Y-46687694D01*
X70630238Y-46687694D02*
X70677857Y-46640075D01*
X70677857Y-46640075D02*
X70773095Y-46592456D01*
X70773095Y-46592456D02*
X70868333Y-46592456D01*
X70868333Y-46592456D02*
X71011190Y-46640075D01*
X71011190Y-46640075D02*
X71582619Y-47211503D01*
X71582619Y-47211503D02*
X71582619Y-46592456D01*
X71963571Y-46259122D02*
X71915952Y-46211503D01*
X71915952Y-46211503D02*
X71773095Y-46116265D01*
X71773095Y-46116265D02*
X71677857Y-46068646D01*
X71677857Y-46068646D02*
X71535000Y-46021027D01*
X71535000Y-46021027D02*
X71296904Y-45973408D01*
X71296904Y-45973408D02*
X71106428Y-45973408D01*
X71106428Y-45973408D02*
X70868333Y-46021027D01*
X70868333Y-46021027D02*
X70725476Y-46068646D01*
X70725476Y-46068646D02*
X70630238Y-46116265D01*
X70630238Y-46116265D02*
X70487380Y-46211503D01*
X70487380Y-46211503D02*
X70439761Y-46259122D01*
%TO.C,C2*%
X119055933Y-78124580D02*
X119008314Y-78172200D01*
X119008314Y-78172200D02*
X118865457Y-78219819D01*
X118865457Y-78219819D02*
X118770219Y-78219819D01*
X118770219Y-78219819D02*
X118627362Y-78172200D01*
X118627362Y-78172200D02*
X118532124Y-78076961D01*
X118532124Y-78076961D02*
X118484505Y-77981723D01*
X118484505Y-77981723D02*
X118436886Y-77791247D01*
X118436886Y-77791247D02*
X118436886Y-77648390D01*
X118436886Y-77648390D02*
X118484505Y-77457914D01*
X118484505Y-77457914D02*
X118532124Y-77362676D01*
X118532124Y-77362676D02*
X118627362Y-77267438D01*
X118627362Y-77267438D02*
X118770219Y-77219819D01*
X118770219Y-77219819D02*
X118865457Y-77219819D01*
X118865457Y-77219819D02*
X119008314Y-77267438D01*
X119008314Y-77267438D02*
X119055933Y-77315057D01*
X119436886Y-77315057D02*
X119484505Y-77267438D01*
X119484505Y-77267438D02*
X119579743Y-77219819D01*
X119579743Y-77219819D02*
X119817838Y-77219819D01*
X119817838Y-77219819D02*
X119913076Y-77267438D01*
X119913076Y-77267438D02*
X119960695Y-77315057D01*
X119960695Y-77315057D02*
X120008314Y-77410295D01*
X120008314Y-77410295D02*
X120008314Y-77505533D01*
X120008314Y-77505533D02*
X119960695Y-77648390D01*
X119960695Y-77648390D02*
X119389267Y-78219819D01*
X119389267Y-78219819D02*
X120008314Y-78219819D01*
X122183079Y-87813219D02*
X121611651Y-87813219D01*
X121897365Y-87813219D02*
X121897365Y-86813219D01*
X121897365Y-86813219D02*
X121802127Y-86956076D01*
X121802127Y-86956076D02*
X121706889Y-87051314D01*
X121706889Y-87051314D02*
X121611651Y-87098933D01*
X122802127Y-86813219D02*
X122897365Y-86813219D01*
X122897365Y-86813219D02*
X122992603Y-86860838D01*
X122992603Y-86860838D02*
X123040222Y-86908457D01*
X123040222Y-86908457D02*
X123087841Y-87003695D01*
X123087841Y-87003695D02*
X123135460Y-87194171D01*
X123135460Y-87194171D02*
X123135460Y-87432266D01*
X123135460Y-87432266D02*
X123087841Y-87622742D01*
X123087841Y-87622742D02*
X123040222Y-87717980D01*
X123040222Y-87717980D02*
X122992603Y-87765600D01*
X122992603Y-87765600D02*
X122897365Y-87813219D01*
X122897365Y-87813219D02*
X122802127Y-87813219D01*
X122802127Y-87813219D02*
X122706889Y-87765600D01*
X122706889Y-87765600D02*
X122659270Y-87717980D01*
X122659270Y-87717980D02*
X122611651Y-87622742D01*
X122611651Y-87622742D02*
X122564032Y-87432266D01*
X122564032Y-87432266D02*
X122564032Y-87194171D01*
X122564032Y-87194171D02*
X122611651Y-87003695D01*
X122611651Y-87003695D02*
X122659270Y-86908457D01*
X122659270Y-86908457D02*
X122706889Y-86860838D01*
X122706889Y-86860838D02*
X122802127Y-86813219D01*
X123564032Y-87146552D02*
X123564032Y-88146552D01*
X124040222Y-87670361D02*
X124087841Y-87765600D01*
X124087841Y-87765600D02*
X124183079Y-87813219D01*
X123564032Y-87670361D02*
X123611651Y-87765600D01*
X123611651Y-87765600D02*
X123706889Y-87813219D01*
X123706889Y-87813219D02*
X123897365Y-87813219D01*
X123897365Y-87813219D02*
X123992603Y-87765600D01*
X123992603Y-87765600D02*
X124040222Y-87670361D01*
X124040222Y-87670361D02*
X124040222Y-87146552D01*
X124944984Y-87289409D02*
X124611651Y-87289409D01*
X124611651Y-87813219D02*
X124611651Y-86813219D01*
X124611651Y-86813219D02*
X125087841Y-86813219D01*
X126706889Y-86813219D02*
X126230699Y-86813219D01*
X126230699Y-86813219D02*
X126183080Y-87289409D01*
X126183080Y-87289409D02*
X126230699Y-87241790D01*
X126230699Y-87241790D02*
X126325937Y-87194171D01*
X126325937Y-87194171D02*
X126564032Y-87194171D01*
X126564032Y-87194171D02*
X126659270Y-87241790D01*
X126659270Y-87241790D02*
X126706889Y-87289409D01*
X126706889Y-87289409D02*
X126754508Y-87384647D01*
X126754508Y-87384647D02*
X126754508Y-87622742D01*
X126754508Y-87622742D02*
X126706889Y-87717980D01*
X126706889Y-87717980D02*
X126659270Y-87765600D01*
X126659270Y-87765600D02*
X126564032Y-87813219D01*
X126564032Y-87813219D02*
X126325937Y-87813219D01*
X126325937Y-87813219D02*
X126230699Y-87765600D01*
X126230699Y-87765600D02*
X126183080Y-87717980D01*
X127040223Y-86813219D02*
X127373556Y-87813219D01*
X127373556Y-87813219D02*
X127706889Y-86813219D01*
%TO.C,U1*%
X57937495Y-44039619D02*
X57937495Y-44849142D01*
X57937495Y-44849142D02*
X57985114Y-44944380D01*
X57985114Y-44944380D02*
X58032733Y-44992000D01*
X58032733Y-44992000D02*
X58127971Y-45039619D01*
X58127971Y-45039619D02*
X58318447Y-45039619D01*
X58318447Y-45039619D02*
X58413685Y-44992000D01*
X58413685Y-44992000D02*
X58461304Y-44944380D01*
X58461304Y-44944380D02*
X58508923Y-44849142D01*
X58508923Y-44849142D02*
X58508923Y-44039619D01*
X59508923Y-45039619D02*
X58937495Y-45039619D01*
X59223209Y-45039619D02*
X59223209Y-44039619D01*
X59223209Y-44039619D02*
X59127971Y-44182476D01*
X59127971Y-44182476D02*
X59032733Y-44277714D01*
X59032733Y-44277714D02*
X58937495Y-44325333D01*
X58857219Y-61895619D02*
X57857219Y-61895619D01*
X58857219Y-61324191D02*
X58285790Y-61752762D01*
X57857219Y-61324191D02*
X58428647Y-61895619D01*
X57857219Y-60419429D02*
X57857219Y-60895619D01*
X57857219Y-60895619D02*
X58333409Y-60943238D01*
X58333409Y-60943238D02*
X58285790Y-60895619D01*
X58285790Y-60895619D02*
X58238171Y-60800381D01*
X58238171Y-60800381D02*
X58238171Y-60562286D01*
X58238171Y-60562286D02*
X58285790Y-60467048D01*
X58285790Y-60467048D02*
X58333409Y-60419429D01*
X58333409Y-60419429D02*
X58428647Y-60371810D01*
X58428647Y-60371810D02*
X58666742Y-60371810D01*
X58666742Y-60371810D02*
X58761980Y-60419429D01*
X58761980Y-60419429D02*
X58809600Y-60467048D01*
X58809600Y-60467048D02*
X58857219Y-60562286D01*
X58857219Y-60562286D02*
X58857219Y-60800381D01*
X58857219Y-60800381D02*
X58809600Y-60895619D01*
X58809600Y-60895619D02*
X58761980Y-60943238D01*
X57857219Y-59467048D02*
X57857219Y-59943238D01*
X57857219Y-59943238D02*
X58333409Y-59990857D01*
X58333409Y-59990857D02*
X58285790Y-59943238D01*
X58285790Y-59943238D02*
X58238171Y-59848000D01*
X58238171Y-59848000D02*
X58238171Y-59609905D01*
X58238171Y-59609905D02*
X58285790Y-59514667D01*
X58285790Y-59514667D02*
X58333409Y-59467048D01*
X58333409Y-59467048D02*
X58428647Y-59419429D01*
X58428647Y-59419429D02*
X58666742Y-59419429D01*
X58666742Y-59419429D02*
X58761980Y-59467048D01*
X58761980Y-59467048D02*
X58809600Y-59514667D01*
X58809600Y-59514667D02*
X58857219Y-59609905D01*
X58857219Y-59609905D02*
X58857219Y-59848000D01*
X58857219Y-59848000D02*
X58809600Y-59943238D01*
X58809600Y-59943238D02*
X58761980Y-59990857D01*
X57857219Y-58514667D02*
X57857219Y-58990857D01*
X57857219Y-58990857D02*
X58333409Y-59038476D01*
X58333409Y-59038476D02*
X58285790Y-58990857D01*
X58285790Y-58990857D02*
X58238171Y-58895619D01*
X58238171Y-58895619D02*
X58238171Y-58657524D01*
X58238171Y-58657524D02*
X58285790Y-58562286D01*
X58285790Y-58562286D02*
X58333409Y-58514667D01*
X58333409Y-58514667D02*
X58428647Y-58467048D01*
X58428647Y-58467048D02*
X58666742Y-58467048D01*
X58666742Y-58467048D02*
X58761980Y-58514667D01*
X58761980Y-58514667D02*
X58809600Y-58562286D01*
X58809600Y-58562286D02*
X58857219Y-58657524D01*
X58857219Y-58657524D02*
X58857219Y-58895619D01*
X58857219Y-58895619D02*
X58809600Y-58990857D01*
X58809600Y-58990857D02*
X58761980Y-59038476D01*
X58857219Y-57467048D02*
X57857219Y-57467048D01*
X57857219Y-57467048D02*
X57857219Y-57609905D01*
X57857219Y-57609905D02*
X57904838Y-57752762D01*
X57904838Y-57752762D02*
X58000076Y-57848000D01*
X58000076Y-57848000D02*
X58142933Y-57895619D01*
X58142933Y-57895619D02*
X58714361Y-57990857D01*
X58714361Y-57990857D02*
X58809600Y-58038476D01*
X58809600Y-58038476D02*
X58857219Y-58133714D01*
X58857219Y-58133714D02*
X58857219Y-58181333D01*
X58857219Y-56419429D02*
X57857219Y-56419429D01*
X57857219Y-56419429D02*
X57857219Y-56562286D01*
X57857219Y-56562286D02*
X57904838Y-56705143D01*
X57904838Y-56705143D02*
X58000076Y-56800381D01*
X58000076Y-56800381D02*
X58142933Y-56848000D01*
X58142933Y-56848000D02*
X58714361Y-56943238D01*
X58714361Y-56943238D02*
X58809600Y-56990857D01*
X58809600Y-56990857D02*
X58857219Y-57086095D01*
X58857219Y-57086095D02*
X58857219Y-57133714D01*
X58857219Y-55419429D02*
X58857219Y-55990857D01*
X58857219Y-55705143D02*
X57857219Y-55705143D01*
X57857219Y-55705143D02*
X58000076Y-55800381D01*
X58000076Y-55800381D02*
X58095314Y-55895619D01*
X58095314Y-55895619D02*
X58142933Y-55990857D01*
X59238171Y-53943238D02*
X59190552Y-53990857D01*
X59190552Y-53990857D02*
X59047695Y-54086095D01*
X59047695Y-54086095D02*
X58952457Y-54133714D01*
X58952457Y-54133714D02*
X58809600Y-54181333D01*
X58809600Y-54181333D02*
X58571504Y-54228952D01*
X58571504Y-54228952D02*
X58381028Y-54228952D01*
X58381028Y-54228952D02*
X58142933Y-54181333D01*
X58142933Y-54181333D02*
X58000076Y-54133714D01*
X58000076Y-54133714D02*
X57904838Y-54086095D01*
X57904838Y-54086095D02*
X57761980Y-53990857D01*
X57761980Y-53990857D02*
X57714361Y-53943238D01*
X58809600Y-53609904D02*
X58857219Y-53467047D01*
X58857219Y-53467047D02*
X58857219Y-53228952D01*
X58857219Y-53228952D02*
X58809600Y-53133714D01*
X58809600Y-53133714D02*
X58761980Y-53086095D01*
X58761980Y-53086095D02*
X58666742Y-53038476D01*
X58666742Y-53038476D02*
X58571504Y-53038476D01*
X58571504Y-53038476D02*
X58476266Y-53086095D01*
X58476266Y-53086095D02*
X58428647Y-53133714D01*
X58428647Y-53133714D02*
X58381028Y-53228952D01*
X58381028Y-53228952D02*
X58333409Y-53419428D01*
X58333409Y-53419428D02*
X58285790Y-53514666D01*
X58285790Y-53514666D02*
X58238171Y-53562285D01*
X58238171Y-53562285D02*
X58142933Y-53609904D01*
X58142933Y-53609904D02*
X58047695Y-53609904D01*
X58047695Y-53609904D02*
X57952457Y-53562285D01*
X57952457Y-53562285D02*
X57904838Y-53514666D01*
X57904838Y-53514666D02*
X57857219Y-53419428D01*
X57857219Y-53419428D02*
X57857219Y-53181333D01*
X57857219Y-53181333D02*
X57904838Y-53038476D01*
X58857219Y-52609904D02*
X57857219Y-52609904D01*
X57857219Y-52609904D02*
X58857219Y-52038476D01*
X58857219Y-52038476D02*
X57857219Y-52038476D01*
X57857219Y-51657523D02*
X57857219Y-50990857D01*
X57857219Y-50990857D02*
X58857219Y-51419428D01*
X58190552Y-50181333D02*
X58857219Y-50181333D01*
X57809600Y-50419428D02*
X58523885Y-50657523D01*
X58523885Y-50657523D02*
X58523885Y-50038476D01*
X58857219Y-49181333D02*
X58857219Y-49657523D01*
X58857219Y-49657523D02*
X57857219Y-49657523D01*
X58809600Y-48895618D02*
X58857219Y-48752761D01*
X58857219Y-48752761D02*
X58857219Y-48514666D01*
X58857219Y-48514666D02*
X58809600Y-48419428D01*
X58809600Y-48419428D02*
X58761980Y-48371809D01*
X58761980Y-48371809D02*
X58666742Y-48324190D01*
X58666742Y-48324190D02*
X58571504Y-48324190D01*
X58571504Y-48324190D02*
X58476266Y-48371809D01*
X58476266Y-48371809D02*
X58428647Y-48419428D01*
X58428647Y-48419428D02*
X58381028Y-48514666D01*
X58381028Y-48514666D02*
X58333409Y-48705142D01*
X58333409Y-48705142D02*
X58285790Y-48800380D01*
X58285790Y-48800380D02*
X58238171Y-48847999D01*
X58238171Y-48847999D02*
X58142933Y-48895618D01*
X58142933Y-48895618D02*
X58047695Y-48895618D01*
X58047695Y-48895618D02*
X57952457Y-48847999D01*
X57952457Y-48847999D02*
X57904838Y-48800380D01*
X57904838Y-48800380D02*
X57857219Y-48705142D01*
X57857219Y-48705142D02*
X57857219Y-48467047D01*
X57857219Y-48467047D02*
X57904838Y-48324190D01*
X57857219Y-47990856D02*
X57857219Y-47371809D01*
X57857219Y-47371809D02*
X58238171Y-47705142D01*
X58238171Y-47705142D02*
X58238171Y-47562285D01*
X58238171Y-47562285D02*
X58285790Y-47467047D01*
X58285790Y-47467047D02*
X58333409Y-47419428D01*
X58333409Y-47419428D02*
X58428647Y-47371809D01*
X58428647Y-47371809D02*
X58666742Y-47371809D01*
X58666742Y-47371809D02*
X58761980Y-47419428D01*
X58761980Y-47419428D02*
X58809600Y-47467047D01*
X58809600Y-47467047D02*
X58857219Y-47562285D01*
X58857219Y-47562285D02*
X58857219Y-47847999D01*
X58857219Y-47847999D02*
X58809600Y-47943237D01*
X58809600Y-47943237D02*
X58761980Y-47990856D01*
X57952457Y-46990856D02*
X57904838Y-46943237D01*
X57904838Y-46943237D02*
X57857219Y-46847999D01*
X57857219Y-46847999D02*
X57857219Y-46609904D01*
X57857219Y-46609904D02*
X57904838Y-46514666D01*
X57904838Y-46514666D02*
X57952457Y-46467047D01*
X57952457Y-46467047D02*
X58047695Y-46419428D01*
X58047695Y-46419428D02*
X58142933Y-46419428D01*
X58142933Y-46419428D02*
X58285790Y-46467047D01*
X58285790Y-46467047D02*
X58857219Y-47038475D01*
X58857219Y-47038475D02*
X58857219Y-46419428D01*
X59238171Y-46086094D02*
X59190552Y-46038475D01*
X59190552Y-46038475D02*
X59047695Y-45943237D01*
X59047695Y-45943237D02*
X58952457Y-45895618D01*
X58952457Y-45895618D02*
X58809600Y-45847999D01*
X58809600Y-45847999D02*
X58571504Y-45800380D01*
X58571504Y-45800380D02*
X58381028Y-45800380D01*
X58381028Y-45800380D02*
X58142933Y-45847999D01*
X58142933Y-45847999D02*
X58000076Y-45895618D01*
X58000076Y-45895618D02*
X57904838Y-45943237D01*
X57904838Y-45943237D02*
X57761980Y-46038475D01*
X57761980Y-46038475D02*
X57714361Y-46086094D01*
%TO.C,C1*%
X119055933Y-67507380D02*
X119008314Y-67555000D01*
X119008314Y-67555000D02*
X118865457Y-67602619D01*
X118865457Y-67602619D02*
X118770219Y-67602619D01*
X118770219Y-67602619D02*
X118627362Y-67555000D01*
X118627362Y-67555000D02*
X118532124Y-67459761D01*
X118532124Y-67459761D02*
X118484505Y-67364523D01*
X118484505Y-67364523D02*
X118436886Y-67174047D01*
X118436886Y-67174047D02*
X118436886Y-67031190D01*
X118436886Y-67031190D02*
X118484505Y-66840714D01*
X118484505Y-66840714D02*
X118532124Y-66745476D01*
X118532124Y-66745476D02*
X118627362Y-66650238D01*
X118627362Y-66650238D02*
X118770219Y-66602619D01*
X118770219Y-66602619D02*
X118865457Y-66602619D01*
X118865457Y-66602619D02*
X119008314Y-66650238D01*
X119008314Y-66650238D02*
X119055933Y-66697857D01*
X120008314Y-67602619D02*
X119436886Y-67602619D01*
X119722600Y-67602619D02*
X119722600Y-66602619D01*
X119722600Y-66602619D02*
X119627362Y-66745476D01*
X119627362Y-66745476D02*
X119532124Y-66840714D01*
X119532124Y-66840714D02*
X119436886Y-66888333D01*
X121904428Y-77297619D02*
X121333000Y-77297619D01*
X121618714Y-77297619D02*
X121618714Y-76297619D01*
X121618714Y-76297619D02*
X121523476Y-76440476D01*
X121523476Y-76440476D02*
X121428238Y-76535714D01*
X121428238Y-76535714D02*
X121333000Y-76583333D01*
X122523476Y-76297619D02*
X122618714Y-76297619D01*
X122618714Y-76297619D02*
X122713952Y-76345238D01*
X122713952Y-76345238D02*
X122761571Y-76392857D01*
X122761571Y-76392857D02*
X122809190Y-76488095D01*
X122809190Y-76488095D02*
X122856809Y-76678571D01*
X122856809Y-76678571D02*
X122856809Y-76916666D01*
X122856809Y-76916666D02*
X122809190Y-77107142D01*
X122809190Y-77107142D02*
X122761571Y-77202380D01*
X122761571Y-77202380D02*
X122713952Y-77250000D01*
X122713952Y-77250000D02*
X122618714Y-77297619D01*
X122618714Y-77297619D02*
X122523476Y-77297619D01*
X122523476Y-77297619D02*
X122428238Y-77250000D01*
X122428238Y-77250000D02*
X122380619Y-77202380D01*
X122380619Y-77202380D02*
X122333000Y-77107142D01*
X122333000Y-77107142D02*
X122285381Y-76916666D01*
X122285381Y-76916666D02*
X122285381Y-76678571D01*
X122285381Y-76678571D02*
X122333000Y-76488095D01*
X122333000Y-76488095D02*
X122380619Y-76392857D01*
X122380619Y-76392857D02*
X122428238Y-76345238D01*
X122428238Y-76345238D02*
X122523476Y-76297619D01*
X123285381Y-76630952D02*
X123285381Y-77630952D01*
X123761571Y-77154761D02*
X123809190Y-77250000D01*
X123809190Y-77250000D02*
X123904428Y-77297619D01*
X123285381Y-77154761D02*
X123333000Y-77250000D01*
X123333000Y-77250000D02*
X123428238Y-77297619D01*
X123428238Y-77297619D02*
X123618714Y-77297619D01*
X123618714Y-77297619D02*
X123713952Y-77250000D01*
X123713952Y-77250000D02*
X123761571Y-77154761D01*
X123761571Y-77154761D02*
X123761571Y-76630952D01*
X124666333Y-76773809D02*
X124333000Y-76773809D01*
X124333000Y-77297619D02*
X124333000Y-76297619D01*
X124333000Y-76297619D02*
X124809190Y-76297619D01*
X126428238Y-76297619D02*
X125952048Y-76297619D01*
X125952048Y-76297619D02*
X125904429Y-76773809D01*
X125904429Y-76773809D02*
X125952048Y-76726190D01*
X125952048Y-76726190D02*
X126047286Y-76678571D01*
X126047286Y-76678571D02*
X126285381Y-76678571D01*
X126285381Y-76678571D02*
X126380619Y-76726190D01*
X126380619Y-76726190D02*
X126428238Y-76773809D01*
X126428238Y-76773809D02*
X126475857Y-76869047D01*
X126475857Y-76869047D02*
X126475857Y-77107142D01*
X126475857Y-77107142D02*
X126428238Y-77202380D01*
X126428238Y-77202380D02*
X126380619Y-77250000D01*
X126380619Y-77250000D02*
X126285381Y-77297619D01*
X126285381Y-77297619D02*
X126047286Y-77297619D01*
X126047286Y-77297619D02*
X125952048Y-77250000D01*
X125952048Y-77250000D02*
X125904429Y-77202380D01*
X126761572Y-76297619D02*
X127094905Y-77297619D01*
X127094905Y-77297619D02*
X127428238Y-76297619D01*
%TO.C,R7*%
X110043933Y-82657019D02*
X109710600Y-82180828D01*
X109472505Y-82657019D02*
X109472505Y-81657019D01*
X109472505Y-81657019D02*
X109853457Y-81657019D01*
X109853457Y-81657019D02*
X109948695Y-81704638D01*
X109948695Y-81704638D02*
X109996314Y-81752257D01*
X109996314Y-81752257D02*
X110043933Y-81847495D01*
X110043933Y-81847495D02*
X110043933Y-81990352D01*
X110043933Y-81990352D02*
X109996314Y-82085590D01*
X109996314Y-82085590D02*
X109948695Y-82133209D01*
X109948695Y-82133209D02*
X109853457Y-82180828D01*
X109853457Y-82180828D02*
X109472505Y-82180828D01*
X110377267Y-81657019D02*
X111043933Y-81657019D01*
X111043933Y-81657019D02*
X110615362Y-82657019D01*
X101190800Y-81752257D02*
X101238419Y-81704638D01*
X101238419Y-81704638D02*
X101333657Y-81657019D01*
X101333657Y-81657019D02*
X101571752Y-81657019D01*
X101571752Y-81657019D02*
X101666990Y-81704638D01*
X101666990Y-81704638D02*
X101714609Y-81752257D01*
X101714609Y-81752257D02*
X101762228Y-81847495D01*
X101762228Y-81847495D02*
X101762228Y-81942733D01*
X101762228Y-81942733D02*
X101714609Y-82085590D01*
X101714609Y-82085590D02*
X101143181Y-82657019D01*
X101143181Y-82657019D02*
X101762228Y-82657019D01*
X102190800Y-82657019D02*
X102190800Y-81657019D01*
X102762228Y-82657019D02*
X102333657Y-82085590D01*
X102762228Y-81657019D02*
X102190800Y-82228447D01*
X103905085Y-81609400D02*
X103047943Y-82895114D01*
X104190800Y-81752257D02*
X104238419Y-81704638D01*
X104238419Y-81704638D02*
X104333657Y-81657019D01*
X104333657Y-81657019D02*
X104571752Y-81657019D01*
X104571752Y-81657019D02*
X104666990Y-81704638D01*
X104666990Y-81704638D02*
X104714609Y-81752257D01*
X104714609Y-81752257D02*
X104762228Y-81847495D01*
X104762228Y-81847495D02*
X104762228Y-81942733D01*
X104762228Y-81942733D02*
X104714609Y-82085590D01*
X104714609Y-82085590D02*
X104143181Y-82657019D01*
X104143181Y-82657019D02*
X104762228Y-82657019D01*
X105190800Y-82561780D02*
X105238419Y-82609400D01*
X105238419Y-82609400D02*
X105190800Y-82657019D01*
X105190800Y-82657019D02*
X105143181Y-82609400D01*
X105143181Y-82609400D02*
X105190800Y-82561780D01*
X105190800Y-82561780D02*
X105190800Y-82657019D01*
X105619371Y-81752257D02*
X105666990Y-81704638D01*
X105666990Y-81704638D02*
X105762228Y-81657019D01*
X105762228Y-81657019D02*
X106000323Y-81657019D01*
X106000323Y-81657019D02*
X106095561Y-81704638D01*
X106095561Y-81704638D02*
X106143180Y-81752257D01*
X106143180Y-81752257D02*
X106190799Y-81847495D01*
X106190799Y-81847495D02*
X106190799Y-81942733D01*
X106190799Y-81942733D02*
X106143180Y-82085590D01*
X106143180Y-82085590D02*
X105571752Y-82657019D01*
X105571752Y-82657019D02*
X106190799Y-82657019D01*
X106619371Y-82657019D02*
X106619371Y-81657019D01*
X107190799Y-82657019D02*
X106762228Y-82085590D01*
X107190799Y-81657019D02*
X106619371Y-82228447D01*
%TO.C,R2*%
X70953333Y-83807819D02*
X70620000Y-83331628D01*
X70381905Y-83807819D02*
X70381905Y-82807819D01*
X70381905Y-82807819D02*
X70762857Y-82807819D01*
X70762857Y-82807819D02*
X70858095Y-82855438D01*
X70858095Y-82855438D02*
X70905714Y-82903057D01*
X70905714Y-82903057D02*
X70953333Y-82998295D01*
X70953333Y-82998295D02*
X70953333Y-83141152D01*
X70953333Y-83141152D02*
X70905714Y-83236390D01*
X70905714Y-83236390D02*
X70858095Y-83284009D01*
X70858095Y-83284009D02*
X70762857Y-83331628D01*
X70762857Y-83331628D02*
X70381905Y-83331628D01*
X71334286Y-82903057D02*
X71381905Y-82855438D01*
X71381905Y-82855438D02*
X71477143Y-82807819D01*
X71477143Y-82807819D02*
X71715238Y-82807819D01*
X71715238Y-82807819D02*
X71810476Y-82855438D01*
X71810476Y-82855438D02*
X71858095Y-82903057D01*
X71858095Y-82903057D02*
X71905714Y-82998295D01*
X71905714Y-82998295D02*
X71905714Y-83093533D01*
X71905714Y-83093533D02*
X71858095Y-83236390D01*
X71858095Y-83236390D02*
X71286667Y-83807819D01*
X71286667Y-83807819D02*
X71905714Y-83807819D01*
X69885086Y-80463219D02*
X70504133Y-80463219D01*
X70504133Y-80463219D02*
X70170800Y-80844171D01*
X70170800Y-80844171D02*
X70313657Y-80844171D01*
X70313657Y-80844171D02*
X70408895Y-80891790D01*
X70408895Y-80891790D02*
X70456514Y-80939409D01*
X70456514Y-80939409D02*
X70504133Y-81034647D01*
X70504133Y-81034647D02*
X70504133Y-81272742D01*
X70504133Y-81272742D02*
X70456514Y-81367980D01*
X70456514Y-81367980D02*
X70408895Y-81415600D01*
X70408895Y-81415600D02*
X70313657Y-81463219D01*
X70313657Y-81463219D02*
X70027943Y-81463219D01*
X70027943Y-81463219D02*
X69932705Y-81415600D01*
X69932705Y-81415600D02*
X69885086Y-81367980D01*
X70837467Y-80463219D02*
X71456514Y-80463219D01*
X71456514Y-80463219D02*
X71123181Y-80844171D01*
X71123181Y-80844171D02*
X71266038Y-80844171D01*
X71266038Y-80844171D02*
X71361276Y-80891790D01*
X71361276Y-80891790D02*
X71408895Y-80939409D01*
X71408895Y-80939409D02*
X71456514Y-81034647D01*
X71456514Y-81034647D02*
X71456514Y-81272742D01*
X71456514Y-81272742D02*
X71408895Y-81367980D01*
X71408895Y-81367980D02*
X71361276Y-81415600D01*
X71361276Y-81415600D02*
X71266038Y-81463219D01*
X71266038Y-81463219D02*
X70980324Y-81463219D01*
X70980324Y-81463219D02*
X70885086Y-81415600D01*
X70885086Y-81415600D02*
X70837467Y-81367980D01*
X72075562Y-80463219D02*
X72170800Y-80463219D01*
X72170800Y-80463219D02*
X72266038Y-80510838D01*
X72266038Y-80510838D02*
X72313657Y-80558457D01*
X72313657Y-80558457D02*
X72361276Y-80653695D01*
X72361276Y-80653695D02*
X72408895Y-80844171D01*
X72408895Y-80844171D02*
X72408895Y-81082266D01*
X72408895Y-81082266D02*
X72361276Y-81272742D01*
X72361276Y-81272742D02*
X72313657Y-81367980D01*
X72313657Y-81367980D02*
X72266038Y-81415600D01*
X72266038Y-81415600D02*
X72170800Y-81463219D01*
X72170800Y-81463219D02*
X72075562Y-81463219D01*
X72075562Y-81463219D02*
X71980324Y-81415600D01*
X71980324Y-81415600D02*
X71932705Y-81367980D01*
X71932705Y-81367980D02*
X71885086Y-81272742D01*
X71885086Y-81272742D02*
X71837467Y-81082266D01*
X71837467Y-81082266D02*
X71837467Y-80844171D01*
X71837467Y-80844171D02*
X71885086Y-80653695D01*
X71885086Y-80653695D02*
X71932705Y-80558457D01*
X71932705Y-80558457D02*
X71980324Y-80510838D01*
X71980324Y-80510838D02*
X72075562Y-80463219D01*
%TO.C,R8*%
X110043933Y-86365419D02*
X109710600Y-85889228D01*
X109472505Y-86365419D02*
X109472505Y-85365419D01*
X109472505Y-85365419D02*
X109853457Y-85365419D01*
X109853457Y-85365419D02*
X109948695Y-85413038D01*
X109948695Y-85413038D02*
X109996314Y-85460657D01*
X109996314Y-85460657D02*
X110043933Y-85555895D01*
X110043933Y-85555895D02*
X110043933Y-85698752D01*
X110043933Y-85698752D02*
X109996314Y-85793990D01*
X109996314Y-85793990D02*
X109948695Y-85841609D01*
X109948695Y-85841609D02*
X109853457Y-85889228D01*
X109853457Y-85889228D02*
X109472505Y-85889228D01*
X110615362Y-85793990D02*
X110520124Y-85746371D01*
X110520124Y-85746371D02*
X110472505Y-85698752D01*
X110472505Y-85698752D02*
X110424886Y-85603514D01*
X110424886Y-85603514D02*
X110424886Y-85555895D01*
X110424886Y-85555895D02*
X110472505Y-85460657D01*
X110472505Y-85460657D02*
X110520124Y-85413038D01*
X110520124Y-85413038D02*
X110615362Y-85365419D01*
X110615362Y-85365419D02*
X110805838Y-85365419D01*
X110805838Y-85365419D02*
X110901076Y-85413038D01*
X110901076Y-85413038D02*
X110948695Y-85460657D01*
X110948695Y-85460657D02*
X110996314Y-85555895D01*
X110996314Y-85555895D02*
X110996314Y-85603514D01*
X110996314Y-85603514D02*
X110948695Y-85698752D01*
X110948695Y-85698752D02*
X110901076Y-85746371D01*
X110901076Y-85746371D02*
X110805838Y-85793990D01*
X110805838Y-85793990D02*
X110615362Y-85793990D01*
X110615362Y-85793990D02*
X110520124Y-85841609D01*
X110520124Y-85841609D02*
X110472505Y-85889228D01*
X110472505Y-85889228D02*
X110424886Y-85984466D01*
X110424886Y-85984466D02*
X110424886Y-86174942D01*
X110424886Y-86174942D02*
X110472505Y-86270180D01*
X110472505Y-86270180D02*
X110520124Y-86317800D01*
X110520124Y-86317800D02*
X110615362Y-86365419D01*
X110615362Y-86365419D02*
X110805838Y-86365419D01*
X110805838Y-86365419D02*
X110901076Y-86317800D01*
X110901076Y-86317800D02*
X110948695Y-86270180D01*
X110948695Y-86270180D02*
X110996314Y-86174942D01*
X110996314Y-86174942D02*
X110996314Y-85984466D01*
X110996314Y-85984466D02*
X110948695Y-85889228D01*
X110948695Y-85889228D02*
X110901076Y-85841609D01*
X110901076Y-85841609D02*
X110805838Y-85793990D01*
X101114600Y-85587657D02*
X101162219Y-85540038D01*
X101162219Y-85540038D02*
X101257457Y-85492419D01*
X101257457Y-85492419D02*
X101495552Y-85492419D01*
X101495552Y-85492419D02*
X101590790Y-85540038D01*
X101590790Y-85540038D02*
X101638409Y-85587657D01*
X101638409Y-85587657D02*
X101686028Y-85682895D01*
X101686028Y-85682895D02*
X101686028Y-85778133D01*
X101686028Y-85778133D02*
X101638409Y-85920990D01*
X101638409Y-85920990D02*
X101066981Y-86492419D01*
X101066981Y-86492419D02*
X101686028Y-86492419D01*
X102114600Y-86492419D02*
X102114600Y-85492419D01*
X102686028Y-86492419D02*
X102257457Y-85920990D01*
X102686028Y-85492419D02*
X102114600Y-86063847D01*
X103828885Y-85444800D02*
X102971743Y-86730514D01*
X104114600Y-85587657D02*
X104162219Y-85540038D01*
X104162219Y-85540038D02*
X104257457Y-85492419D01*
X104257457Y-85492419D02*
X104495552Y-85492419D01*
X104495552Y-85492419D02*
X104590790Y-85540038D01*
X104590790Y-85540038D02*
X104638409Y-85587657D01*
X104638409Y-85587657D02*
X104686028Y-85682895D01*
X104686028Y-85682895D02*
X104686028Y-85778133D01*
X104686028Y-85778133D02*
X104638409Y-85920990D01*
X104638409Y-85920990D02*
X104066981Y-86492419D01*
X104066981Y-86492419D02*
X104686028Y-86492419D01*
X105114600Y-86397180D02*
X105162219Y-86444800D01*
X105162219Y-86444800D02*
X105114600Y-86492419D01*
X105114600Y-86492419D02*
X105066981Y-86444800D01*
X105066981Y-86444800D02*
X105114600Y-86397180D01*
X105114600Y-86397180D02*
X105114600Y-86492419D01*
X105543171Y-85587657D02*
X105590790Y-85540038D01*
X105590790Y-85540038D02*
X105686028Y-85492419D01*
X105686028Y-85492419D02*
X105924123Y-85492419D01*
X105924123Y-85492419D02*
X106019361Y-85540038D01*
X106019361Y-85540038D02*
X106066980Y-85587657D01*
X106066980Y-85587657D02*
X106114599Y-85682895D01*
X106114599Y-85682895D02*
X106114599Y-85778133D01*
X106114599Y-85778133D02*
X106066980Y-85920990D01*
X106066980Y-85920990D02*
X105495552Y-86492419D01*
X105495552Y-86492419D02*
X106114599Y-86492419D01*
X106543171Y-86492419D02*
X106543171Y-85492419D01*
X107114599Y-86492419D02*
X106686028Y-85920990D01*
X107114599Y-85492419D02*
X106543171Y-86063847D01*
%TO.C,R3*%
X110043933Y-67366219D02*
X109710600Y-66890028D01*
X109472505Y-67366219D02*
X109472505Y-66366219D01*
X109472505Y-66366219D02*
X109853457Y-66366219D01*
X109853457Y-66366219D02*
X109948695Y-66413838D01*
X109948695Y-66413838D02*
X109996314Y-66461457D01*
X109996314Y-66461457D02*
X110043933Y-66556695D01*
X110043933Y-66556695D02*
X110043933Y-66699552D01*
X110043933Y-66699552D02*
X109996314Y-66794790D01*
X109996314Y-66794790D02*
X109948695Y-66842409D01*
X109948695Y-66842409D02*
X109853457Y-66890028D01*
X109853457Y-66890028D02*
X109472505Y-66890028D01*
X110377267Y-66366219D02*
X110996314Y-66366219D01*
X110996314Y-66366219D02*
X110662981Y-66747171D01*
X110662981Y-66747171D02*
X110805838Y-66747171D01*
X110805838Y-66747171D02*
X110901076Y-66794790D01*
X110901076Y-66794790D02*
X110948695Y-66842409D01*
X110948695Y-66842409D02*
X110996314Y-66937647D01*
X110996314Y-66937647D02*
X110996314Y-67175742D01*
X110996314Y-67175742D02*
X110948695Y-67270980D01*
X110948695Y-67270980D02*
X110901076Y-67318600D01*
X110901076Y-67318600D02*
X110805838Y-67366219D01*
X110805838Y-67366219D02*
X110520124Y-67366219D01*
X110520124Y-67366219D02*
X110424886Y-67318600D01*
X110424886Y-67318600D02*
X110377267Y-67270980D01*
X101130000Y-66563057D02*
X101177619Y-66515438D01*
X101177619Y-66515438D02*
X101272857Y-66467819D01*
X101272857Y-66467819D02*
X101510952Y-66467819D01*
X101510952Y-66467819D02*
X101606190Y-66515438D01*
X101606190Y-66515438D02*
X101653809Y-66563057D01*
X101653809Y-66563057D02*
X101701428Y-66658295D01*
X101701428Y-66658295D02*
X101701428Y-66753533D01*
X101701428Y-66753533D02*
X101653809Y-66896390D01*
X101653809Y-66896390D02*
X101082381Y-67467819D01*
X101082381Y-67467819D02*
X101701428Y-67467819D01*
X102130000Y-67467819D02*
X102130000Y-66467819D01*
X102701428Y-67467819D02*
X102272857Y-66896390D01*
X102701428Y-66467819D02*
X102130000Y-67039247D01*
X103844285Y-66420200D02*
X102987143Y-67705914D01*
X104130000Y-66563057D02*
X104177619Y-66515438D01*
X104177619Y-66515438D02*
X104272857Y-66467819D01*
X104272857Y-66467819D02*
X104510952Y-66467819D01*
X104510952Y-66467819D02*
X104606190Y-66515438D01*
X104606190Y-66515438D02*
X104653809Y-66563057D01*
X104653809Y-66563057D02*
X104701428Y-66658295D01*
X104701428Y-66658295D02*
X104701428Y-66753533D01*
X104701428Y-66753533D02*
X104653809Y-66896390D01*
X104653809Y-66896390D02*
X104082381Y-67467819D01*
X104082381Y-67467819D02*
X104701428Y-67467819D01*
X105130000Y-67372580D02*
X105177619Y-67420200D01*
X105177619Y-67420200D02*
X105130000Y-67467819D01*
X105130000Y-67467819D02*
X105082381Y-67420200D01*
X105082381Y-67420200D02*
X105130000Y-67372580D01*
X105130000Y-67372580D02*
X105130000Y-67467819D01*
X105558571Y-66563057D02*
X105606190Y-66515438D01*
X105606190Y-66515438D02*
X105701428Y-66467819D01*
X105701428Y-66467819D02*
X105939523Y-66467819D01*
X105939523Y-66467819D02*
X106034761Y-66515438D01*
X106034761Y-66515438D02*
X106082380Y-66563057D01*
X106082380Y-66563057D02*
X106129999Y-66658295D01*
X106129999Y-66658295D02*
X106129999Y-66753533D01*
X106129999Y-66753533D02*
X106082380Y-66896390D01*
X106082380Y-66896390D02*
X105510952Y-67467819D01*
X105510952Y-67467819D02*
X106129999Y-67467819D01*
X106558571Y-67467819D02*
X106558571Y-66467819D01*
X107129999Y-67467819D02*
X106701428Y-66896390D01*
X107129999Y-66467819D02*
X106558571Y-67039247D01*
%TO.C,R1*%
X70953333Y-73987819D02*
X70620000Y-73511628D01*
X70381905Y-73987819D02*
X70381905Y-72987819D01*
X70381905Y-72987819D02*
X70762857Y-72987819D01*
X70762857Y-72987819D02*
X70858095Y-73035438D01*
X70858095Y-73035438D02*
X70905714Y-73083057D01*
X70905714Y-73083057D02*
X70953333Y-73178295D01*
X70953333Y-73178295D02*
X70953333Y-73321152D01*
X70953333Y-73321152D02*
X70905714Y-73416390D01*
X70905714Y-73416390D02*
X70858095Y-73464009D01*
X70858095Y-73464009D02*
X70762857Y-73511628D01*
X70762857Y-73511628D02*
X70381905Y-73511628D01*
X71905714Y-73987819D02*
X71334286Y-73987819D01*
X71620000Y-73987819D02*
X71620000Y-72987819D01*
X71620000Y-72987819D02*
X71524762Y-73130676D01*
X71524762Y-73130676D02*
X71429524Y-73225914D01*
X71429524Y-73225914D02*
X71334286Y-73273533D01*
X69961286Y-75357819D02*
X70580333Y-75357819D01*
X70580333Y-75357819D02*
X70247000Y-75738771D01*
X70247000Y-75738771D02*
X70389857Y-75738771D01*
X70389857Y-75738771D02*
X70485095Y-75786390D01*
X70485095Y-75786390D02*
X70532714Y-75834009D01*
X70532714Y-75834009D02*
X70580333Y-75929247D01*
X70580333Y-75929247D02*
X70580333Y-76167342D01*
X70580333Y-76167342D02*
X70532714Y-76262580D01*
X70532714Y-76262580D02*
X70485095Y-76310200D01*
X70485095Y-76310200D02*
X70389857Y-76357819D01*
X70389857Y-76357819D02*
X70104143Y-76357819D01*
X70104143Y-76357819D02*
X70008905Y-76310200D01*
X70008905Y-76310200D02*
X69961286Y-76262580D01*
X70913667Y-75357819D02*
X71532714Y-75357819D01*
X71532714Y-75357819D02*
X71199381Y-75738771D01*
X71199381Y-75738771D02*
X71342238Y-75738771D01*
X71342238Y-75738771D02*
X71437476Y-75786390D01*
X71437476Y-75786390D02*
X71485095Y-75834009D01*
X71485095Y-75834009D02*
X71532714Y-75929247D01*
X71532714Y-75929247D02*
X71532714Y-76167342D01*
X71532714Y-76167342D02*
X71485095Y-76262580D01*
X71485095Y-76262580D02*
X71437476Y-76310200D01*
X71437476Y-76310200D02*
X71342238Y-76357819D01*
X71342238Y-76357819D02*
X71056524Y-76357819D01*
X71056524Y-76357819D02*
X70961286Y-76310200D01*
X70961286Y-76310200D02*
X70913667Y-76262580D01*
X72151762Y-75357819D02*
X72247000Y-75357819D01*
X72247000Y-75357819D02*
X72342238Y-75405438D01*
X72342238Y-75405438D02*
X72389857Y-75453057D01*
X72389857Y-75453057D02*
X72437476Y-75548295D01*
X72437476Y-75548295D02*
X72485095Y-75738771D01*
X72485095Y-75738771D02*
X72485095Y-75976866D01*
X72485095Y-75976866D02*
X72437476Y-76167342D01*
X72437476Y-76167342D02*
X72389857Y-76262580D01*
X72389857Y-76262580D02*
X72342238Y-76310200D01*
X72342238Y-76310200D02*
X72247000Y-76357819D01*
X72247000Y-76357819D02*
X72151762Y-76357819D01*
X72151762Y-76357819D02*
X72056524Y-76310200D01*
X72056524Y-76310200D02*
X72008905Y-76262580D01*
X72008905Y-76262580D02*
X71961286Y-76167342D01*
X71961286Y-76167342D02*
X71913667Y-75976866D01*
X71913667Y-75976866D02*
X71913667Y-75738771D01*
X71913667Y-75738771D02*
X71961286Y-75548295D01*
X71961286Y-75548295D02*
X72008905Y-75453057D01*
X72008905Y-75453057D02*
X72056524Y-75405438D01*
X72056524Y-75405438D02*
X72151762Y-75357819D01*
%TO.C,R6*%
X110043933Y-78847019D02*
X109710600Y-78370828D01*
X109472505Y-78847019D02*
X109472505Y-77847019D01*
X109472505Y-77847019D02*
X109853457Y-77847019D01*
X109853457Y-77847019D02*
X109948695Y-77894638D01*
X109948695Y-77894638D02*
X109996314Y-77942257D01*
X109996314Y-77942257D02*
X110043933Y-78037495D01*
X110043933Y-78037495D02*
X110043933Y-78180352D01*
X110043933Y-78180352D02*
X109996314Y-78275590D01*
X109996314Y-78275590D02*
X109948695Y-78323209D01*
X109948695Y-78323209D02*
X109853457Y-78370828D01*
X109853457Y-78370828D02*
X109472505Y-78370828D01*
X110901076Y-77847019D02*
X110710600Y-77847019D01*
X110710600Y-77847019D02*
X110615362Y-77894638D01*
X110615362Y-77894638D02*
X110567743Y-77942257D01*
X110567743Y-77942257D02*
X110472505Y-78085114D01*
X110472505Y-78085114D02*
X110424886Y-78275590D01*
X110424886Y-78275590D02*
X110424886Y-78656542D01*
X110424886Y-78656542D02*
X110472505Y-78751780D01*
X110472505Y-78751780D02*
X110520124Y-78799400D01*
X110520124Y-78799400D02*
X110615362Y-78847019D01*
X110615362Y-78847019D02*
X110805838Y-78847019D01*
X110805838Y-78847019D02*
X110901076Y-78799400D01*
X110901076Y-78799400D02*
X110948695Y-78751780D01*
X110948695Y-78751780D02*
X110996314Y-78656542D01*
X110996314Y-78656542D02*
X110996314Y-78418447D01*
X110996314Y-78418447D02*
X110948695Y-78323209D01*
X110948695Y-78323209D02*
X110901076Y-78275590D01*
X110901076Y-78275590D02*
X110805838Y-78227971D01*
X110805838Y-78227971D02*
X110615362Y-78227971D01*
X110615362Y-78227971D02*
X110520124Y-78275590D01*
X110520124Y-78275590D02*
X110472505Y-78323209D01*
X110472505Y-78323209D02*
X110424886Y-78418447D01*
X101803486Y-77942257D02*
X101851105Y-77894638D01*
X101851105Y-77894638D02*
X101946343Y-77847019D01*
X101946343Y-77847019D02*
X102184438Y-77847019D01*
X102184438Y-77847019D02*
X102279676Y-77894638D01*
X102279676Y-77894638D02*
X102327295Y-77942257D01*
X102327295Y-77942257D02*
X102374914Y-78037495D01*
X102374914Y-78037495D02*
X102374914Y-78132733D01*
X102374914Y-78132733D02*
X102327295Y-78275590D01*
X102327295Y-78275590D02*
X101755867Y-78847019D01*
X101755867Y-78847019D02*
X102374914Y-78847019D01*
X102803486Y-78847019D02*
X102803486Y-77847019D01*
X103374914Y-78847019D02*
X102946343Y-78275590D01*
X103374914Y-77847019D02*
X102803486Y-78418447D01*
X104517771Y-77799400D02*
X103660629Y-79085114D01*
X105374914Y-78847019D02*
X104803486Y-78847019D01*
X105089200Y-78847019D02*
X105089200Y-77847019D01*
X105089200Y-77847019D02*
X104993962Y-77989876D01*
X104993962Y-77989876D02*
X104898724Y-78085114D01*
X104898724Y-78085114D02*
X104803486Y-78132733D01*
X105803486Y-78847019D02*
X105803486Y-77847019D01*
X106374914Y-78847019D02*
X105946343Y-78275590D01*
X106374914Y-77847019D02*
X105803486Y-78418447D01*
%TO.C,J2*%
X136367066Y-76602419D02*
X136367066Y-77316704D01*
X136367066Y-77316704D02*
X136319447Y-77459561D01*
X136319447Y-77459561D02*
X136224209Y-77554800D01*
X136224209Y-77554800D02*
X136081352Y-77602419D01*
X136081352Y-77602419D02*
X135986114Y-77602419D01*
X136795638Y-76697657D02*
X136843257Y-76650038D01*
X136843257Y-76650038D02*
X136938495Y-76602419D01*
X136938495Y-76602419D02*
X137176590Y-76602419D01*
X137176590Y-76602419D02*
X137271828Y-76650038D01*
X137271828Y-76650038D02*
X137319447Y-76697657D01*
X137319447Y-76697657D02*
X137367066Y-76792895D01*
X137367066Y-76792895D02*
X137367066Y-76888133D01*
X137367066Y-76888133D02*
X137319447Y-77030990D01*
X137319447Y-77030990D02*
X136748019Y-77602419D01*
X136748019Y-77602419D02*
X137367066Y-77602419D01*
X131806325Y-85273219D02*
X131806325Y-84273219D01*
X131806325Y-84273219D02*
X132139658Y-84987504D01*
X132139658Y-84987504D02*
X132472991Y-84273219D01*
X132472991Y-84273219D02*
X132472991Y-85273219D01*
X132949182Y-85273219D02*
X132949182Y-84606552D01*
X132949182Y-84273219D02*
X132901563Y-84320838D01*
X132901563Y-84320838D02*
X132949182Y-84368457D01*
X132949182Y-84368457D02*
X132996801Y-84320838D01*
X132996801Y-84320838D02*
X132949182Y-84273219D01*
X132949182Y-84273219D02*
X132949182Y-84368457D01*
X133425372Y-84606552D02*
X133425372Y-85273219D01*
X133425372Y-84701790D02*
X133472991Y-84654171D01*
X133472991Y-84654171D02*
X133568229Y-84606552D01*
X133568229Y-84606552D02*
X133711086Y-84606552D01*
X133711086Y-84606552D02*
X133806324Y-84654171D01*
X133806324Y-84654171D02*
X133853943Y-84749409D01*
X133853943Y-84749409D02*
X133853943Y-85273219D01*
X134330134Y-85273219D02*
X134330134Y-84606552D01*
X134330134Y-84273219D02*
X134282515Y-84320838D01*
X134282515Y-84320838D02*
X134330134Y-84368457D01*
X134330134Y-84368457D02*
X134377753Y-84320838D01*
X134377753Y-84320838D02*
X134330134Y-84273219D01*
X134330134Y-84273219D02*
X134330134Y-84368457D01*
X134806324Y-84606552D02*
X134806324Y-85463695D01*
X134806324Y-85463695D02*
X134758705Y-85558933D01*
X134758705Y-85558933D02*
X134663467Y-85606552D01*
X134663467Y-85606552D02*
X134615848Y-85606552D01*
X134806324Y-84273219D02*
X134758705Y-84320838D01*
X134758705Y-84320838D02*
X134806324Y-84368457D01*
X134806324Y-84368457D02*
X134853943Y-84320838D01*
X134853943Y-84320838D02*
X134806324Y-84273219D01*
X134806324Y-84273219D02*
X134806324Y-84368457D01*
X135711085Y-85273219D02*
X135711085Y-84749409D01*
X135711085Y-84749409D02*
X135663466Y-84654171D01*
X135663466Y-84654171D02*
X135568228Y-84606552D01*
X135568228Y-84606552D02*
X135377752Y-84606552D01*
X135377752Y-84606552D02*
X135282514Y-84654171D01*
X135711085Y-85225600D02*
X135615847Y-85273219D01*
X135615847Y-85273219D02*
X135377752Y-85273219D01*
X135377752Y-85273219D02*
X135282514Y-85225600D01*
X135282514Y-85225600D02*
X135234895Y-85130361D01*
X135234895Y-85130361D02*
X135234895Y-85035123D01*
X135234895Y-85035123D02*
X135282514Y-84939885D01*
X135282514Y-84939885D02*
X135377752Y-84892266D01*
X135377752Y-84892266D02*
X135615847Y-84892266D01*
X135615847Y-84892266D02*
X135711085Y-84844647D01*
X136615847Y-85225600D02*
X136520609Y-85273219D01*
X136520609Y-85273219D02*
X136330133Y-85273219D01*
X136330133Y-85273219D02*
X136234895Y-85225600D01*
X136234895Y-85225600D02*
X136187276Y-85177980D01*
X136187276Y-85177980D02*
X136139657Y-85082742D01*
X136139657Y-85082742D02*
X136139657Y-84797028D01*
X136139657Y-84797028D02*
X136187276Y-84701790D01*
X136187276Y-84701790D02*
X136234895Y-84654171D01*
X136234895Y-84654171D02*
X136330133Y-84606552D01*
X136330133Y-84606552D02*
X136520609Y-84606552D01*
X136520609Y-84606552D02*
X136615847Y-84654171D01*
X137044419Y-85273219D02*
X137044419Y-84273219D01*
X137139657Y-84892266D02*
X137425371Y-85273219D01*
X137425371Y-84606552D02*
X137044419Y-84987504D01*
X138520610Y-84273219D02*
X139139657Y-84273219D01*
X139139657Y-84273219D02*
X138806324Y-84654171D01*
X138806324Y-84654171D02*
X138949181Y-84654171D01*
X138949181Y-84654171D02*
X139044419Y-84701790D01*
X139044419Y-84701790D02*
X139092038Y-84749409D01*
X139092038Y-84749409D02*
X139139657Y-84844647D01*
X139139657Y-84844647D02*
X139139657Y-85082742D01*
X139139657Y-85082742D02*
X139092038Y-85177980D01*
X139092038Y-85177980D02*
X139044419Y-85225600D01*
X139044419Y-85225600D02*
X138949181Y-85273219D01*
X138949181Y-85273219D02*
X138663467Y-85273219D01*
X138663467Y-85273219D02*
X138568229Y-85225600D01*
X138568229Y-85225600D02*
X138520610Y-85177980D01*
X139568229Y-85177980D02*
X139615848Y-85225600D01*
X139615848Y-85225600D02*
X139568229Y-85273219D01*
X139568229Y-85273219D02*
X139520610Y-85225600D01*
X139520610Y-85225600D02*
X139568229Y-85177980D01*
X139568229Y-85177980D02*
X139568229Y-85273219D01*
X140520609Y-84273219D02*
X140044419Y-84273219D01*
X140044419Y-84273219D02*
X139996800Y-84749409D01*
X139996800Y-84749409D02*
X140044419Y-84701790D01*
X140044419Y-84701790D02*
X140139657Y-84654171D01*
X140139657Y-84654171D02*
X140377752Y-84654171D01*
X140377752Y-84654171D02*
X140472990Y-84701790D01*
X140472990Y-84701790D02*
X140520609Y-84749409D01*
X140520609Y-84749409D02*
X140568228Y-84844647D01*
X140568228Y-84844647D02*
X140568228Y-85082742D01*
X140568228Y-85082742D02*
X140520609Y-85177980D01*
X140520609Y-85177980D02*
X140472990Y-85225600D01*
X140472990Y-85225600D02*
X140377752Y-85273219D01*
X140377752Y-85273219D02*
X140139657Y-85273219D01*
X140139657Y-85273219D02*
X140044419Y-85225600D01*
X140044419Y-85225600D02*
X139996800Y-85177980D01*
X140996800Y-85273219D02*
X140996800Y-84606552D01*
X140996800Y-84701790D02*
X141044419Y-84654171D01*
X141044419Y-84654171D02*
X141139657Y-84606552D01*
X141139657Y-84606552D02*
X141282514Y-84606552D01*
X141282514Y-84606552D02*
X141377752Y-84654171D01*
X141377752Y-84654171D02*
X141425371Y-84749409D01*
X141425371Y-84749409D02*
X141425371Y-85273219D01*
X141425371Y-84749409D02*
X141472990Y-84654171D01*
X141472990Y-84654171D02*
X141568228Y-84606552D01*
X141568228Y-84606552D02*
X141711085Y-84606552D01*
X141711085Y-84606552D02*
X141806324Y-84654171D01*
X141806324Y-84654171D02*
X141853943Y-84749409D01*
X141853943Y-84749409D02*
X141853943Y-85273219D01*
X142330133Y-85273219D02*
X142330133Y-84606552D01*
X142330133Y-84701790D02*
X142377752Y-84654171D01*
X142377752Y-84654171D02*
X142472990Y-84606552D01*
X142472990Y-84606552D02*
X142615847Y-84606552D01*
X142615847Y-84606552D02*
X142711085Y-84654171D01*
X142711085Y-84654171D02*
X142758704Y-84749409D01*
X142758704Y-84749409D02*
X142758704Y-85273219D01*
X142758704Y-84749409D02*
X142806323Y-84654171D01*
X142806323Y-84654171D02*
X142901561Y-84606552D01*
X142901561Y-84606552D02*
X143044418Y-84606552D01*
X143044418Y-84606552D02*
X143139657Y-84654171D01*
X143139657Y-84654171D02*
X143187276Y-84749409D01*
X143187276Y-84749409D02*
X143187276Y-85273219D01*
X144901561Y-84273219D02*
X144425371Y-84273219D01*
X144425371Y-84273219D02*
X144377752Y-84749409D01*
X144377752Y-84749409D02*
X144425371Y-84701790D01*
X144425371Y-84701790D02*
X144520609Y-84654171D01*
X144520609Y-84654171D02*
X144758704Y-84654171D01*
X144758704Y-84654171D02*
X144853942Y-84701790D01*
X144853942Y-84701790D02*
X144901561Y-84749409D01*
X144901561Y-84749409D02*
X144949180Y-84844647D01*
X144949180Y-84844647D02*
X144949180Y-85082742D01*
X144949180Y-85082742D02*
X144901561Y-85177980D01*
X144901561Y-85177980D02*
X144853942Y-85225600D01*
X144853942Y-85225600D02*
X144758704Y-85273219D01*
X144758704Y-85273219D02*
X144520609Y-85273219D01*
X144520609Y-85273219D02*
X144425371Y-85225600D01*
X144425371Y-85225600D02*
X144377752Y-85177980D01*
X145377752Y-84606552D02*
X145377752Y-85606552D01*
X145377752Y-84654171D02*
X145472990Y-84606552D01*
X145472990Y-84606552D02*
X145663466Y-84606552D01*
X145663466Y-84606552D02*
X145758704Y-84654171D01*
X145758704Y-84654171D02*
X145806323Y-84701790D01*
X145806323Y-84701790D02*
X145853942Y-84797028D01*
X145853942Y-84797028D02*
X145853942Y-85082742D01*
X145853942Y-85082742D02*
X145806323Y-85177980D01*
X145806323Y-85177980D02*
X145758704Y-85225600D01*
X145758704Y-85225600D02*
X145663466Y-85273219D01*
X145663466Y-85273219D02*
X145472990Y-85273219D01*
X145472990Y-85273219D02*
X145377752Y-85225600D01*
X146282514Y-85273219D02*
X146282514Y-84606552D01*
X146282514Y-84273219D02*
X146234895Y-84320838D01*
X146234895Y-84320838D02*
X146282514Y-84368457D01*
X146282514Y-84368457D02*
X146330133Y-84320838D01*
X146330133Y-84320838D02*
X146282514Y-84273219D01*
X146282514Y-84273219D02*
X146282514Y-84368457D01*
X146758704Y-84606552D02*
X146758704Y-85273219D01*
X146758704Y-84701790D02*
X146806323Y-84654171D01*
X146806323Y-84654171D02*
X146901561Y-84606552D01*
X146901561Y-84606552D02*
X147044418Y-84606552D01*
X147044418Y-84606552D02*
X147139656Y-84654171D01*
X147139656Y-84654171D02*
X147187275Y-84749409D01*
X147187275Y-84749409D02*
X147187275Y-85273219D01*
%TO.C,U5*%
X57673095Y-65502619D02*
X57673095Y-66312142D01*
X57673095Y-66312142D02*
X57720714Y-66407380D01*
X57720714Y-66407380D02*
X57768333Y-66455000D01*
X57768333Y-66455000D02*
X57863571Y-66502619D01*
X57863571Y-66502619D02*
X58054047Y-66502619D01*
X58054047Y-66502619D02*
X58149285Y-66455000D01*
X58149285Y-66455000D02*
X58196904Y-66407380D01*
X58196904Y-66407380D02*
X58244523Y-66312142D01*
X58244523Y-66312142D02*
X58244523Y-65502619D01*
X59196904Y-65502619D02*
X58720714Y-65502619D01*
X58720714Y-65502619D02*
X58673095Y-65978809D01*
X58673095Y-65978809D02*
X58720714Y-65931190D01*
X58720714Y-65931190D02*
X58815952Y-65883571D01*
X58815952Y-65883571D02*
X59054047Y-65883571D01*
X59054047Y-65883571D02*
X59149285Y-65931190D01*
X59149285Y-65931190D02*
X59196904Y-65978809D01*
X59196904Y-65978809D02*
X59244523Y-66074047D01*
X59244523Y-66074047D02*
X59244523Y-66312142D01*
X59244523Y-66312142D02*
X59196904Y-66407380D01*
X59196904Y-66407380D02*
X59149285Y-66455000D01*
X59149285Y-66455000D02*
X59054047Y-66502619D01*
X59054047Y-66502619D02*
X58815952Y-66502619D01*
X58815952Y-66502619D02*
X58720714Y-66455000D01*
X58720714Y-66455000D02*
X58673095Y-66407380D01*
X58857219Y-83480847D02*
X57857219Y-83480847D01*
X57857219Y-83480847D02*
X58571504Y-83147514D01*
X58571504Y-83147514D02*
X57857219Y-82814181D01*
X57857219Y-82814181D02*
X58857219Y-82814181D01*
X57857219Y-81861800D02*
X57857219Y-82337990D01*
X57857219Y-82337990D02*
X58333409Y-82385609D01*
X58333409Y-82385609D02*
X58285790Y-82337990D01*
X58285790Y-82337990D02*
X58238171Y-82242752D01*
X58238171Y-82242752D02*
X58238171Y-82004657D01*
X58238171Y-82004657D02*
X58285790Y-81909419D01*
X58285790Y-81909419D02*
X58333409Y-81861800D01*
X58333409Y-81861800D02*
X58428647Y-81814181D01*
X58428647Y-81814181D02*
X58666742Y-81814181D01*
X58666742Y-81814181D02*
X58761980Y-81861800D01*
X58761980Y-81861800D02*
X58809600Y-81909419D01*
X58809600Y-81909419D02*
X58857219Y-82004657D01*
X58857219Y-82004657D02*
X58857219Y-82242752D01*
X58857219Y-82242752D02*
X58809600Y-82337990D01*
X58809600Y-82337990D02*
X58761980Y-82385609D01*
X57857219Y-80909419D02*
X57857219Y-81385609D01*
X57857219Y-81385609D02*
X58333409Y-81433228D01*
X58333409Y-81433228D02*
X58285790Y-81385609D01*
X58285790Y-81385609D02*
X58238171Y-81290371D01*
X58238171Y-81290371D02*
X58238171Y-81052276D01*
X58238171Y-81052276D02*
X58285790Y-80957038D01*
X58285790Y-80957038D02*
X58333409Y-80909419D01*
X58333409Y-80909419D02*
X58428647Y-80861800D01*
X58428647Y-80861800D02*
X58666742Y-80861800D01*
X58666742Y-80861800D02*
X58761980Y-80909419D01*
X58761980Y-80909419D02*
X58809600Y-80957038D01*
X58809600Y-80957038D02*
X58857219Y-81052276D01*
X58857219Y-81052276D02*
X58857219Y-81290371D01*
X58857219Y-81290371D02*
X58809600Y-81385609D01*
X58809600Y-81385609D02*
X58761980Y-81433228D01*
X57857219Y-79957038D02*
X57857219Y-80433228D01*
X57857219Y-80433228D02*
X58333409Y-80480847D01*
X58333409Y-80480847D02*
X58285790Y-80433228D01*
X58285790Y-80433228D02*
X58238171Y-80337990D01*
X58238171Y-80337990D02*
X58238171Y-80099895D01*
X58238171Y-80099895D02*
X58285790Y-80004657D01*
X58285790Y-80004657D02*
X58333409Y-79957038D01*
X58333409Y-79957038D02*
X58428647Y-79909419D01*
X58428647Y-79909419D02*
X58666742Y-79909419D01*
X58666742Y-79909419D02*
X58761980Y-79957038D01*
X58761980Y-79957038D02*
X58809600Y-80004657D01*
X58809600Y-80004657D02*
X58857219Y-80099895D01*
X58857219Y-80099895D02*
X58857219Y-80337990D01*
X58857219Y-80337990D02*
X58809600Y-80433228D01*
X58809600Y-80433228D02*
X58761980Y-80480847D01*
X58857219Y-78909419D02*
X57857219Y-78909419D01*
X57857219Y-78909419D02*
X57857219Y-79052276D01*
X57857219Y-79052276D02*
X57904838Y-79195133D01*
X57904838Y-79195133D02*
X58000076Y-79290371D01*
X58000076Y-79290371D02*
X58142933Y-79337990D01*
X58142933Y-79337990D02*
X58714361Y-79433228D01*
X58714361Y-79433228D02*
X58809600Y-79480847D01*
X58809600Y-79480847D02*
X58857219Y-79576085D01*
X58857219Y-79576085D02*
X58857219Y-79623704D01*
X58857219Y-78433228D02*
X57857219Y-78433228D01*
X58333409Y-78433228D02*
X58333409Y-77861800D01*
X58857219Y-77861800D02*
X57857219Y-77861800D01*
X58857219Y-76861800D02*
X58857219Y-77433228D01*
X58857219Y-77147514D02*
X57857219Y-77147514D01*
X57857219Y-77147514D02*
X58000076Y-77242752D01*
X58000076Y-77242752D02*
X58095314Y-77337990D01*
X58095314Y-77337990D02*
X58142933Y-77433228D01*
X59238171Y-75385609D02*
X59190552Y-75433228D01*
X59190552Y-75433228D02*
X59047695Y-75528466D01*
X59047695Y-75528466D02*
X58952457Y-75576085D01*
X58952457Y-75576085D02*
X58809600Y-75623704D01*
X58809600Y-75623704D02*
X58571504Y-75671323D01*
X58571504Y-75671323D02*
X58381028Y-75671323D01*
X58381028Y-75671323D02*
X58142933Y-75623704D01*
X58142933Y-75623704D02*
X58000076Y-75576085D01*
X58000076Y-75576085D02*
X57904838Y-75528466D01*
X57904838Y-75528466D02*
X57761980Y-75433228D01*
X57761980Y-75433228D02*
X57714361Y-75385609D01*
X58809600Y-75052275D02*
X58857219Y-74909418D01*
X58857219Y-74909418D02*
X58857219Y-74671323D01*
X58857219Y-74671323D02*
X58809600Y-74576085D01*
X58809600Y-74576085D02*
X58761980Y-74528466D01*
X58761980Y-74528466D02*
X58666742Y-74480847D01*
X58666742Y-74480847D02*
X58571504Y-74480847D01*
X58571504Y-74480847D02*
X58476266Y-74528466D01*
X58476266Y-74528466D02*
X58428647Y-74576085D01*
X58428647Y-74576085D02*
X58381028Y-74671323D01*
X58381028Y-74671323D02*
X58333409Y-74861799D01*
X58333409Y-74861799D02*
X58285790Y-74957037D01*
X58285790Y-74957037D02*
X58238171Y-75004656D01*
X58238171Y-75004656D02*
X58142933Y-75052275D01*
X58142933Y-75052275D02*
X58047695Y-75052275D01*
X58047695Y-75052275D02*
X57952457Y-75004656D01*
X57952457Y-75004656D02*
X57904838Y-74957037D01*
X57904838Y-74957037D02*
X57857219Y-74861799D01*
X57857219Y-74861799D02*
X57857219Y-74623704D01*
X57857219Y-74623704D02*
X57904838Y-74480847D01*
X58857219Y-74052275D02*
X57857219Y-74052275D01*
X57857219Y-74052275D02*
X58857219Y-73480847D01*
X58857219Y-73480847D02*
X57857219Y-73480847D01*
X57857219Y-73099894D02*
X57857219Y-72433228D01*
X57857219Y-72433228D02*
X58857219Y-72861799D01*
X58190552Y-71623704D02*
X58857219Y-71623704D01*
X57809600Y-71861799D02*
X58523885Y-72099894D01*
X58523885Y-72099894D02*
X58523885Y-71480847D01*
X58857219Y-70623704D02*
X58857219Y-71099894D01*
X58857219Y-71099894D02*
X57857219Y-71099894D01*
X58809600Y-70337989D02*
X58857219Y-70195132D01*
X58857219Y-70195132D02*
X58857219Y-69957037D01*
X58857219Y-69957037D02*
X58809600Y-69861799D01*
X58809600Y-69861799D02*
X58761980Y-69814180D01*
X58761980Y-69814180D02*
X58666742Y-69766561D01*
X58666742Y-69766561D02*
X58571504Y-69766561D01*
X58571504Y-69766561D02*
X58476266Y-69814180D01*
X58476266Y-69814180D02*
X58428647Y-69861799D01*
X58428647Y-69861799D02*
X58381028Y-69957037D01*
X58381028Y-69957037D02*
X58333409Y-70147513D01*
X58333409Y-70147513D02*
X58285790Y-70242751D01*
X58285790Y-70242751D02*
X58238171Y-70290370D01*
X58238171Y-70290370D02*
X58142933Y-70337989D01*
X58142933Y-70337989D02*
X58047695Y-70337989D01*
X58047695Y-70337989D02*
X57952457Y-70290370D01*
X57952457Y-70290370D02*
X57904838Y-70242751D01*
X57904838Y-70242751D02*
X57857219Y-70147513D01*
X57857219Y-70147513D02*
X57857219Y-69909418D01*
X57857219Y-69909418D02*
X57904838Y-69766561D01*
X57857219Y-69147513D02*
X57857219Y-69052275D01*
X57857219Y-69052275D02*
X57904838Y-68957037D01*
X57904838Y-68957037D02*
X57952457Y-68909418D01*
X57952457Y-68909418D02*
X58047695Y-68861799D01*
X58047695Y-68861799D02*
X58238171Y-68814180D01*
X58238171Y-68814180D02*
X58476266Y-68814180D01*
X58476266Y-68814180D02*
X58666742Y-68861799D01*
X58666742Y-68861799D02*
X58761980Y-68909418D01*
X58761980Y-68909418D02*
X58809600Y-68957037D01*
X58809600Y-68957037D02*
X58857219Y-69052275D01*
X58857219Y-69052275D02*
X58857219Y-69147513D01*
X58857219Y-69147513D02*
X58809600Y-69242751D01*
X58809600Y-69242751D02*
X58761980Y-69290370D01*
X58761980Y-69290370D02*
X58666742Y-69337989D01*
X58666742Y-69337989D02*
X58476266Y-69385608D01*
X58476266Y-69385608D02*
X58238171Y-69385608D01*
X58238171Y-69385608D02*
X58047695Y-69337989D01*
X58047695Y-69337989D02*
X57952457Y-69290370D01*
X57952457Y-69290370D02*
X57904838Y-69242751D01*
X57904838Y-69242751D02*
X57857219Y-69147513D01*
X58190552Y-67957037D02*
X58857219Y-67957037D01*
X57809600Y-68195132D02*
X58523885Y-68433227D01*
X58523885Y-68433227D02*
X58523885Y-67814180D01*
X59238171Y-67528465D02*
X59190552Y-67480846D01*
X59190552Y-67480846D02*
X59047695Y-67385608D01*
X59047695Y-67385608D02*
X58952457Y-67337989D01*
X58952457Y-67337989D02*
X58809600Y-67290370D01*
X58809600Y-67290370D02*
X58571504Y-67242751D01*
X58571504Y-67242751D02*
X58381028Y-67242751D01*
X58381028Y-67242751D02*
X58142933Y-67290370D01*
X58142933Y-67290370D02*
X58000076Y-67337989D01*
X58000076Y-67337989D02*
X57904838Y-67385608D01*
X57904838Y-67385608D02*
X57761980Y-67480846D01*
X57761980Y-67480846D02*
X57714361Y-67528465D01*
%TO.C,U3*%
X83185095Y-44039619D02*
X83185095Y-44849142D01*
X83185095Y-44849142D02*
X83232714Y-44944380D01*
X83232714Y-44944380D02*
X83280333Y-44992000D01*
X83280333Y-44992000D02*
X83375571Y-45039619D01*
X83375571Y-45039619D02*
X83566047Y-45039619D01*
X83566047Y-45039619D02*
X83661285Y-44992000D01*
X83661285Y-44992000D02*
X83708904Y-44944380D01*
X83708904Y-44944380D02*
X83756523Y-44849142D01*
X83756523Y-44849142D02*
X83756523Y-44039619D01*
X84137476Y-44039619D02*
X84756523Y-44039619D01*
X84756523Y-44039619D02*
X84423190Y-44420571D01*
X84423190Y-44420571D02*
X84566047Y-44420571D01*
X84566047Y-44420571D02*
X84661285Y-44468190D01*
X84661285Y-44468190D02*
X84708904Y-44515809D01*
X84708904Y-44515809D02*
X84756523Y-44611047D01*
X84756523Y-44611047D02*
X84756523Y-44849142D01*
X84756523Y-44849142D02*
X84708904Y-44944380D01*
X84708904Y-44944380D02*
X84661285Y-44992000D01*
X84661285Y-44992000D02*
X84566047Y-45039619D01*
X84566047Y-45039619D02*
X84280333Y-45039619D01*
X84280333Y-45039619D02*
X84185095Y-44992000D01*
X84185095Y-44992000D02*
X84137476Y-44944380D01*
X84358819Y-61749581D02*
X83358819Y-61749581D01*
X84358819Y-61178153D02*
X83787390Y-61606724D01*
X83358819Y-61178153D02*
X83930247Y-61749581D01*
X83358819Y-60273391D02*
X83358819Y-60749581D01*
X83358819Y-60749581D02*
X83835009Y-60797200D01*
X83835009Y-60797200D02*
X83787390Y-60749581D01*
X83787390Y-60749581D02*
X83739771Y-60654343D01*
X83739771Y-60654343D02*
X83739771Y-60416248D01*
X83739771Y-60416248D02*
X83787390Y-60321010D01*
X83787390Y-60321010D02*
X83835009Y-60273391D01*
X83835009Y-60273391D02*
X83930247Y-60225772D01*
X83930247Y-60225772D02*
X84168342Y-60225772D01*
X84168342Y-60225772D02*
X84263580Y-60273391D01*
X84263580Y-60273391D02*
X84311200Y-60321010D01*
X84311200Y-60321010D02*
X84358819Y-60416248D01*
X84358819Y-60416248D02*
X84358819Y-60654343D01*
X84358819Y-60654343D02*
X84311200Y-60749581D01*
X84311200Y-60749581D02*
X84263580Y-60797200D01*
X83358819Y-59321010D02*
X83358819Y-59797200D01*
X83358819Y-59797200D02*
X83835009Y-59844819D01*
X83835009Y-59844819D02*
X83787390Y-59797200D01*
X83787390Y-59797200D02*
X83739771Y-59701962D01*
X83739771Y-59701962D02*
X83739771Y-59463867D01*
X83739771Y-59463867D02*
X83787390Y-59368629D01*
X83787390Y-59368629D02*
X83835009Y-59321010D01*
X83835009Y-59321010D02*
X83930247Y-59273391D01*
X83930247Y-59273391D02*
X84168342Y-59273391D01*
X84168342Y-59273391D02*
X84263580Y-59321010D01*
X84263580Y-59321010D02*
X84311200Y-59368629D01*
X84311200Y-59368629D02*
X84358819Y-59463867D01*
X84358819Y-59463867D02*
X84358819Y-59701962D01*
X84358819Y-59701962D02*
X84311200Y-59797200D01*
X84311200Y-59797200D02*
X84263580Y-59844819D01*
X83358819Y-58368629D02*
X83358819Y-58844819D01*
X83358819Y-58844819D02*
X83835009Y-58892438D01*
X83835009Y-58892438D02*
X83787390Y-58844819D01*
X83787390Y-58844819D02*
X83739771Y-58749581D01*
X83739771Y-58749581D02*
X83739771Y-58511486D01*
X83739771Y-58511486D02*
X83787390Y-58416248D01*
X83787390Y-58416248D02*
X83835009Y-58368629D01*
X83835009Y-58368629D02*
X83930247Y-58321010D01*
X83930247Y-58321010D02*
X84168342Y-58321010D01*
X84168342Y-58321010D02*
X84263580Y-58368629D01*
X84263580Y-58368629D02*
X84311200Y-58416248D01*
X84311200Y-58416248D02*
X84358819Y-58511486D01*
X84358819Y-58511486D02*
X84358819Y-58749581D01*
X84358819Y-58749581D02*
X84311200Y-58844819D01*
X84311200Y-58844819D02*
X84263580Y-58892438D01*
X83358819Y-58035295D02*
X83358819Y-57463867D01*
X84358819Y-57749581D02*
X83358819Y-57749581D01*
X84358819Y-57130533D02*
X83358819Y-57130533D01*
X83358819Y-57130533D02*
X84073104Y-56797200D01*
X84073104Y-56797200D02*
X83358819Y-56463867D01*
X83358819Y-56463867D02*
X84358819Y-56463867D01*
X83454057Y-56035295D02*
X83406438Y-55987676D01*
X83406438Y-55987676D02*
X83358819Y-55892438D01*
X83358819Y-55892438D02*
X83358819Y-55654343D01*
X83358819Y-55654343D02*
X83406438Y-55559105D01*
X83406438Y-55559105D02*
X83454057Y-55511486D01*
X83454057Y-55511486D02*
X83549295Y-55463867D01*
X83549295Y-55463867D02*
X83644533Y-55463867D01*
X83644533Y-55463867D02*
X83787390Y-55511486D01*
X83787390Y-55511486D02*
X84358819Y-56082914D01*
X84358819Y-56082914D02*
X84358819Y-55463867D01*
X84739771Y-53987676D02*
X84692152Y-54035295D01*
X84692152Y-54035295D02*
X84549295Y-54130533D01*
X84549295Y-54130533D02*
X84454057Y-54178152D01*
X84454057Y-54178152D02*
X84311200Y-54225771D01*
X84311200Y-54225771D02*
X84073104Y-54273390D01*
X84073104Y-54273390D02*
X83882628Y-54273390D01*
X83882628Y-54273390D02*
X83644533Y-54225771D01*
X83644533Y-54225771D02*
X83501676Y-54178152D01*
X83501676Y-54178152D02*
X83406438Y-54130533D01*
X83406438Y-54130533D02*
X83263580Y-54035295D01*
X83263580Y-54035295D02*
X83215961Y-53987676D01*
X84311200Y-53654342D02*
X84358819Y-53511485D01*
X84358819Y-53511485D02*
X84358819Y-53273390D01*
X84358819Y-53273390D02*
X84311200Y-53178152D01*
X84311200Y-53178152D02*
X84263580Y-53130533D01*
X84263580Y-53130533D02*
X84168342Y-53082914D01*
X84168342Y-53082914D02*
X84073104Y-53082914D01*
X84073104Y-53082914D02*
X83977866Y-53130533D01*
X83977866Y-53130533D02*
X83930247Y-53178152D01*
X83930247Y-53178152D02*
X83882628Y-53273390D01*
X83882628Y-53273390D02*
X83835009Y-53463866D01*
X83835009Y-53463866D02*
X83787390Y-53559104D01*
X83787390Y-53559104D02*
X83739771Y-53606723D01*
X83739771Y-53606723D02*
X83644533Y-53654342D01*
X83644533Y-53654342D02*
X83549295Y-53654342D01*
X83549295Y-53654342D02*
X83454057Y-53606723D01*
X83454057Y-53606723D02*
X83406438Y-53559104D01*
X83406438Y-53559104D02*
X83358819Y-53463866D01*
X83358819Y-53463866D02*
X83358819Y-53225771D01*
X83358819Y-53225771D02*
X83406438Y-53082914D01*
X84358819Y-52654342D02*
X83358819Y-52654342D01*
X83358819Y-52654342D02*
X84358819Y-52082914D01*
X84358819Y-52082914D02*
X83358819Y-52082914D01*
X83358819Y-51701961D02*
X83358819Y-51035295D01*
X83358819Y-51035295D02*
X84358819Y-51463866D01*
X83692152Y-50225771D02*
X84358819Y-50225771D01*
X83311200Y-50463866D02*
X84025485Y-50701961D01*
X84025485Y-50701961D02*
X84025485Y-50082914D01*
X84358819Y-49225771D02*
X84358819Y-49701961D01*
X84358819Y-49701961D02*
X83358819Y-49701961D01*
X84311200Y-48940056D02*
X84358819Y-48797199D01*
X84358819Y-48797199D02*
X84358819Y-48559104D01*
X84358819Y-48559104D02*
X84311200Y-48463866D01*
X84311200Y-48463866D02*
X84263580Y-48416247D01*
X84263580Y-48416247D02*
X84168342Y-48368628D01*
X84168342Y-48368628D02*
X84073104Y-48368628D01*
X84073104Y-48368628D02*
X83977866Y-48416247D01*
X83977866Y-48416247D02*
X83930247Y-48463866D01*
X83930247Y-48463866D02*
X83882628Y-48559104D01*
X83882628Y-48559104D02*
X83835009Y-48749580D01*
X83835009Y-48749580D02*
X83787390Y-48844818D01*
X83787390Y-48844818D02*
X83739771Y-48892437D01*
X83739771Y-48892437D02*
X83644533Y-48940056D01*
X83644533Y-48940056D02*
X83549295Y-48940056D01*
X83549295Y-48940056D02*
X83454057Y-48892437D01*
X83454057Y-48892437D02*
X83406438Y-48844818D01*
X83406438Y-48844818D02*
X83358819Y-48749580D01*
X83358819Y-48749580D02*
X83358819Y-48511485D01*
X83358819Y-48511485D02*
X83406438Y-48368628D01*
X83358819Y-48035294D02*
X83358819Y-47368628D01*
X83358819Y-47368628D02*
X84358819Y-47797199D01*
X83692152Y-46559104D02*
X84358819Y-46559104D01*
X83311200Y-46797199D02*
X84025485Y-47035294D01*
X84025485Y-47035294D02*
X84025485Y-46416247D01*
X84739771Y-46130532D02*
X84692152Y-46082913D01*
X84692152Y-46082913D02*
X84549295Y-45987675D01*
X84549295Y-45987675D02*
X84454057Y-45940056D01*
X84454057Y-45940056D02*
X84311200Y-45892437D01*
X84311200Y-45892437D02*
X84073104Y-45844818D01*
X84073104Y-45844818D02*
X83882628Y-45844818D01*
X83882628Y-45844818D02*
X83644533Y-45892437D01*
X83644533Y-45892437D02*
X83501676Y-45940056D01*
X83501676Y-45940056D02*
X83406438Y-45987675D01*
X83406438Y-45987675D02*
X83263580Y-46082913D01*
X83263580Y-46082913D02*
X83215961Y-46130532D01*
%TO.C,R5*%
X110043933Y-74884619D02*
X109710600Y-74408428D01*
X109472505Y-74884619D02*
X109472505Y-73884619D01*
X109472505Y-73884619D02*
X109853457Y-73884619D01*
X109853457Y-73884619D02*
X109948695Y-73932238D01*
X109948695Y-73932238D02*
X109996314Y-73979857D01*
X109996314Y-73979857D02*
X110043933Y-74075095D01*
X110043933Y-74075095D02*
X110043933Y-74217952D01*
X110043933Y-74217952D02*
X109996314Y-74313190D01*
X109996314Y-74313190D02*
X109948695Y-74360809D01*
X109948695Y-74360809D02*
X109853457Y-74408428D01*
X109853457Y-74408428D02*
X109472505Y-74408428D01*
X110948695Y-73884619D02*
X110472505Y-73884619D01*
X110472505Y-73884619D02*
X110424886Y-74360809D01*
X110424886Y-74360809D02*
X110472505Y-74313190D01*
X110472505Y-74313190D02*
X110567743Y-74265571D01*
X110567743Y-74265571D02*
X110805838Y-74265571D01*
X110805838Y-74265571D02*
X110901076Y-74313190D01*
X110901076Y-74313190D02*
X110948695Y-74360809D01*
X110948695Y-74360809D02*
X110996314Y-74456047D01*
X110996314Y-74456047D02*
X110996314Y-74694142D01*
X110996314Y-74694142D02*
X110948695Y-74789380D01*
X110948695Y-74789380D02*
X110901076Y-74837000D01*
X110901076Y-74837000D02*
X110805838Y-74884619D01*
X110805838Y-74884619D02*
X110567743Y-74884619D01*
X110567743Y-74884619D02*
X110472505Y-74837000D01*
X110472505Y-74837000D02*
X110424886Y-74789380D01*
X101905086Y-74157657D02*
X101952705Y-74110038D01*
X101952705Y-74110038D02*
X102047943Y-74062419D01*
X102047943Y-74062419D02*
X102286038Y-74062419D01*
X102286038Y-74062419D02*
X102381276Y-74110038D01*
X102381276Y-74110038D02*
X102428895Y-74157657D01*
X102428895Y-74157657D02*
X102476514Y-74252895D01*
X102476514Y-74252895D02*
X102476514Y-74348133D01*
X102476514Y-74348133D02*
X102428895Y-74490990D01*
X102428895Y-74490990D02*
X101857467Y-75062419D01*
X101857467Y-75062419D02*
X102476514Y-75062419D01*
X102905086Y-75062419D02*
X102905086Y-74062419D01*
X103476514Y-75062419D02*
X103047943Y-74490990D01*
X103476514Y-74062419D02*
X102905086Y-74633847D01*
X104619371Y-74014800D02*
X103762229Y-75300514D01*
X105476514Y-75062419D02*
X104905086Y-75062419D01*
X105190800Y-75062419D02*
X105190800Y-74062419D01*
X105190800Y-74062419D02*
X105095562Y-74205276D01*
X105095562Y-74205276D02*
X105000324Y-74300514D01*
X105000324Y-74300514D02*
X104905086Y-74348133D01*
X105905086Y-75062419D02*
X105905086Y-74062419D01*
X106476514Y-75062419D02*
X106047943Y-74490990D01*
X106476514Y-74062419D02*
X105905086Y-74633847D01*
%TO.C,Y1*%
X97263009Y-78193028D02*
X97263009Y-78669219D01*
X96929676Y-77669219D02*
X97263009Y-78193028D01*
X97263009Y-78193028D02*
X97596342Y-77669219D01*
X98453485Y-78669219D02*
X97882057Y-78669219D01*
X98167771Y-78669219D02*
X98167771Y-77669219D01*
X98167771Y-77669219D02*
X98072533Y-77812076D01*
X98072533Y-77812076D02*
X97977295Y-77907314D01*
X97977295Y-77907314D02*
X97882057Y-77954933D01*
X81375857Y-70201619D02*
X81994904Y-70201619D01*
X81994904Y-70201619D02*
X81661571Y-70582571D01*
X81661571Y-70582571D02*
X81804428Y-70582571D01*
X81804428Y-70582571D02*
X81899666Y-70630190D01*
X81899666Y-70630190D02*
X81947285Y-70677809D01*
X81947285Y-70677809D02*
X81994904Y-70773047D01*
X81994904Y-70773047D02*
X81994904Y-71011142D01*
X81994904Y-71011142D02*
X81947285Y-71106380D01*
X81947285Y-71106380D02*
X81899666Y-71154000D01*
X81899666Y-71154000D02*
X81804428Y-71201619D01*
X81804428Y-71201619D02*
X81518714Y-71201619D01*
X81518714Y-71201619D02*
X81423476Y-71154000D01*
X81423476Y-71154000D02*
X81375857Y-71106380D01*
X82423476Y-71106380D02*
X82471095Y-71154000D01*
X82471095Y-71154000D02*
X82423476Y-71201619D01*
X82423476Y-71201619D02*
X82375857Y-71154000D01*
X82375857Y-71154000D02*
X82423476Y-71106380D01*
X82423476Y-71106380D02*
X82423476Y-71201619D01*
X83375856Y-70201619D02*
X82899666Y-70201619D01*
X82899666Y-70201619D02*
X82852047Y-70677809D01*
X82852047Y-70677809D02*
X82899666Y-70630190D01*
X82899666Y-70630190D02*
X82994904Y-70582571D01*
X82994904Y-70582571D02*
X83232999Y-70582571D01*
X83232999Y-70582571D02*
X83328237Y-70630190D01*
X83328237Y-70630190D02*
X83375856Y-70677809D01*
X83375856Y-70677809D02*
X83423475Y-70773047D01*
X83423475Y-70773047D02*
X83423475Y-71011142D01*
X83423475Y-71011142D02*
X83375856Y-71106380D01*
X83375856Y-71106380D02*
X83328237Y-71154000D01*
X83328237Y-71154000D02*
X83232999Y-71201619D01*
X83232999Y-71201619D02*
X82994904Y-71201619D01*
X82994904Y-71201619D02*
X82899666Y-71154000D01*
X82899666Y-71154000D02*
X82852047Y-71106380D01*
X83756809Y-70201619D02*
X84423475Y-70201619D01*
X84423475Y-70201619D02*
X83994904Y-71201619D01*
X84852047Y-71201619D02*
X85042523Y-71201619D01*
X85042523Y-71201619D02*
X85137761Y-71154000D01*
X85137761Y-71154000D02*
X85185380Y-71106380D01*
X85185380Y-71106380D02*
X85280618Y-70963523D01*
X85280618Y-70963523D02*
X85328237Y-70773047D01*
X85328237Y-70773047D02*
X85328237Y-70392095D01*
X85328237Y-70392095D02*
X85280618Y-70296857D01*
X85280618Y-70296857D02*
X85232999Y-70249238D01*
X85232999Y-70249238D02*
X85137761Y-70201619D01*
X85137761Y-70201619D02*
X84947285Y-70201619D01*
X84947285Y-70201619D02*
X84852047Y-70249238D01*
X84852047Y-70249238D02*
X84804428Y-70296857D01*
X84804428Y-70296857D02*
X84756809Y-70392095D01*
X84756809Y-70392095D02*
X84756809Y-70630190D01*
X84756809Y-70630190D02*
X84804428Y-70725428D01*
X84804428Y-70725428D02*
X84852047Y-70773047D01*
X84852047Y-70773047D02*
X84947285Y-70820666D01*
X84947285Y-70820666D02*
X85137761Y-70820666D01*
X85137761Y-70820666D02*
X85232999Y-70773047D01*
X85232999Y-70773047D02*
X85280618Y-70725428D01*
X85280618Y-70725428D02*
X85328237Y-70630190D01*
X86232999Y-70201619D02*
X85756809Y-70201619D01*
X85756809Y-70201619D02*
X85709190Y-70677809D01*
X85709190Y-70677809D02*
X85756809Y-70630190D01*
X85756809Y-70630190D02*
X85852047Y-70582571D01*
X85852047Y-70582571D02*
X86090142Y-70582571D01*
X86090142Y-70582571D02*
X86185380Y-70630190D01*
X86185380Y-70630190D02*
X86232999Y-70677809D01*
X86232999Y-70677809D02*
X86280618Y-70773047D01*
X86280618Y-70773047D02*
X86280618Y-71011142D01*
X86280618Y-71011142D02*
X86232999Y-71106380D01*
X86232999Y-71106380D02*
X86185380Y-71154000D01*
X86185380Y-71154000D02*
X86090142Y-71201619D01*
X86090142Y-71201619D02*
X85852047Y-71201619D01*
X85852047Y-71201619D02*
X85756809Y-71154000D01*
X85756809Y-71154000D02*
X85709190Y-71106380D01*
X87137761Y-70534952D02*
X87137761Y-71201619D01*
X86899666Y-70154000D02*
X86661571Y-70868285D01*
X86661571Y-70868285D02*
X87280618Y-70868285D01*
X88137761Y-70201619D02*
X87661571Y-70201619D01*
X87661571Y-70201619D02*
X87613952Y-70677809D01*
X87613952Y-70677809D02*
X87661571Y-70630190D01*
X87661571Y-70630190D02*
X87756809Y-70582571D01*
X87756809Y-70582571D02*
X87994904Y-70582571D01*
X87994904Y-70582571D02*
X88090142Y-70630190D01*
X88090142Y-70630190D02*
X88137761Y-70677809D01*
X88137761Y-70677809D02*
X88185380Y-70773047D01*
X88185380Y-70773047D02*
X88185380Y-71011142D01*
X88185380Y-71011142D02*
X88137761Y-71106380D01*
X88137761Y-71106380D02*
X88090142Y-71154000D01*
X88090142Y-71154000D02*
X87994904Y-71201619D01*
X87994904Y-71201619D02*
X87756809Y-71201619D01*
X87756809Y-71201619D02*
X87661571Y-71154000D01*
X87661571Y-71154000D02*
X87613952Y-71106380D01*
X88613952Y-71201619D02*
X88613952Y-70201619D01*
X88613952Y-70201619D02*
X88947285Y-70915904D01*
X88947285Y-70915904D02*
X89280618Y-70201619D01*
X89280618Y-70201619D02*
X89280618Y-71201619D01*
X89756809Y-71201619D02*
X89756809Y-70201619D01*
X90185380Y-71201619D02*
X90185380Y-70677809D01*
X90185380Y-70677809D02*
X90137761Y-70582571D01*
X90137761Y-70582571D02*
X90042523Y-70534952D01*
X90042523Y-70534952D02*
X89899666Y-70534952D01*
X89899666Y-70534952D02*
X89804428Y-70582571D01*
X89804428Y-70582571D02*
X89756809Y-70630190D01*
X90566333Y-70534952D02*
X91090142Y-70534952D01*
X91090142Y-70534952D02*
X90566333Y-71201619D01*
X90566333Y-71201619D02*
X91090142Y-71201619D01*
%TO.C,R4*%
X110043933Y-71328619D02*
X109710600Y-70852428D01*
X109472505Y-71328619D02*
X109472505Y-70328619D01*
X109472505Y-70328619D02*
X109853457Y-70328619D01*
X109853457Y-70328619D02*
X109948695Y-70376238D01*
X109948695Y-70376238D02*
X109996314Y-70423857D01*
X109996314Y-70423857D02*
X110043933Y-70519095D01*
X110043933Y-70519095D02*
X110043933Y-70661952D01*
X110043933Y-70661952D02*
X109996314Y-70757190D01*
X109996314Y-70757190D02*
X109948695Y-70804809D01*
X109948695Y-70804809D02*
X109853457Y-70852428D01*
X109853457Y-70852428D02*
X109472505Y-70852428D01*
X110901076Y-70661952D02*
X110901076Y-71328619D01*
X110662981Y-70281000D02*
X110424886Y-70995285D01*
X110424886Y-70995285D02*
X111043933Y-70995285D01*
X101165400Y-70347657D02*
X101213019Y-70300038D01*
X101213019Y-70300038D02*
X101308257Y-70252419D01*
X101308257Y-70252419D02*
X101546352Y-70252419D01*
X101546352Y-70252419D02*
X101641590Y-70300038D01*
X101641590Y-70300038D02*
X101689209Y-70347657D01*
X101689209Y-70347657D02*
X101736828Y-70442895D01*
X101736828Y-70442895D02*
X101736828Y-70538133D01*
X101736828Y-70538133D02*
X101689209Y-70680990D01*
X101689209Y-70680990D02*
X101117781Y-71252419D01*
X101117781Y-71252419D02*
X101736828Y-71252419D01*
X102165400Y-71252419D02*
X102165400Y-70252419D01*
X102736828Y-71252419D02*
X102308257Y-70680990D01*
X102736828Y-70252419D02*
X102165400Y-70823847D01*
X103879685Y-70204800D02*
X103022543Y-71490514D01*
X104165400Y-70347657D02*
X104213019Y-70300038D01*
X104213019Y-70300038D02*
X104308257Y-70252419D01*
X104308257Y-70252419D02*
X104546352Y-70252419D01*
X104546352Y-70252419D02*
X104641590Y-70300038D01*
X104641590Y-70300038D02*
X104689209Y-70347657D01*
X104689209Y-70347657D02*
X104736828Y-70442895D01*
X104736828Y-70442895D02*
X104736828Y-70538133D01*
X104736828Y-70538133D02*
X104689209Y-70680990D01*
X104689209Y-70680990D02*
X104117781Y-71252419D01*
X104117781Y-71252419D02*
X104736828Y-71252419D01*
X105165400Y-71157180D02*
X105213019Y-71204800D01*
X105213019Y-71204800D02*
X105165400Y-71252419D01*
X105165400Y-71252419D02*
X105117781Y-71204800D01*
X105117781Y-71204800D02*
X105165400Y-71157180D01*
X105165400Y-71157180D02*
X105165400Y-71252419D01*
X105593971Y-70347657D02*
X105641590Y-70300038D01*
X105641590Y-70300038D02*
X105736828Y-70252419D01*
X105736828Y-70252419D02*
X105974923Y-70252419D01*
X105974923Y-70252419D02*
X106070161Y-70300038D01*
X106070161Y-70300038D02*
X106117780Y-70347657D01*
X106117780Y-70347657D02*
X106165399Y-70442895D01*
X106165399Y-70442895D02*
X106165399Y-70538133D01*
X106165399Y-70538133D02*
X106117780Y-70680990D01*
X106117780Y-70680990D02*
X105546352Y-71252419D01*
X105546352Y-71252419D02*
X106165399Y-71252419D01*
X106593971Y-71252419D02*
X106593971Y-70252419D01*
X107165399Y-71252419D02*
X106736828Y-70680990D01*
X107165399Y-70252419D02*
X106593971Y-70823847D01*
%TO.C,U4*%
X89842619Y-55067104D02*
X90652142Y-55067104D01*
X90652142Y-55067104D02*
X90747380Y-55019485D01*
X90747380Y-55019485D02*
X90795000Y-54971866D01*
X90795000Y-54971866D02*
X90842619Y-54876628D01*
X90842619Y-54876628D02*
X90842619Y-54686152D01*
X90842619Y-54686152D02*
X90795000Y-54590914D01*
X90795000Y-54590914D02*
X90747380Y-54543295D01*
X90747380Y-54543295D02*
X90652142Y-54495676D01*
X90652142Y-54495676D02*
X89842619Y-54495676D01*
X90175952Y-53590914D02*
X90842619Y-53590914D01*
X89795000Y-53829009D02*
X90509285Y-54067104D01*
X90509285Y-54067104D02*
X90509285Y-53448057D01*
X144093304Y-58844913D02*
X144093304Y-58368723D01*
X144379019Y-58940151D02*
X143379019Y-58606818D01*
X143379019Y-58606818D02*
X144379019Y-58273485D01*
X143902828Y-57749675D02*
X144379019Y-57749675D01*
X143379019Y-58083008D02*
X143902828Y-57749675D01*
X143902828Y-57749675D02*
X143379019Y-57416342D01*
X143998066Y-57083008D02*
X143998066Y-56321104D01*
X143379019Y-55940151D02*
X143379019Y-55321104D01*
X143379019Y-55321104D02*
X143759971Y-55654437D01*
X143759971Y-55654437D02*
X143759971Y-55511580D01*
X143759971Y-55511580D02*
X143807590Y-55416342D01*
X143807590Y-55416342D02*
X143855209Y-55368723D01*
X143855209Y-55368723D02*
X143950447Y-55321104D01*
X143950447Y-55321104D02*
X144188542Y-55321104D01*
X144188542Y-55321104D02*
X144283780Y-55368723D01*
X144283780Y-55368723D02*
X144331400Y-55416342D01*
X144331400Y-55416342D02*
X144379019Y-55511580D01*
X144379019Y-55511580D02*
X144379019Y-55797294D01*
X144379019Y-55797294D02*
X144331400Y-55892532D01*
X144331400Y-55892532D02*
X144283780Y-55940151D01*
X143998066Y-54892532D02*
X143998066Y-54130628D01*
X143807590Y-53511580D02*
X143759971Y-53606818D01*
X143759971Y-53606818D02*
X143712352Y-53654437D01*
X143712352Y-53654437D02*
X143617114Y-53702056D01*
X143617114Y-53702056D02*
X143569495Y-53702056D01*
X143569495Y-53702056D02*
X143474257Y-53654437D01*
X143474257Y-53654437D02*
X143426638Y-53606818D01*
X143426638Y-53606818D02*
X143379019Y-53511580D01*
X143379019Y-53511580D02*
X143379019Y-53321104D01*
X143379019Y-53321104D02*
X143426638Y-53225866D01*
X143426638Y-53225866D02*
X143474257Y-53178247D01*
X143474257Y-53178247D02*
X143569495Y-53130628D01*
X143569495Y-53130628D02*
X143617114Y-53130628D01*
X143617114Y-53130628D02*
X143712352Y-53178247D01*
X143712352Y-53178247D02*
X143759971Y-53225866D01*
X143759971Y-53225866D02*
X143807590Y-53321104D01*
X143807590Y-53321104D02*
X143807590Y-53511580D01*
X143807590Y-53511580D02*
X143855209Y-53606818D01*
X143855209Y-53606818D02*
X143902828Y-53654437D01*
X143902828Y-53654437D02*
X143998066Y-53702056D01*
X143998066Y-53702056D02*
X144188542Y-53702056D01*
X144188542Y-53702056D02*
X144283780Y-53654437D01*
X144283780Y-53654437D02*
X144331400Y-53606818D01*
X144331400Y-53606818D02*
X144379019Y-53511580D01*
X144379019Y-53511580D02*
X144379019Y-53321104D01*
X144379019Y-53321104D02*
X144331400Y-53225866D01*
X144331400Y-53225866D02*
X144283780Y-53178247D01*
X144283780Y-53178247D02*
X144188542Y-53130628D01*
X144188542Y-53130628D02*
X143998066Y-53130628D01*
X143998066Y-53130628D02*
X143902828Y-53178247D01*
X143902828Y-53178247D02*
X143855209Y-53225866D01*
X143855209Y-53225866D02*
X143807590Y-53321104D01*
X144379019Y-52654437D02*
X144379019Y-52463961D01*
X144379019Y-52463961D02*
X144331400Y-52368723D01*
X144331400Y-52368723D02*
X144283780Y-52321104D01*
X144283780Y-52321104D02*
X144140923Y-52225866D01*
X144140923Y-52225866D02*
X143950447Y-52178247D01*
X143950447Y-52178247D02*
X143569495Y-52178247D01*
X143569495Y-52178247D02*
X143474257Y-52225866D01*
X143474257Y-52225866D02*
X143426638Y-52273485D01*
X143426638Y-52273485D02*
X143379019Y-52368723D01*
X143379019Y-52368723D02*
X143379019Y-52559199D01*
X143379019Y-52559199D02*
X143426638Y-52654437D01*
X143426638Y-52654437D02*
X143474257Y-52702056D01*
X143474257Y-52702056D02*
X143569495Y-52749675D01*
X143569495Y-52749675D02*
X143807590Y-52749675D01*
X143807590Y-52749675D02*
X143902828Y-52702056D01*
X143902828Y-52702056D02*
X143950447Y-52654437D01*
X143950447Y-52654437D02*
X143998066Y-52559199D01*
X143998066Y-52559199D02*
X143998066Y-52368723D01*
X143998066Y-52368723D02*
X143950447Y-52273485D01*
X143950447Y-52273485D02*
X143902828Y-52225866D01*
X143902828Y-52225866D02*
X143807590Y-52178247D01*
X144379019Y-51225866D02*
X144379019Y-51797294D01*
X144379019Y-51511580D02*
X143379019Y-51511580D01*
X143379019Y-51511580D02*
X143521876Y-51606818D01*
X143521876Y-51606818D02*
X143617114Y-51702056D01*
X143617114Y-51702056D02*
X143664733Y-51797294D01*
X143379019Y-50606818D02*
X143379019Y-50511580D01*
X143379019Y-50511580D02*
X143426638Y-50416342D01*
X143426638Y-50416342D02*
X143474257Y-50368723D01*
X143474257Y-50368723D02*
X143569495Y-50321104D01*
X143569495Y-50321104D02*
X143759971Y-50273485D01*
X143759971Y-50273485D02*
X143998066Y-50273485D01*
X143998066Y-50273485D02*
X144188542Y-50321104D01*
X144188542Y-50321104D02*
X144283780Y-50368723D01*
X144283780Y-50368723D02*
X144331400Y-50416342D01*
X144331400Y-50416342D02*
X144379019Y-50511580D01*
X144379019Y-50511580D02*
X144379019Y-50606818D01*
X144379019Y-50606818D02*
X144331400Y-50702056D01*
X144331400Y-50702056D02*
X144283780Y-50749675D01*
X144283780Y-50749675D02*
X144188542Y-50797294D01*
X144188542Y-50797294D02*
X143998066Y-50844913D01*
X143998066Y-50844913D02*
X143759971Y-50844913D01*
X143759971Y-50844913D02*
X143569495Y-50797294D01*
X143569495Y-50797294D02*
X143474257Y-50749675D01*
X143474257Y-50749675D02*
X143426638Y-50702056D01*
X143426638Y-50702056D02*
X143379019Y-50606818D01*
%TO.C,G\u002A\u002A\u002A*%
G36*
X68548377Y-86100389D02*
G01*
X68548377Y-87196976D01*
X69392539Y-87196976D01*
X70236701Y-87196976D01*
X70100542Y-87375490D01*
X69964383Y-87554004D01*
X68873850Y-87554004D01*
X67783317Y-87554004D01*
X67783317Y-86278903D01*
X67783317Y-85003803D01*
X68165847Y-85003803D01*
X68548377Y-85003803D01*
X68548377Y-86100389D01*
G37*
G36*
X77879977Y-86188194D02*
G01*
X78608787Y-86202397D01*
X78736524Y-86368160D01*
X78864262Y-86533923D01*
X77863147Y-86533923D01*
X77556162Y-86531918D01*
X77287257Y-86526325D01*
X77071843Y-86517785D01*
X76925333Y-86506936D01*
X76863137Y-86494415D01*
X76862032Y-86492462D01*
X76895700Y-86433683D01*
X76979302Y-86339395D01*
X77006599Y-86312496D01*
X77151167Y-86173992D01*
X77879977Y-86188194D01*
G37*
G36*
X89654420Y-85002219D02*
G01*
X90078335Y-85003803D01*
X89488657Y-85663353D01*
X88898980Y-86322902D01*
X88898980Y-86938453D01*
X88898980Y-87554004D01*
X88516450Y-87554004D01*
X88133919Y-87554004D01*
X88133919Y-86938453D01*
X88133919Y-86322902D01*
X87544242Y-85663353D01*
X86954564Y-85003803D01*
X87403981Y-85007649D01*
X87853397Y-85011494D01*
X88181637Y-85397122D01*
X88509876Y-85782751D01*
X88870191Y-85391693D01*
X89230506Y-85000634D01*
X89654420Y-85002219D01*
G37*
G36*
X76454000Y-86278903D02*
G01*
X76454000Y-87554004D01*
X76071470Y-87554004D01*
X75688940Y-87554004D01*
X75688940Y-86992960D01*
X75688940Y-86431915D01*
X75000385Y-86431915D01*
X74311831Y-86431915D01*
X74311831Y-86992960D01*
X74311831Y-87554004D01*
X73929301Y-87554004D01*
X73546771Y-87554004D01*
X73546771Y-86278903D01*
X73546771Y-85360831D01*
X74311831Y-85360831D01*
X74311831Y-85717859D01*
X74311831Y-86074887D01*
X75000385Y-86074887D01*
X75688940Y-86074887D01*
X75688940Y-85717859D01*
X75688940Y-85360831D01*
X75000385Y-85360831D01*
X74311831Y-85360831D01*
X73546771Y-85360831D01*
X73546771Y-85003803D01*
X75000385Y-85003803D01*
X76454000Y-85003803D01*
X76454000Y-86278903D01*
G37*
G36*
X86756811Y-86278903D02*
G01*
X86756811Y-87554004D01*
X86374281Y-87554004D01*
X85991751Y-87554004D01*
X85991751Y-86992960D01*
X85991751Y-86431915D01*
X85303197Y-86431915D01*
X84614642Y-86431915D01*
X84614642Y-86992960D01*
X84614642Y-87554004D01*
X84232112Y-87554004D01*
X83849582Y-87554004D01*
X83849582Y-86278903D01*
X83849582Y-85360831D01*
X84614642Y-85360831D01*
X84614642Y-85717859D01*
X84614642Y-86074887D01*
X85303197Y-86074887D01*
X85991751Y-86074887D01*
X85991751Y-85717859D01*
X85991751Y-85360831D01*
X85303197Y-85360831D01*
X84614642Y-85360831D01*
X83849582Y-85360831D01*
X83849582Y-85003803D01*
X85303197Y-85003803D01*
X86756811Y-85003803D01*
X86756811Y-86278903D01*
G37*
G36*
X71468880Y-88604496D02*
G01*
X71559891Y-88671337D01*
X71598509Y-88765878D01*
X71593367Y-88798352D01*
X71542636Y-88859133D01*
X71481289Y-88860218D01*
X71455606Y-88807852D01*
X71432827Y-88735072D01*
X71373086Y-88745928D01*
X71289276Y-88835064D01*
X71251031Y-88892859D01*
X71169645Y-89064349D01*
X71151868Y-89196816D01*
X71197544Y-89274453D01*
X71254943Y-89288140D01*
X71387686Y-89263803D01*
X71463328Y-89233004D01*
X71564557Y-89200906D01*
X71602382Y-89230692D01*
X71560465Y-89306796D01*
X71551046Y-89316567D01*
X71436341Y-89385218D01*
X71286337Y-89421971D01*
X71144339Y-89420889D01*
X71060325Y-89383855D01*
X71006510Y-89262736D01*
X71013341Y-89098181D01*
X71069688Y-88919237D01*
X71164421Y-88754952D01*
X71286411Y-88634374D01*
X71361830Y-88596974D01*
X71468880Y-88604496D01*
G37*
G36*
X64134486Y-85622507D02*
G01*
X64272762Y-85847727D01*
X64387242Y-86044883D01*
X64468512Y-86196914D01*
X64507159Y-86286760D01*
X64508767Y-86300843D01*
X64476882Y-86363630D01*
X64399972Y-86494502D01*
X64288607Y-86676022D01*
X64153359Y-86890749D01*
X64111028Y-86956978D01*
X63728498Y-87553481D01*
X62695666Y-87553742D01*
X61662835Y-87554004D01*
X61662835Y-86278903D01*
X61662835Y-85360831D01*
X62427895Y-85360831D01*
X62427895Y-86278903D01*
X62427895Y-87196976D01*
X62811365Y-87196976D01*
X63194835Y-87196976D01*
X63498905Y-86733903D01*
X63802974Y-86270830D01*
X63632764Y-86004749D01*
X63516248Y-85823038D01*
X63400284Y-85642871D01*
X63340506Y-85550381D01*
X63218458Y-85362094D01*
X62823177Y-85361462D01*
X62427895Y-85360831D01*
X61662835Y-85360831D01*
X61662835Y-85003803D01*
X62703916Y-85003803D01*
X63744996Y-85003803D01*
X64134486Y-85622507D01*
G37*
G36*
X72554314Y-85004760D02*
G01*
X72832538Y-85008239D01*
X73035826Y-85015747D01*
X73173201Y-85028808D01*
X73253687Y-85048942D01*
X73286306Y-85077673D01*
X73280084Y-85116521D01*
X73244043Y-85167009D01*
X73187206Y-85230659D01*
X73173264Y-85246072D01*
X73114464Y-85300586D01*
X73041601Y-85334565D01*
X72930759Y-85352749D01*
X72758024Y-85359878D01*
X72594306Y-85360831D01*
X72118658Y-85360831D01*
X72118658Y-86457417D01*
X72118658Y-87554004D01*
X71760030Y-87554004D01*
X71543753Y-87546170D01*
X71418214Y-87521476D01*
X71375397Y-87486239D01*
X71368181Y-87416423D01*
X71363209Y-87261183D01*
X71360649Y-87037080D01*
X71360670Y-86760677D01*
X71363440Y-86448535D01*
X71364247Y-86389600D01*
X71379100Y-85360726D01*
X70894562Y-85360777D01*
X70410024Y-85360828D01*
X70267588Y-85182316D01*
X70125153Y-85003803D01*
X71736964Y-85003803D01*
X72192131Y-85003788D01*
X72554314Y-85004760D01*
G37*
G36*
X83105433Y-85013813D02*
G01*
X83394458Y-85029305D01*
X83241563Y-85207819D01*
X83088668Y-85386333D01*
X83086595Y-86268919D01*
X83084522Y-87151504D01*
X83237298Y-87314501D01*
X83330623Y-87422027D01*
X83384812Y-87499855D01*
X83390310Y-87515751D01*
X83344129Y-87536026D01*
X83223971Y-87549895D01*
X83087995Y-87554004D01*
X82913076Y-87549162D01*
X82806112Y-87526432D01*
X82733204Y-87473507D01*
X82679963Y-87405869D01*
X82643800Y-87348700D01*
X82616970Y-87283003D01*
X82598094Y-87193533D01*
X82585789Y-87065043D01*
X82578674Y-86882288D01*
X82575368Y-86630022D01*
X82574490Y-86292998D01*
X82574482Y-86241668D01*
X82574823Y-85895605D01*
X82576896Y-85636851D01*
X82582276Y-85450706D01*
X82592535Y-85322472D01*
X82609248Y-85237448D01*
X82633989Y-85180936D01*
X82668331Y-85138236D01*
X82695445Y-85111961D01*
X82786019Y-85044843D01*
X82894380Y-85014351D01*
X83057794Y-85011563D01*
X83105433Y-85013813D01*
G37*
G36*
X90903770Y-85008901D02*
G01*
X91015684Y-85032868D01*
X91098335Y-85088709D01*
X91164125Y-85160728D01*
X91210404Y-85218146D01*
X91244368Y-85274877D01*
X91267922Y-85346860D01*
X91282970Y-85450030D01*
X91291419Y-85600324D01*
X91295172Y-85813680D01*
X91296137Y-86106035D01*
X91296168Y-86265251D01*
X91295776Y-86598130D01*
X91293346Y-86845169D01*
X91286996Y-87022539D01*
X91274845Y-87146407D01*
X91255012Y-87232943D01*
X91225614Y-87298316D01*
X91184772Y-87358695D01*
X91166063Y-87383426D01*
X91084769Y-87479504D01*
X91005069Y-87530550D01*
X90891104Y-87550672D01*
X90732529Y-87554004D01*
X90571880Y-87549688D01*
X90461882Y-87538478D01*
X90429100Y-87525736D01*
X90460868Y-87474637D01*
X90540833Y-87379302D01*
X90581876Y-87334471D01*
X90734652Y-87171474D01*
X90734888Y-86286243D01*
X90735124Y-85401012D01*
X90577826Y-85202408D01*
X90420529Y-85003803D01*
X90726305Y-85003803D01*
X90903770Y-85008901D01*
G37*
G36*
X86919173Y-89040118D02*
G01*
X87084376Y-89040118D01*
X87104204Y-89168312D01*
X87194874Y-89228537D01*
X87347828Y-89212640D01*
X87468897Y-89161649D01*
X87646568Y-89038022D01*
X87753409Y-88897798D01*
X87785376Y-88758474D01*
X87738428Y-88637552D01*
X87609500Y-88552877D01*
X87449767Y-88545409D01*
X87298500Y-88632104D01*
X87167802Y-88805185D01*
X87143947Y-88852105D01*
X87084376Y-89040118D01*
X86919173Y-89040118D01*
X86919002Y-89002552D01*
X86980303Y-88817876D01*
X87091257Y-88641800D01*
X87239431Y-88494971D01*
X87412393Y-88398034D01*
X87564048Y-88370259D01*
X87678482Y-88407584D01*
X87807394Y-88499811D01*
X87918062Y-88616856D01*
X87977768Y-88728632D01*
X87980907Y-88753556D01*
X87938978Y-88913936D01*
X87827757Y-89068438D01*
X87669096Y-89204614D01*
X87484848Y-89310016D01*
X87296865Y-89372197D01*
X87126999Y-89378707D01*
X86997102Y-89317101D01*
X86995090Y-89315117D01*
X86919787Y-89175181D01*
X86919173Y-89040118D01*
G37*
G36*
X84876283Y-88343749D02*
G01*
X84882219Y-88464875D01*
X84883033Y-88575954D01*
X84930006Y-88618616D01*
X85026731Y-88625088D01*
X85137661Y-88645141D01*
X85163267Y-88690761D01*
X85108566Y-88740145D01*
X84993405Y-88769951D01*
X84859698Y-88806310D01*
X84790675Y-88891040D01*
X84768735Y-89047723D01*
X84768435Y-89071373D01*
X84784708Y-89195496D01*
X84844716Y-89232670D01*
X84962839Y-89190761D01*
X84975024Y-89184338D01*
X85055199Y-89159056D01*
X85071431Y-89189983D01*
X85026188Y-89255897D01*
X84960322Y-89310750D01*
X84805460Y-89382402D01*
X84681925Y-89363661D01*
X84615725Y-89290164D01*
X84587653Y-89140786D01*
X84608509Y-88984140D01*
X84632740Y-88853391D01*
X84622277Y-88793753D01*
X84570545Y-88778278D01*
X84558217Y-88778100D01*
X84478547Y-88744714D01*
X84461630Y-88701594D01*
X84505650Y-88639873D01*
X84583464Y-88625088D01*
X84670839Y-88605466D01*
X84719284Y-88528098D01*
X84739402Y-88443299D01*
X84783793Y-88317406D01*
X84836849Y-88285345D01*
X84876283Y-88343749D01*
G37*
G36*
X66441003Y-85005246D02*
G01*
X66771635Y-85009320D01*
X67053556Y-85015640D01*
X67273747Y-85023820D01*
X67419186Y-85033476D01*
X67476853Y-85044222D01*
X67477293Y-85045265D01*
X67443638Y-85104150D01*
X67360174Y-85198246D01*
X67334241Y-85223779D01*
X67191189Y-85360831D01*
X66314161Y-85360831D01*
X65437132Y-85360831D01*
X65437132Y-85717859D01*
X65437132Y-86074887D01*
X66406209Y-86074887D01*
X67375285Y-86074887D01*
X67375285Y-86278903D01*
X67375285Y-86482919D01*
X66406209Y-86482919D01*
X65437132Y-86482919D01*
X65437132Y-86839948D01*
X65437132Y-87196976D01*
X66320160Y-87196976D01*
X67203188Y-87196976D01*
X67340241Y-87340028D01*
X67428183Y-87440137D01*
X67474961Y-87509596D01*
X67477293Y-87518542D01*
X67428460Y-87527803D01*
X67290642Y-87536163D01*
X67076859Y-87543291D01*
X66800133Y-87548858D01*
X66473485Y-87552535D01*
X66109936Y-87553993D01*
X66074683Y-87554004D01*
X64672072Y-87554004D01*
X64672072Y-86278903D01*
X64672072Y-85003803D01*
X66074683Y-85003803D01*
X66441003Y-85005246D01*
G37*
G36*
X72689997Y-89071892D02*
G01*
X72832715Y-89071892D01*
X72871648Y-89202844D01*
X72973227Y-89272891D01*
X73114621Y-89276798D01*
X73272999Y-89209332D01*
X73311394Y-89181629D01*
X73457525Y-89028618D01*
X73553107Y-88852669D01*
X73581909Y-88686685D01*
X73575647Y-88645874D01*
X73501995Y-88537412D01*
X73369384Y-88484162D01*
X73210488Y-88496509D01*
X73162557Y-88514567D01*
X73060484Y-88599852D01*
X72956102Y-88744625D01*
X72872649Y-88909618D01*
X72833367Y-89055563D01*
X72832715Y-89071892D01*
X72689997Y-89071892D01*
X72684235Y-88961791D01*
X72752899Y-88745417D01*
X72896925Y-88535672D01*
X72959488Y-88472076D01*
X73125407Y-88375272D01*
X73324584Y-88340604D01*
X73517847Y-88369811D01*
X73643424Y-88441728D01*
X73732435Y-88583085D01*
X73744334Y-88756760D01*
X73689848Y-88943206D01*
X73579704Y-89122875D01*
X73424628Y-89276221D01*
X73235348Y-89383695D01*
X73107460Y-89418412D01*
X72959633Y-89431154D01*
X72862932Y-89400964D01*
X72788726Y-89334924D01*
X72694866Y-89164918D01*
X72689997Y-89071892D01*
G37*
G36*
X68806926Y-88344037D02*
G01*
X68852954Y-88465463D01*
X68854401Y-88498366D01*
X68810232Y-88612613D01*
X68700480Y-88673133D01*
X68666187Y-88676092D01*
X68656854Y-88633963D01*
X68671330Y-88548582D01*
X68672507Y-88448406D01*
X68616639Y-88418802D01*
X68517370Y-88456796D01*
X68388344Y-88559416D01*
X68326089Y-88623802D01*
X68170391Y-88830184D01*
X68098842Y-89020424D01*
X68097865Y-89193696D01*
X68154919Y-89290206D01*
X68271687Y-89332887D01*
X68418275Y-89316645D01*
X68524377Y-89266344D01*
X68636031Y-89200499D01*
X68688144Y-89196577D01*
X68701376Y-89253466D01*
X68701389Y-89256827D01*
X68657487Y-89323965D01*
X68548619Y-89397111D01*
X68409040Y-89458600D01*
X68273007Y-89490763D01*
X68245078Y-89492156D01*
X68134948Y-89457434D01*
X68016918Y-89373230D01*
X68010517Y-89366965D01*
X67915989Y-89237532D01*
X67892626Y-89093934D01*
X67939677Y-88912143D01*
X67992554Y-88792817D01*
X68111063Y-88605634D01*
X68258137Y-88455999D01*
X68417519Y-88349467D01*
X68572950Y-88291593D01*
X68708172Y-88287931D01*
X68806926Y-88344037D01*
G37*
G36*
X70087045Y-89214325D02*
G01*
X70253897Y-89214325D01*
X70303269Y-89236697D01*
X70392198Y-89192254D01*
X70504501Y-89083755D01*
X70507498Y-89080211D01*
X70598800Y-88942868D01*
X70636483Y-88823701D01*
X70616754Y-88745415D01*
X70566509Y-88727096D01*
X70485757Y-88769334D01*
X70390438Y-88875774D01*
X70304112Y-89016003D01*
X70260266Y-89122377D01*
X70253897Y-89214325D01*
X70087045Y-89214325D01*
X70102590Y-89097903D01*
X70185473Y-88931112D01*
X70331566Y-88732511D01*
X70475326Y-88616276D01*
X70604628Y-88582210D01*
X70707347Y-88630114D01*
X70771358Y-88759791D01*
X70786058Y-88940916D01*
X70789980Y-89107789D01*
X70809532Y-89249227D01*
X70816813Y-89275389D01*
X70830345Y-89363381D01*
X70778572Y-89389927D01*
X70768226Y-89390148D01*
X70686060Y-89347291D01*
X70654320Y-89288140D01*
X70622737Y-89205683D01*
X70603385Y-89186132D01*
X70550693Y-89214423D01*
X70455969Y-89283031D01*
X70449443Y-89288140D01*
X70313329Y-89373596D01*
X70211126Y-89378523D01*
X70139703Y-89328944D01*
X70085049Y-89229273D01*
X70087045Y-89214325D01*
G37*
G36*
X83496082Y-88344037D02*
G01*
X83542110Y-88465463D01*
X83543558Y-88498366D01*
X83499388Y-88612613D01*
X83389637Y-88673133D01*
X83355343Y-88676092D01*
X83346011Y-88633963D01*
X83360486Y-88548582D01*
X83361663Y-88448406D01*
X83305795Y-88418802D01*
X83206526Y-88456796D01*
X83077500Y-88559416D01*
X83015245Y-88623802D01*
X82859548Y-88830184D01*
X82787998Y-89020424D01*
X82787022Y-89193696D01*
X82844075Y-89290206D01*
X82960844Y-89332887D01*
X83107432Y-89316645D01*
X83213534Y-89266344D01*
X83325188Y-89200499D01*
X83377300Y-89196577D01*
X83390533Y-89253466D01*
X83390546Y-89256827D01*
X83346644Y-89323965D01*
X83237776Y-89397111D01*
X83098197Y-89458600D01*
X82962164Y-89490763D01*
X82934234Y-89492156D01*
X82824105Y-89457434D01*
X82706075Y-89373230D01*
X82699673Y-89366965D01*
X82605146Y-89237532D01*
X82581783Y-89093934D01*
X82628833Y-88912143D01*
X82681711Y-88792817D01*
X82800219Y-88605634D01*
X82947293Y-88455999D01*
X83106675Y-88349467D01*
X83262107Y-88291593D01*
X83397328Y-88287931D01*
X83496082Y-88344037D01*
G37*
G36*
X83614555Y-89215073D02*
G01*
X83784215Y-89215073D01*
X83835992Y-89232983D01*
X83927416Y-89178503D01*
X84023562Y-89080211D01*
X84114864Y-88942868D01*
X84152547Y-88823701D01*
X84132819Y-88745415D01*
X84082573Y-88727096D01*
X84001512Y-88769466D01*
X83908091Y-88875366D01*
X83826212Y-89012981D01*
X83785609Y-89122377D01*
X83784215Y-89215073D01*
X83614555Y-89215073D01*
X83608654Y-89196518D01*
X83638232Y-89042862D01*
X83721056Y-88879690D01*
X83843333Y-88733355D01*
X83991271Y-88630212D01*
X84008026Y-88622838D01*
X84153620Y-88597832D01*
X84250930Y-88661746D01*
X84298272Y-88812758D01*
X84302123Y-88940916D01*
X84306044Y-89107789D01*
X84325596Y-89249227D01*
X84332877Y-89275389D01*
X84346409Y-89363381D01*
X84294636Y-89389927D01*
X84284290Y-89390148D01*
X84202124Y-89347291D01*
X84170385Y-89288140D01*
X84138801Y-89205683D01*
X84119449Y-89186132D01*
X84066757Y-89214423D01*
X83972033Y-89283031D01*
X83965508Y-89288140D01*
X83826451Y-89374116D01*
X83722134Y-89376201D01*
X83646116Y-89314305D01*
X83614555Y-89215073D01*
G37*
G36*
X88758023Y-88415565D02*
G01*
X88857249Y-88530050D01*
X88898908Y-88680511D01*
X88898980Y-88686924D01*
X88854313Y-88820393D01*
X88717725Y-88980252D01*
X88686085Y-89009572D01*
X88473189Y-89201910D01*
X88788093Y-89173356D01*
X88970379Y-89162353D01*
X89069530Y-89172338D01*
X89102647Y-89205355D01*
X89102996Y-89211014D01*
X89072935Y-89276563D01*
X88974396Y-89317178D01*
X88794845Y-89336401D01*
X88649537Y-89339144D01*
X88441407Y-89354024D01*
X88291528Y-89394679D01*
X88258427Y-89414028D01*
X88150009Y-89480960D01*
X88095804Y-89469460D01*
X88082915Y-89394933D01*
X88124991Y-89307261D01*
X88239357Y-89191347D01*
X88335609Y-89116167D01*
X88554323Y-88937066D01*
X88685261Y-88778648D01*
X88724638Y-88645982D01*
X88716166Y-88606773D01*
X88652311Y-88532693D01*
X88547677Y-88546558D01*
X88426026Y-88625088D01*
X88292131Y-88710073D01*
X88209799Y-88716572D01*
X88184924Y-88654750D01*
X88227366Y-88580609D01*
X88331952Y-88494544D01*
X88464571Y-88418408D01*
X88591112Y-88374051D01*
X88629324Y-88370068D01*
X88758023Y-88415565D01*
G37*
G36*
X80697996Y-89135933D02*
G01*
X80840345Y-89135933D01*
X80864609Y-89222177D01*
X80934601Y-89219983D01*
X81046117Y-89129865D01*
X81066725Y-89108193D01*
X81171773Y-88966149D01*
X81217855Y-88840560D01*
X81197362Y-88754959D01*
X81184283Y-88744508D01*
X81118608Y-88756743D01*
X81027234Y-88830423D01*
X80934351Y-88938019D01*
X80864150Y-89052000D01*
X80840345Y-89135933D01*
X80697996Y-89135933D01*
X80702911Y-89100644D01*
X80772805Y-88932065D01*
X80880254Y-88772523D01*
X81013868Y-88649213D01*
X81018737Y-88645980D01*
X81129280Y-88590317D01*
X81223119Y-88600724D01*
X81272972Y-88624603D01*
X81345623Y-88674813D01*
X81375755Y-88743952D01*
X81373430Y-88865944D01*
X81365671Y-88937102D01*
X81358606Y-89119398D01*
X81384140Y-89238634D01*
X81393950Y-89253674D01*
X81426933Y-89328389D01*
X81417948Y-89356588D01*
X81329411Y-89389816D01*
X81248269Y-89338822D01*
X81222622Y-89287341D01*
X81189992Y-89184535D01*
X81059294Y-89287341D01*
X80912325Y-89370885D01*
X80783783Y-89386929D01*
X80721336Y-89356146D01*
X80681958Y-89251069D01*
X80697996Y-89135933D01*
G37*
G36*
X86513846Y-88415565D02*
G01*
X86613072Y-88530050D01*
X86654731Y-88680511D01*
X86654803Y-88686924D01*
X86609681Y-88821224D01*
X86471949Y-88981821D01*
X86443251Y-89008359D01*
X86231700Y-89199483D01*
X86545259Y-89176802D01*
X86734152Y-89170151D01*
X86834537Y-89185419D01*
X86858819Y-89215674D01*
X86826625Y-89279369D01*
X86722411Y-89318771D01*
X86534728Y-89336998D01*
X86405360Y-89339144D01*
X86197230Y-89354024D01*
X86047351Y-89394679D01*
X86014250Y-89414028D01*
X85907722Y-89480602D01*
X85842995Y-89475906D01*
X85812007Y-89439163D01*
X85826842Y-89377038D01*
X85903135Y-89284334D01*
X85943285Y-89247898D01*
X86197846Y-89024990D01*
X86371387Y-88852962D01*
X86468310Y-88726939D01*
X86493018Y-88642046D01*
X86492624Y-88639735D01*
X86435983Y-88557015D01*
X86332535Y-88537487D01*
X86216958Y-88582979D01*
X86172297Y-88622843D01*
X86070045Y-88704956D01*
X85984910Y-88722626D01*
X85942039Y-88672387D01*
X85940747Y-88654750D01*
X85983189Y-88580609D01*
X86087775Y-88494544D01*
X86220394Y-88418408D01*
X86346936Y-88374051D01*
X86385147Y-88370068D01*
X86513846Y-88415565D01*
G37*
G36*
X89865267Y-88391825D02*
G01*
X89995843Y-88420192D01*
X90028468Y-88470883D01*
X89962396Y-88543143D01*
X89855305Y-88607051D01*
X89689542Y-88693642D01*
X89848891Y-88735667D01*
X89982193Y-88789236D01*
X90073156Y-88855913D01*
X90110618Y-88965207D01*
X90066745Y-89081815D01*
X89960414Y-89193995D01*
X89810503Y-89290000D01*
X89635887Y-89358088D01*
X89455444Y-89386514D01*
X89288051Y-89363533D01*
X89268759Y-89356369D01*
X89209712Y-89288967D01*
X89205004Y-89260791D01*
X89230419Y-89219633D01*
X89319773Y-89208915D01*
X89447440Y-89219651D01*
X89640300Y-89217016D01*
X89794435Y-89168040D01*
X89889992Y-89084172D01*
X89907118Y-88976858D01*
X89901158Y-88958027D01*
X89859796Y-88902130D01*
X89775164Y-88883588D01*
X89637632Y-88892814D01*
X89480148Y-88898064D01*
X89415416Y-88865533D01*
X89442510Y-88791837D01*
X89560503Y-88673592D01*
X89574323Y-88661695D01*
X89740546Y-88519789D01*
X89512631Y-88534185D01*
X89359372Y-88533708D01*
X89284562Y-88503585D01*
X89269310Y-88472076D01*
X89279772Y-88431680D01*
X89342922Y-88406505D01*
X89476571Y-88392411D01*
X89637486Y-88386536D01*
X89865267Y-88391825D01*
G37*
G36*
X67095451Y-88588842D02*
G01*
X67113791Y-88646086D01*
X67114606Y-88765273D01*
X67099969Y-88965860D01*
X67099662Y-88969365D01*
X67047974Y-89318327D01*
X66963020Y-89579938D01*
X66846883Y-89751470D01*
X66701647Y-89830201D01*
X66529393Y-89813403D01*
X66472939Y-89789416D01*
X66374682Y-89714519D01*
X66319132Y-89624214D01*
X66327785Y-89553584D01*
X66328189Y-89553174D01*
X66380624Y-89562625D01*
X66448165Y-89611478D01*
X66590963Y-89693172D01*
X66719535Y-89675558D01*
X66822501Y-89561299D01*
X66842345Y-89519297D01*
X66906867Y-89344992D01*
X66916678Y-89250160D01*
X66868132Y-89225970D01*
X66757586Y-89263590D01*
X66740185Y-89271742D01*
X66612220Y-89322272D01*
X66530859Y-89319230D01*
X66485164Y-89290173D01*
X66420232Y-89174051D01*
X66412981Y-88996090D01*
X66462202Y-88785711D01*
X66519385Y-88680298D01*
X66585094Y-88626293D01*
X66635504Y-88629968D01*
X66646790Y-88697599D01*
X66636357Y-88739847D01*
X66584591Y-88939471D01*
X66569487Y-89090253D01*
X66591819Y-89173977D01*
X66617396Y-89184998D01*
X66755120Y-89136010D01*
X66871079Y-89010974D01*
X66943392Y-88835853D01*
X66951996Y-88787969D01*
X66990032Y-88632526D01*
X67049927Y-88574605D01*
X67057510Y-88574084D01*
X67095451Y-88588842D01*
G37*
G36*
X72047692Y-88211866D02*
G01*
X72052357Y-88332174D01*
X72041189Y-88501275D01*
X72015844Y-88693468D01*
X71979802Y-88875470D01*
X71969120Y-88938877D01*
X71988892Y-88953892D01*
X72055352Y-88915703D01*
X72184733Y-88819500D01*
X72194933Y-88811715D01*
X72331762Y-88712388D01*
X72437915Y-88644696D01*
X72483021Y-88625088D01*
X72527424Y-88650627D01*
X72491880Y-88720353D01*
X72382657Y-88823926D01*
X72344100Y-88854258D01*
X72161509Y-88993526D01*
X72302638Y-89140833D01*
X72409655Y-89235178D01*
X72499189Y-89285544D01*
X72514981Y-89288140D01*
X72568127Y-89312788D01*
X72554821Y-89365849D01*
X72491296Y-89415994D01*
X72440970Y-89430962D01*
X72328641Y-89398847D01*
X72191048Y-89278980D01*
X72178899Y-89265366D01*
X72081320Y-89159547D01*
X72025406Y-89123411D01*
X71987949Y-89147915D01*
X71967351Y-89182946D01*
X71923632Y-89300023D01*
X71914642Y-89361293D01*
X71882852Y-89432625D01*
X71818383Y-89427435D01*
X71791701Y-89397540D01*
X71787105Y-89331637D01*
X71795712Y-89190803D01*
X71814298Y-89000783D01*
X71839642Y-88787323D01*
X71868521Y-88576168D01*
X71897711Y-88393064D01*
X71923991Y-88263757D01*
X71939291Y-88218437D01*
X72008800Y-88168242D01*
X72025537Y-88166052D01*
X72047692Y-88211866D01*
G37*
G36*
X63412608Y-88344448D02*
G01*
X63411914Y-88397524D01*
X63403236Y-88492432D01*
X63389249Y-88658762D01*
X63372479Y-88866228D01*
X63366210Y-88945630D01*
X63338821Y-89190142D01*
X63306218Y-89335725D01*
X63273589Y-89382165D01*
X63246119Y-89329249D01*
X63228993Y-89176762D01*
X63226769Y-88951372D01*
X63235081Y-88548582D01*
X63124761Y-88697057D01*
X62957877Y-88909205D01*
X62831755Y-89034578D01*
X62737048Y-89075253D01*
X62664409Y-89033309D01*
X62604491Y-88910820D01*
X62576090Y-88818980D01*
X62514921Y-88599586D01*
X62451437Y-88854606D01*
X62407319Y-89034146D01*
X62368569Y-89195661D01*
X62355949Y-89249887D01*
X62309740Y-89358252D01*
X62250427Y-89388290D01*
X62198203Y-89330298D01*
X62196691Y-89326393D01*
X62198005Y-89251930D01*
X62221115Y-89103772D01*
X62261690Y-88906828D01*
X62292004Y-88778100D01*
X62362060Y-88521610D01*
X62424238Y-88363973D01*
X62483097Y-88302795D01*
X62543197Y-88335683D01*
X62609098Y-88460243D01*
X62656381Y-88586835D01*
X62713430Y-88740636D01*
X62760369Y-88846038D01*
X62783891Y-88878017D01*
X62825251Y-88839320D01*
X62910155Y-88739009D01*
X63021475Y-88597473D01*
X63039944Y-88573221D01*
X63181455Y-88406769D01*
X63296665Y-88310356D01*
X63376681Y-88288182D01*
X63412608Y-88344448D01*
G37*
G36*
X76482327Y-88287941D02*
G01*
X76499132Y-88352192D01*
X76491189Y-88484398D01*
X76458025Y-88695529D01*
X76413303Y-88927205D01*
X76368064Y-89123594D01*
X76322172Y-89277371D01*
X76283299Y-89364246D01*
X76271909Y-89374683D01*
X76219616Y-89343961D01*
X76129738Y-89246496D01*
X76019518Y-89101564D01*
X75991387Y-89061028D01*
X75881609Y-88905055D01*
X75792747Y-88788184D01*
X75740579Y-88730912D01*
X75735234Y-88728310D01*
X75713784Y-88773969D01*
X75686437Y-88894913D01*
X75659064Y-89065103D01*
X75658728Y-89067568D01*
X75625926Y-89246346D01*
X75585859Y-89375916D01*
X75548679Y-89428846D01*
X75497615Y-89404634D01*
X75484924Y-89337954D01*
X75493876Y-89238706D01*
X75517778Y-89069513D01*
X75552195Y-88860581D01*
X75567910Y-88772660D01*
X75622472Y-88526009D01*
X75678074Y-88371570D01*
X75732792Y-88311949D01*
X75784704Y-88349752D01*
X75817829Y-88433823D01*
X75860131Y-88536512D01*
X75932541Y-88677383D01*
X76019128Y-88829394D01*
X76103962Y-88965502D01*
X76171110Y-89058665D01*
X76200928Y-89084124D01*
X76224284Y-89037848D01*
X76258094Y-88915118D01*
X76295938Y-88740085D01*
X76304910Y-88692961D01*
X76346925Y-88505222D01*
X76392766Y-88360676D01*
X76433828Y-88285342D01*
X76441249Y-88280679D01*
X76482327Y-88287941D01*
G37*
G36*
X82035482Y-85182317D02*
G01*
X81899322Y-85360831D01*
X81015816Y-85360831D01*
X80666748Y-85363033D01*
X80409656Y-85370098D01*
X80234589Y-85382712D01*
X80131600Y-85401561D01*
X80092212Y-85424586D01*
X80065513Y-85507920D01*
X80038808Y-85655808D01*
X80023569Y-85781614D01*
X79995022Y-86074887D01*
X81055234Y-86074887D01*
X82115446Y-86074887D01*
X82115446Y-86634157D01*
X82114431Y-86880203D01*
X82108013Y-87047890D01*
X82091131Y-87160867D01*
X82058721Y-87242781D01*
X82005723Y-87317282D01*
X81957150Y-87373715D01*
X81798854Y-87554004D01*
X80641051Y-87554004D01*
X79483247Y-87554004D01*
X79310225Y-87375490D01*
X79137202Y-87196976D01*
X80182589Y-87196976D01*
X80578573Y-87194811D01*
X80879910Y-87188049D01*
X81093875Y-87176287D01*
X81227743Y-87159123D01*
X81288789Y-87136154D01*
X81289181Y-87135771D01*
X81322606Y-87054008D01*
X81344837Y-86907014D01*
X81350385Y-86778743D01*
X81350385Y-86482919D01*
X80304803Y-86482919D01*
X79259221Y-86482919D01*
X79259221Y-85941966D01*
X79260504Y-85699595D01*
X79267907Y-85534170D01*
X79286761Y-85420629D01*
X79322395Y-85333913D01*
X79380139Y-85248962D01*
X79416519Y-85202408D01*
X79573816Y-85003803D01*
X80872729Y-85003803D01*
X82171641Y-85003803D01*
X82035482Y-85182317D01*
G37*
G36*
X69752401Y-88390713D02*
G01*
X69853834Y-88486871D01*
X69874482Y-88575260D01*
X69833830Y-88694221D01*
X69734144Y-88815345D01*
X69613086Y-88895957D01*
X69595403Y-88943756D01*
X69665945Y-89033613D01*
X69821646Y-89162069D01*
X69897906Y-89217063D01*
X69963255Y-89284863D01*
X69939736Y-89345296D01*
X69884607Y-89360273D01*
X69788191Y-89321940D01*
X69635732Y-89223613D01*
X69574922Y-89180006D01*
X69384994Y-89029739D01*
X69286746Y-88921951D01*
X69279602Y-88855586D01*
X69362991Y-88829588D01*
X69384293Y-88829104D01*
X69518073Y-88798578D01*
X69634226Y-88723513D01*
X69703516Y-88628676D01*
X69706074Y-88556526D01*
X69637330Y-88493676D01*
X69487506Y-88472160D01*
X69473999Y-88472076D01*
X69370438Y-88477243D01*
X69299234Y-88504120D01*
X69251966Y-88569774D01*
X69220212Y-88691271D01*
X69195549Y-88885676D01*
X69178253Y-89071373D01*
X69154699Y-89274309D01*
X69125454Y-89391265D01*
X69085790Y-89438262D01*
X69069147Y-89441152D01*
X69032362Y-89426622D01*
X69014051Y-89370421D01*
X69012395Y-89253638D01*
X69025576Y-89057361D01*
X69028680Y-89020369D01*
X69045273Y-88809947D01*
X69057236Y-88628067D01*
X69062491Y-88507240D01*
X69062517Y-88490573D01*
X69074701Y-88425879D01*
X69129987Y-88385967D01*
X69251994Y-88358677D01*
X69342801Y-88346290D01*
X69577791Y-88342015D01*
X69752401Y-88390713D01*
G37*
G36*
X75314881Y-88287945D02*
G01*
X75328653Y-88364196D01*
X75319212Y-88462878D01*
X75284981Y-88613671D01*
X75223558Y-88796784D01*
X75145969Y-88987652D01*
X75063237Y-89161708D01*
X74986389Y-89294386D01*
X74926450Y-89361121D01*
X74914497Y-89364646D01*
X74858245Y-89321873D01*
X74782442Y-89211285D01*
X74723444Y-89098153D01*
X74599514Y-88831660D01*
X74439563Y-89120524D01*
X74324032Y-89311639D01*
X74236857Y-89412634D01*
X74171638Y-89429292D01*
X74136138Y-89394713D01*
X74111796Y-89324654D01*
X74073151Y-89179875D01*
X74026693Y-88985523D01*
X74001765Y-88873968D01*
X73952537Y-88624924D01*
X73933149Y-88460822D01*
X73942504Y-88369402D01*
X73954738Y-88349731D01*
X74019213Y-88330712D01*
X74074305Y-88412379D01*
X74120215Y-88595120D01*
X74136404Y-88699155D01*
X74170863Y-88923480D01*
X74204676Y-89052661D01*
X74246307Y-89093156D01*
X74304217Y-89051420D01*
X74386867Y-88933911D01*
X74405484Y-88904480D01*
X74494346Y-88759576D01*
X74559144Y-88647816D01*
X74581583Y-88603307D01*
X74621384Y-88572946D01*
X74681779Y-88635659D01*
X74758230Y-88785654D01*
X74794846Y-88875383D01*
X74855731Y-89018685D01*
X74906256Y-89113022D01*
X74927932Y-89135128D01*
X74959843Y-89090521D01*
X75008121Y-88975701D01*
X75063429Y-88819173D01*
X75116430Y-88649441D01*
X75157786Y-88495009D01*
X75178160Y-88384382D01*
X75178899Y-88368997D01*
X75213861Y-88284692D01*
X75262121Y-88268060D01*
X75314881Y-88287945D01*
G37*
G36*
X80452495Y-88339450D02*
G01*
X80462913Y-88496075D01*
X80452195Y-88747611D01*
X80443084Y-88876012D01*
X80419270Y-89112041D01*
X80389695Y-89281218D01*
X80357282Y-89368271D01*
X80347384Y-89376108D01*
X80283815Y-89354746D01*
X80252095Y-89242610D01*
X80253250Y-89046164D01*
X80270321Y-88889242D01*
X80288296Y-88726555D01*
X80292568Y-88613781D01*
X80283610Y-88576989D01*
X80239502Y-88615954D01*
X80154448Y-88714502D01*
X80061759Y-88832009D01*
X79949513Y-88964770D01*
X79851032Y-89056107D01*
X79796035Y-89084124D01*
X79735431Y-89039018D01*
X79675887Y-88923780D01*
X79661227Y-88880108D01*
X79616224Y-88754023D01*
X79576628Y-88682332D01*
X79566529Y-88676092D01*
X79540436Y-88721962D01*
X79504477Y-88842134D01*
X79466965Y-89008087D01*
X79414011Y-89229033D01*
X79363052Y-89350084D01*
X79314546Y-89370515D01*
X79275831Y-89308863D01*
X79270842Y-89215829D01*
X79291438Y-89061058D01*
X79327195Y-88901978D01*
X79371910Y-88720604D01*
X79403005Y-88568609D01*
X79413014Y-88489207D01*
X79438552Y-88367051D01*
X79460130Y-88322344D01*
X79524618Y-88280579D01*
X79597765Y-88329802D01*
X79670765Y-88460497D01*
X79718896Y-88601869D01*
X79765177Y-88743579D01*
X79808439Y-88838377D01*
X79823671Y-88856711D01*
X79871562Y-88831368D01*
X79961672Y-88741628D01*
X80076235Y-88605600D01*
X80100178Y-88574875D01*
X80244782Y-88395449D01*
X80348393Y-88293497D01*
X80415976Y-88273377D01*
X80452495Y-88339450D01*
G37*
G36*
X63610785Y-89173381D02*
G01*
X63754190Y-89173381D01*
X63785800Y-89231730D01*
X63866891Y-89222629D01*
X63976009Y-89151936D01*
X64032458Y-89097396D01*
X64130776Y-88961897D01*
X64158987Y-88853360D01*
X64115664Y-88788760D01*
X64059274Y-88778100D01*
X63970886Y-88819819D01*
X63872611Y-88921645D01*
X63791458Y-89048584D01*
X63754436Y-89165642D01*
X63754190Y-89173381D01*
X63610785Y-89173381D01*
X63623044Y-89061044D01*
X63695466Y-88905624D01*
X63808604Y-88766915D01*
X63946995Y-88668185D01*
X64095178Y-88632704D01*
X64123281Y-88635050D01*
X64195959Y-88628317D01*
X64244622Y-88566923D01*
X64287384Y-88427762D01*
X64288111Y-88424813D01*
X64335251Y-88287115D01*
X64390028Y-88197082D01*
X64438184Y-88168526D01*
X64465465Y-88215259D01*
X64467451Y-88251059D01*
X64454288Y-88350887D01*
X64421095Y-88507681D01*
X64391550Y-88625088D01*
X64348379Y-88816579D01*
X64320849Y-88997478D01*
X64315649Y-89077322D01*
X64324049Y-89192056D01*
X64361642Y-89229674D01*
X64417052Y-89222358D01*
X64501998Y-89219534D01*
X64510075Y-89260964D01*
X64441892Y-89324545D01*
X64413792Y-89340889D01*
X64289902Y-89361163D01*
X64194367Y-89299273D01*
X64160410Y-89192638D01*
X64152212Y-89136689D01*
X64116092Y-89165751D01*
X64096655Y-89190552D01*
X64002131Y-89277793D01*
X63878263Y-89354082D01*
X63773702Y-89389913D01*
X63767554Y-89390148D01*
X63696648Y-89358051D01*
X63662193Y-89328944D01*
X63606799Y-89209907D01*
X63610785Y-89173381D01*
G37*
G36*
X81564198Y-89173381D02*
G01*
X81707604Y-89173381D01*
X81739214Y-89231730D01*
X81820304Y-89222629D01*
X81929422Y-89151936D01*
X81985871Y-89097396D01*
X82084190Y-88961897D01*
X82112401Y-88853360D01*
X82069078Y-88788760D01*
X82012688Y-88778100D01*
X81924300Y-88819819D01*
X81826025Y-88921645D01*
X81744872Y-89048584D01*
X81707850Y-89165642D01*
X81707604Y-89173381D01*
X81564198Y-89173381D01*
X81576458Y-89061044D01*
X81648880Y-88905624D01*
X81762018Y-88766915D01*
X81900409Y-88668185D01*
X82048592Y-88632704D01*
X82076695Y-88635050D01*
X82149373Y-88628317D01*
X82198036Y-88566923D01*
X82240798Y-88427762D01*
X82241524Y-88424813D01*
X82288665Y-88287115D01*
X82343441Y-88197082D01*
X82391598Y-88168526D01*
X82418879Y-88215259D01*
X82420864Y-88251059D01*
X82407701Y-88350887D01*
X82374508Y-88507681D01*
X82344964Y-88625088D01*
X82301793Y-88816579D01*
X82274262Y-88997478D01*
X82269063Y-89077322D01*
X82277463Y-89192056D01*
X82315055Y-89229674D01*
X82370466Y-89222358D01*
X82455411Y-89219534D01*
X82463488Y-89260964D01*
X82395305Y-89324545D01*
X82367205Y-89340889D01*
X82243316Y-89361163D01*
X82147780Y-89299273D01*
X82113824Y-89192638D01*
X82105625Y-89136689D01*
X82069506Y-89165751D01*
X82050068Y-89190552D01*
X81955545Y-89277793D01*
X81831676Y-89354082D01*
X81727116Y-89389913D01*
X81720967Y-89390148D01*
X81650061Y-89358051D01*
X81615606Y-89328944D01*
X81560212Y-89209907D01*
X81564198Y-89173381D01*
G37*
G36*
X66137601Y-88327566D02*
G01*
X66198505Y-88426931D01*
X66202193Y-88470416D01*
X66166585Y-88569193D01*
X66100157Y-88650615D01*
X65998122Y-88742956D01*
X66100157Y-88814424D01*
X66184631Y-88928431D01*
X66195181Y-89076277D01*
X66132790Y-89222555D01*
X66087434Y-89272876D01*
X65916917Y-89401728D01*
X65756691Y-89476321D01*
X65629007Y-89488428D01*
X65576657Y-89461668D01*
X65560217Y-89390773D01*
X65613080Y-89321450D01*
X65708017Y-89288234D01*
X65713494Y-89288140D01*
X65835550Y-89253198D01*
X65950667Y-89168379D01*
X66026223Y-89063696D01*
X66037309Y-88990228D01*
X65994839Y-88932219D01*
X65885675Y-88914955D01*
X65830446Y-88916836D01*
X65696738Y-88912010D01*
X65643814Y-88872393D01*
X65641148Y-88853081D01*
X65678787Y-88786363D01*
X65710207Y-88778100D01*
X65794152Y-88746325D01*
X65894216Y-88670016D01*
X65981215Y-88577697D01*
X66025966Y-88497890D01*
X66023539Y-88471851D01*
X65950971Y-88434113D01*
X65828569Y-88423224D01*
X65705276Y-88440546D01*
X65656324Y-88461618D01*
X65623079Y-88526549D01*
X65585114Y-88668087D01*
X65548472Y-88861401D01*
X65532380Y-88970877D01*
X65492858Y-89221506D01*
X65453344Y-89375667D01*
X65412311Y-89438892D01*
X65402446Y-89441152D01*
X65355557Y-89407228D01*
X65337963Y-89299868D01*
X65349420Y-89110686D01*
X65385435Y-88857005D01*
X65409382Y-88671600D01*
X65405035Y-88563366D01*
X65372388Y-88511759D01*
X65346188Y-88457239D01*
X65404928Y-88397793D01*
X65532474Y-88342289D01*
X65712695Y-88299595D01*
X65774748Y-88290594D01*
X65998015Y-88282821D01*
X66137601Y-88327566D01*
G37*
G36*
X77550151Y-88572075D02*
G01*
X77707588Y-88572075D01*
X77715292Y-88611667D01*
X77748285Y-88655846D01*
X77804880Y-88621680D01*
X77823146Y-88603905D01*
X77874329Y-88528118D01*
X77841926Y-88462517D01*
X77839550Y-88460116D01*
X77776694Y-88423866D01*
X77731695Y-88467877D01*
X77707588Y-88572075D01*
X77550151Y-88572075D01*
X77549358Y-88540138D01*
X77604008Y-88407710D01*
X77696907Y-88313491D01*
X77807844Y-88274517D01*
X77916607Y-88307827D01*
X77959603Y-88351134D01*
X78017788Y-88440288D01*
X78020532Y-88511061D01*
X77962058Y-88601101D01*
X77912168Y-88660337D01*
X77834266Y-88760567D01*
X77819340Y-88832966D01*
X77860790Y-88924296D01*
X77872161Y-88943703D01*
X77952000Y-89055146D01*
X78014301Y-89073569D01*
X78075102Y-89002277D01*
X78083400Y-88987215D01*
X78107132Y-88902296D01*
X78059692Y-88861305D01*
X77985633Y-88814729D01*
X78003495Y-88774280D01*
X78103196Y-88746838D01*
X78239140Y-88738866D01*
X78399105Y-88750440D01*
X78483758Y-88780534D01*
X78483880Y-88822209D01*
X78404903Y-88863601D01*
X78298501Y-88931897D01*
X78199084Y-89040658D01*
X78141904Y-89148929D01*
X78138266Y-89173381D01*
X78180897Y-89221235D01*
X78264642Y-89237136D01*
X78360486Y-89255139D01*
X78392152Y-89289741D01*
X78350223Y-89355490D01*
X78247328Y-89378148D01*
X78117808Y-89350986D01*
X78105907Y-89345817D01*
X77984893Y-89315188D01*
X77858330Y-89351110D01*
X77831171Y-89364614D01*
X77664693Y-89430489D01*
X77539117Y-89422591D01*
X77423076Y-89339144D01*
X77334177Y-89202858D01*
X77337446Y-89162883D01*
X77527003Y-89162883D01*
X77558511Y-89253554D01*
X77559087Y-89254138D01*
X77649539Y-89288133D01*
X77754141Y-89268311D01*
X77812088Y-89213134D01*
X77808495Y-89123383D01*
X77756179Y-89026467D01*
X77680548Y-88952316D01*
X77607009Y-88930858D01*
X77583608Y-88943994D01*
X77536908Y-89040229D01*
X77527003Y-89162883D01*
X77337446Y-89162883D01*
X77345314Y-89066654D01*
X77451247Y-88928605D01*
X77545835Y-88803895D01*
X77553171Y-88693736D01*
X77550151Y-88572075D01*
G37*
G36*
X60846771Y-87836845D02*
G01*
X81332977Y-87836845D01*
X81333766Y-87852480D01*
X81335607Y-87860028D01*
X81341328Y-87876551D01*
X81353247Y-87891186D01*
X81377227Y-87904048D01*
X81419132Y-87915250D01*
X81484829Y-87924908D01*
X81580180Y-87933137D01*
X81711050Y-87940050D01*
X81883304Y-87945762D01*
X82102806Y-87950388D01*
X82375421Y-87954042D01*
X82707013Y-87956839D01*
X83103447Y-87958894D01*
X83570587Y-87960320D01*
X84114297Y-87961233D01*
X84740443Y-87961746D01*
X85454888Y-87961975D01*
X86263496Y-87962034D01*
X86558744Y-87962036D01*
X87400427Y-87962010D01*
X88145937Y-87961857D01*
X88801107Y-87961461D01*
X89371773Y-87960708D01*
X89863767Y-87959484D01*
X90282926Y-87957674D01*
X90635083Y-87955163D01*
X90926072Y-87951838D01*
X91161729Y-87947583D01*
X91347886Y-87942284D01*
X91490379Y-87935826D01*
X91595042Y-87928095D01*
X91667710Y-87918977D01*
X91714216Y-87908356D01*
X91740395Y-87896119D01*
X91752082Y-87882150D01*
X91755110Y-87866336D01*
X91755205Y-87860028D01*
X91753898Y-87843545D01*
X91746100Y-87828941D01*
X91725989Y-87816102D01*
X91687748Y-87804914D01*
X91625556Y-87795264D01*
X91533593Y-87787037D01*
X91406042Y-87780121D01*
X91237081Y-87774402D01*
X91020892Y-87769765D01*
X90751654Y-87766098D01*
X90423550Y-87763286D01*
X90030759Y-87761217D01*
X89567461Y-87759776D01*
X89027838Y-87758850D01*
X88406070Y-87758324D01*
X87696337Y-87758086D01*
X86892820Y-87758022D01*
X86532068Y-87758020D01*
X85688126Y-87758044D01*
X84940403Y-87758191D01*
X84283108Y-87758575D01*
X83710452Y-87759309D01*
X83216646Y-87760508D01*
X82795899Y-87762285D01*
X82442422Y-87764754D01*
X82150425Y-87768028D01*
X81914119Y-87772220D01*
X81727714Y-87777446D01*
X81585420Y-87783817D01*
X81481447Y-87791448D01*
X81410006Y-87800453D01*
X81365307Y-87810945D01*
X81341561Y-87823038D01*
X81332977Y-87836845D01*
X60846771Y-87836845D01*
X60846771Y-87707016D01*
X76326490Y-87707016D01*
X91806209Y-87707016D01*
X91806209Y-87860028D01*
X91806209Y-88013040D01*
X76326490Y-88013040D01*
X60846771Y-88013040D01*
X60846771Y-87860028D01*
X60846771Y-87836845D01*
G37*
D11*
%TO.C,U2*%
X73370000Y-63255200D02*
X73370000Y-45355200D01*
X73370000Y-45355200D02*
X68870000Y-45355200D01*
X72120000Y-63255200D02*
X73370000Y-63255200D01*
X68870000Y-63255200D02*
X70120000Y-63255200D01*
X68870000Y-45355200D02*
X68870000Y-63255200D01*
X72120000Y-63255200D02*
G75*
G03*
X70120000Y-63255200I-1000000J0D01*
G01*
%TO.C,C2*%
X114812902Y-80692200D02*
X115612902Y-80692200D01*
X115212902Y-80292200D02*
X115212902Y-81092200D01*
X119222600Y-78927200D02*
X119222600Y-87087200D01*
X119262600Y-78927200D02*
X119262600Y-87087200D01*
X119302600Y-78927200D02*
X119302600Y-87087200D01*
X119342600Y-78928200D02*
X119342600Y-87086200D01*
X119382600Y-78930200D02*
X119382600Y-87084200D01*
X119422600Y-78931200D02*
X119422600Y-87083200D01*
X119462600Y-78933200D02*
X119462600Y-87081200D01*
X119502600Y-78936200D02*
X119502600Y-87078200D01*
X119542600Y-78939200D02*
X119542600Y-87075200D01*
X119582600Y-78942200D02*
X119582600Y-87072200D01*
X119622600Y-78946200D02*
X119622600Y-87068200D01*
X119662600Y-78950200D02*
X119662600Y-87064200D01*
X119702600Y-78955200D02*
X119702600Y-87059200D01*
X119742600Y-78959200D02*
X119742600Y-87055200D01*
X119782600Y-78965200D02*
X119782600Y-87049200D01*
X119822600Y-78970200D02*
X119822600Y-87044200D01*
X119862600Y-78977200D02*
X119862600Y-87037200D01*
X119902600Y-78983200D02*
X119902600Y-87031200D01*
X119943600Y-78990200D02*
X119943600Y-87024200D01*
X119983600Y-78997200D02*
X119983600Y-87017200D01*
X120023600Y-79005200D02*
X120023600Y-87009200D01*
X120063600Y-79013200D02*
X120063600Y-87001200D01*
X120103600Y-79022200D02*
X120103600Y-81967200D01*
X120103600Y-84047200D02*
X120103600Y-86992200D01*
X120143600Y-79031200D02*
X120143600Y-81967200D01*
X120143600Y-84047200D02*
X120143600Y-86983200D01*
X120183600Y-79040200D02*
X120183600Y-81967200D01*
X120183600Y-84047200D02*
X120183600Y-86974200D01*
X120223600Y-79050200D02*
X120223600Y-81967200D01*
X120223600Y-84047200D02*
X120223600Y-86964200D01*
X120263600Y-79060200D02*
X120263600Y-81967200D01*
X120263600Y-84047200D02*
X120263600Y-86954200D01*
X120303600Y-79071200D02*
X120303600Y-81967200D01*
X120303600Y-84047200D02*
X120303600Y-86943200D01*
X120343600Y-79082200D02*
X120343600Y-81967200D01*
X120343600Y-84047200D02*
X120343600Y-86932200D01*
X120383600Y-79093200D02*
X120383600Y-81967200D01*
X120383600Y-84047200D02*
X120383600Y-86921200D01*
X120423600Y-79105200D02*
X120423600Y-81967200D01*
X120423600Y-84047200D02*
X120423600Y-86909200D01*
X120463600Y-79118200D02*
X120463600Y-81967200D01*
X120463600Y-84047200D02*
X120463600Y-86896200D01*
X120503600Y-79130200D02*
X120503600Y-81967200D01*
X120503600Y-84047200D02*
X120503600Y-86884200D01*
X120543600Y-79144200D02*
X120543600Y-81967200D01*
X120543600Y-84047200D02*
X120543600Y-86870200D01*
X120583600Y-79157200D02*
X120583600Y-81967200D01*
X120583600Y-84047200D02*
X120583600Y-86857200D01*
X120623600Y-79172200D02*
X120623600Y-81967200D01*
X120623600Y-84047200D02*
X120623600Y-86842200D01*
X120663600Y-79186200D02*
X120663600Y-81967200D01*
X120663600Y-84047200D02*
X120663600Y-86828200D01*
X120703600Y-79202200D02*
X120703600Y-81967200D01*
X120703600Y-84047200D02*
X120703600Y-86812200D01*
X120743600Y-79217200D02*
X120743600Y-81967200D01*
X120743600Y-84047200D02*
X120743600Y-86797200D01*
X120783600Y-79233200D02*
X120783600Y-81967200D01*
X120783600Y-84047200D02*
X120783600Y-86781200D01*
X120823600Y-79250200D02*
X120823600Y-81967200D01*
X120823600Y-84047200D02*
X120823600Y-86764200D01*
X120863600Y-79267200D02*
X120863600Y-81967200D01*
X120863600Y-84047200D02*
X120863600Y-86747200D01*
X120903600Y-79285200D02*
X120903600Y-81967200D01*
X120903600Y-84047200D02*
X120903600Y-86729200D01*
X120943600Y-79303200D02*
X120943600Y-81967200D01*
X120943600Y-84047200D02*
X120943600Y-86711200D01*
X120983600Y-79321200D02*
X120983600Y-81967200D01*
X120983600Y-84047200D02*
X120983600Y-86693200D01*
X121023600Y-79341200D02*
X121023600Y-81967200D01*
X121023600Y-84047200D02*
X121023600Y-86673200D01*
X121063600Y-79360200D02*
X121063600Y-81967200D01*
X121063600Y-84047200D02*
X121063600Y-86654200D01*
X121103600Y-79380200D02*
X121103600Y-81967200D01*
X121103600Y-84047200D02*
X121103600Y-86634200D01*
X121143600Y-79401200D02*
X121143600Y-81967200D01*
X121143600Y-84047200D02*
X121143600Y-86613200D01*
X121183600Y-79423200D02*
X121183600Y-81967200D01*
X121183600Y-84047200D02*
X121183600Y-86591200D01*
X121223600Y-79445200D02*
X121223600Y-81967200D01*
X121223600Y-84047200D02*
X121223600Y-86569200D01*
X121263600Y-79467200D02*
X121263600Y-81967200D01*
X121263600Y-84047200D02*
X121263600Y-86547200D01*
X121303600Y-79490200D02*
X121303600Y-81967200D01*
X121303600Y-84047200D02*
X121303600Y-86524200D01*
X121343600Y-79514200D02*
X121343600Y-81967200D01*
X121343600Y-84047200D02*
X121343600Y-86500200D01*
X121383600Y-79538200D02*
X121383600Y-81967200D01*
X121383600Y-84047200D02*
X121383600Y-86476200D01*
X121423600Y-79563200D02*
X121423600Y-81967200D01*
X121423600Y-84047200D02*
X121423600Y-86451200D01*
X121463600Y-79589200D02*
X121463600Y-81967200D01*
X121463600Y-84047200D02*
X121463600Y-86425200D01*
X121503600Y-79615200D02*
X121503600Y-81967200D01*
X121503600Y-84047200D02*
X121503600Y-86399200D01*
X121543600Y-79642200D02*
X121543600Y-81967200D01*
X121543600Y-84047200D02*
X121543600Y-86372200D01*
X121583600Y-79669200D02*
X121583600Y-81967200D01*
X121583600Y-84047200D02*
X121583600Y-86345200D01*
X121623600Y-79698200D02*
X121623600Y-81967200D01*
X121623600Y-84047200D02*
X121623600Y-86316200D01*
X121663600Y-79727200D02*
X121663600Y-81967200D01*
X121663600Y-84047200D02*
X121663600Y-86287200D01*
X121703600Y-79757200D02*
X121703600Y-81967200D01*
X121703600Y-84047200D02*
X121703600Y-86257200D01*
X121743600Y-79787200D02*
X121743600Y-81967200D01*
X121743600Y-84047200D02*
X121743600Y-86227200D01*
X121783600Y-79818200D02*
X121783600Y-81967200D01*
X121783600Y-84047200D02*
X121783600Y-86196200D01*
X121823600Y-79851200D02*
X121823600Y-81967200D01*
X121823600Y-84047200D02*
X121823600Y-86163200D01*
X121863600Y-79883200D02*
X121863600Y-81967200D01*
X121863600Y-84047200D02*
X121863600Y-86131200D01*
X121903600Y-79917200D02*
X121903600Y-81967200D01*
X121903600Y-84047200D02*
X121903600Y-86097200D01*
X121943600Y-79952200D02*
X121943600Y-81967200D01*
X121943600Y-84047200D02*
X121943600Y-86062200D01*
X121983600Y-79988200D02*
X121983600Y-81967200D01*
X121983600Y-84047200D02*
X121983600Y-86026200D01*
X122023600Y-80024200D02*
X122023600Y-81967200D01*
X122023600Y-84047200D02*
X122023600Y-85990200D01*
X122063600Y-80062200D02*
X122063600Y-81967200D01*
X122063600Y-84047200D02*
X122063600Y-85952200D01*
X122103600Y-80100200D02*
X122103600Y-81967200D01*
X122103600Y-84047200D02*
X122103600Y-85914200D01*
X122143600Y-80140200D02*
X122143600Y-81967200D01*
X122143600Y-84047200D02*
X122143600Y-85874200D01*
X122183600Y-80181200D02*
X122183600Y-85833200D01*
X122223600Y-80223200D02*
X122223600Y-85791200D01*
X122263600Y-80266200D02*
X122263600Y-85748200D01*
X122303600Y-80310200D02*
X122303600Y-85704200D01*
X122343600Y-80356200D02*
X122343600Y-85658200D01*
X122383600Y-80403200D02*
X122383600Y-85611200D01*
X122423600Y-80451200D02*
X122423600Y-85563200D01*
X122463600Y-80502200D02*
X122463600Y-85512200D01*
X122503600Y-80553200D02*
X122503600Y-85461200D01*
X122543600Y-80607200D02*
X122543600Y-85407200D01*
X122583600Y-80662200D02*
X122583600Y-85352200D01*
X122623600Y-80720200D02*
X122623600Y-85294200D01*
X122663600Y-80779200D02*
X122663600Y-85235200D01*
X122703600Y-80841200D02*
X122703600Y-85173200D01*
X122743600Y-80905200D02*
X122743600Y-85109200D01*
X122783600Y-80973200D02*
X122783600Y-85041200D01*
X122823600Y-81043200D02*
X122823600Y-84971200D01*
X122863600Y-81117200D02*
X122863600Y-84897200D01*
X122903600Y-81194200D02*
X122903600Y-84820200D01*
X122943600Y-81276200D02*
X122943600Y-84738200D01*
X122983600Y-81362200D02*
X122983600Y-84652200D01*
X123023600Y-81455200D02*
X123023600Y-84559200D01*
X123063600Y-81554200D02*
X123063600Y-84460200D01*
X123103600Y-81661200D02*
X123103600Y-84353200D01*
X123143600Y-81778200D02*
X123143600Y-84236200D01*
X123183600Y-81909200D02*
X123183600Y-84105200D01*
X123223600Y-82059200D02*
X123223600Y-83955200D01*
X123263600Y-82239200D02*
X123263600Y-83775200D01*
X123303600Y-82474200D02*
X123303600Y-83540200D01*
X123342600Y-83007200D02*
G75*
G03*
X123342600Y-83007200I-4120000J0D01*
G01*
%TO.C,U1*%
X60670000Y-63255200D02*
X60670000Y-45355200D01*
X60670000Y-45355200D02*
X56170000Y-45355200D01*
X59420000Y-63255200D02*
X60670000Y-63255200D01*
X56170000Y-63255200D02*
X57420000Y-63255200D01*
X56170000Y-45355200D02*
X56170000Y-63255200D01*
X59420000Y-63255200D02*
G75*
G03*
X57420000Y-63255200I-1000000J0D01*
G01*
%TO.C,C1*%
X114812902Y-70075000D02*
X115612902Y-70075000D01*
X115212902Y-69675000D02*
X115212902Y-70475000D01*
X119222600Y-68310000D02*
X119222600Y-76470000D01*
X119262600Y-68310000D02*
X119262600Y-76470000D01*
X119302600Y-68310000D02*
X119302600Y-76470000D01*
X119342600Y-68311000D02*
X119342600Y-76469000D01*
X119382600Y-68313000D02*
X119382600Y-76467000D01*
X119422600Y-68314000D02*
X119422600Y-76466000D01*
X119462600Y-68316000D02*
X119462600Y-76464000D01*
X119502600Y-68319000D02*
X119502600Y-76461000D01*
X119542600Y-68322000D02*
X119542600Y-76458000D01*
X119582600Y-68325000D02*
X119582600Y-76455000D01*
X119622600Y-68329000D02*
X119622600Y-76451000D01*
X119662600Y-68333000D02*
X119662600Y-76447000D01*
X119702600Y-68338000D02*
X119702600Y-76442000D01*
X119742600Y-68342000D02*
X119742600Y-76438000D01*
X119782600Y-68348000D02*
X119782600Y-76432000D01*
X119822600Y-68353000D02*
X119822600Y-76427000D01*
X119862600Y-68360000D02*
X119862600Y-76420000D01*
X119902600Y-68366000D02*
X119902600Y-76414000D01*
X119943600Y-68373000D02*
X119943600Y-76407000D01*
X119983600Y-68380000D02*
X119983600Y-76400000D01*
X120023600Y-68388000D02*
X120023600Y-76392000D01*
X120063600Y-68396000D02*
X120063600Y-76384000D01*
X120103600Y-68405000D02*
X120103600Y-71350000D01*
X120103600Y-73430000D02*
X120103600Y-76375000D01*
X120143600Y-68414000D02*
X120143600Y-71350000D01*
X120143600Y-73430000D02*
X120143600Y-76366000D01*
X120183600Y-68423000D02*
X120183600Y-71350000D01*
X120183600Y-73430000D02*
X120183600Y-76357000D01*
X120223600Y-68433000D02*
X120223600Y-71350000D01*
X120223600Y-73430000D02*
X120223600Y-76347000D01*
X120263600Y-68443000D02*
X120263600Y-71350000D01*
X120263600Y-73430000D02*
X120263600Y-76337000D01*
X120303600Y-68454000D02*
X120303600Y-71350000D01*
X120303600Y-73430000D02*
X120303600Y-76326000D01*
X120343600Y-68465000D02*
X120343600Y-71350000D01*
X120343600Y-73430000D02*
X120343600Y-76315000D01*
X120383600Y-68476000D02*
X120383600Y-71350000D01*
X120383600Y-73430000D02*
X120383600Y-76304000D01*
X120423600Y-68488000D02*
X120423600Y-71350000D01*
X120423600Y-73430000D02*
X120423600Y-76292000D01*
X120463600Y-68501000D02*
X120463600Y-71350000D01*
X120463600Y-73430000D02*
X120463600Y-76279000D01*
X120503600Y-68513000D02*
X120503600Y-71350000D01*
X120503600Y-73430000D02*
X120503600Y-76267000D01*
X120543600Y-68527000D02*
X120543600Y-71350000D01*
X120543600Y-73430000D02*
X120543600Y-76253000D01*
X120583600Y-68540000D02*
X120583600Y-71350000D01*
X120583600Y-73430000D02*
X120583600Y-76240000D01*
X120623600Y-68555000D02*
X120623600Y-71350000D01*
X120623600Y-73430000D02*
X120623600Y-76225000D01*
X120663600Y-68569000D02*
X120663600Y-71350000D01*
X120663600Y-73430000D02*
X120663600Y-76211000D01*
X120703600Y-68585000D02*
X120703600Y-71350000D01*
X120703600Y-73430000D02*
X120703600Y-76195000D01*
X120743600Y-68600000D02*
X120743600Y-71350000D01*
X120743600Y-73430000D02*
X120743600Y-76180000D01*
X120783600Y-68616000D02*
X120783600Y-71350000D01*
X120783600Y-73430000D02*
X120783600Y-76164000D01*
X120823600Y-68633000D02*
X120823600Y-71350000D01*
X120823600Y-73430000D02*
X120823600Y-76147000D01*
X120863600Y-68650000D02*
X120863600Y-71350000D01*
X120863600Y-73430000D02*
X120863600Y-76130000D01*
X120903600Y-68668000D02*
X120903600Y-71350000D01*
X120903600Y-73430000D02*
X120903600Y-76112000D01*
X120943600Y-68686000D02*
X120943600Y-71350000D01*
X120943600Y-73430000D02*
X120943600Y-76094000D01*
X120983600Y-68704000D02*
X120983600Y-71350000D01*
X120983600Y-73430000D02*
X120983600Y-76076000D01*
X121023600Y-68724000D02*
X121023600Y-71350000D01*
X121023600Y-73430000D02*
X121023600Y-76056000D01*
X121063600Y-68743000D02*
X121063600Y-71350000D01*
X121063600Y-73430000D02*
X121063600Y-76037000D01*
X121103600Y-68763000D02*
X121103600Y-71350000D01*
X121103600Y-73430000D02*
X121103600Y-76017000D01*
X121143600Y-68784000D02*
X121143600Y-71350000D01*
X121143600Y-73430000D02*
X121143600Y-75996000D01*
X121183600Y-68806000D02*
X121183600Y-71350000D01*
X121183600Y-73430000D02*
X121183600Y-75974000D01*
X121223600Y-68828000D02*
X121223600Y-71350000D01*
X121223600Y-73430000D02*
X121223600Y-75952000D01*
X121263600Y-68850000D02*
X121263600Y-71350000D01*
X121263600Y-73430000D02*
X121263600Y-75930000D01*
X121303600Y-68873000D02*
X121303600Y-71350000D01*
X121303600Y-73430000D02*
X121303600Y-75907000D01*
X121343600Y-68897000D02*
X121343600Y-71350000D01*
X121343600Y-73430000D02*
X121343600Y-75883000D01*
X121383600Y-68921000D02*
X121383600Y-71350000D01*
X121383600Y-73430000D02*
X121383600Y-75859000D01*
X121423600Y-68946000D02*
X121423600Y-71350000D01*
X121423600Y-73430000D02*
X121423600Y-75834000D01*
X121463600Y-68972000D02*
X121463600Y-71350000D01*
X121463600Y-73430000D02*
X121463600Y-75808000D01*
X121503600Y-68998000D02*
X121503600Y-71350000D01*
X121503600Y-73430000D02*
X121503600Y-75782000D01*
X121543600Y-69025000D02*
X121543600Y-71350000D01*
X121543600Y-73430000D02*
X121543600Y-75755000D01*
X121583600Y-69052000D02*
X121583600Y-71350000D01*
X121583600Y-73430000D02*
X121583600Y-75728000D01*
X121623600Y-69081000D02*
X121623600Y-71350000D01*
X121623600Y-73430000D02*
X121623600Y-75699000D01*
X121663600Y-69110000D02*
X121663600Y-71350000D01*
X121663600Y-73430000D02*
X121663600Y-75670000D01*
X121703600Y-69140000D02*
X121703600Y-71350000D01*
X121703600Y-73430000D02*
X121703600Y-75640000D01*
X121743600Y-69170000D02*
X121743600Y-71350000D01*
X121743600Y-73430000D02*
X121743600Y-75610000D01*
X121783600Y-69201000D02*
X121783600Y-71350000D01*
X121783600Y-73430000D02*
X121783600Y-75579000D01*
X121823600Y-69234000D02*
X121823600Y-71350000D01*
X121823600Y-73430000D02*
X121823600Y-75546000D01*
X121863600Y-69266000D02*
X121863600Y-71350000D01*
X121863600Y-73430000D02*
X121863600Y-75514000D01*
X121903600Y-69300000D02*
X121903600Y-71350000D01*
X121903600Y-73430000D02*
X121903600Y-75480000D01*
X121943600Y-69335000D02*
X121943600Y-71350000D01*
X121943600Y-73430000D02*
X121943600Y-75445000D01*
X121983600Y-69371000D02*
X121983600Y-71350000D01*
X121983600Y-73430000D02*
X121983600Y-75409000D01*
X122023600Y-69407000D02*
X122023600Y-71350000D01*
X122023600Y-73430000D02*
X122023600Y-75373000D01*
X122063600Y-69445000D02*
X122063600Y-71350000D01*
X122063600Y-73430000D02*
X122063600Y-75335000D01*
X122103600Y-69483000D02*
X122103600Y-71350000D01*
X122103600Y-73430000D02*
X122103600Y-75297000D01*
X122143600Y-69523000D02*
X122143600Y-71350000D01*
X122143600Y-73430000D02*
X122143600Y-75257000D01*
X122183600Y-69564000D02*
X122183600Y-75216000D01*
X122223600Y-69606000D02*
X122223600Y-75174000D01*
X122263600Y-69649000D02*
X122263600Y-75131000D01*
X122303600Y-69693000D02*
X122303600Y-75087000D01*
X122343600Y-69739000D02*
X122343600Y-75041000D01*
X122383600Y-69786000D02*
X122383600Y-74994000D01*
X122423600Y-69834000D02*
X122423600Y-74946000D01*
X122463600Y-69885000D02*
X122463600Y-74895000D01*
X122503600Y-69936000D02*
X122503600Y-74844000D01*
X122543600Y-69990000D02*
X122543600Y-74790000D01*
X122583600Y-70045000D02*
X122583600Y-74735000D01*
X122623600Y-70103000D02*
X122623600Y-74677000D01*
X122663600Y-70162000D02*
X122663600Y-74618000D01*
X122703600Y-70224000D02*
X122703600Y-74556000D01*
X122743600Y-70288000D02*
X122743600Y-74492000D01*
X122783600Y-70356000D02*
X122783600Y-74424000D01*
X122823600Y-70426000D02*
X122823600Y-74354000D01*
X122863600Y-70500000D02*
X122863600Y-74280000D01*
X122903600Y-70577000D02*
X122903600Y-74203000D01*
X122943600Y-70659000D02*
X122943600Y-74121000D01*
X122983600Y-70745000D02*
X122983600Y-74035000D01*
X123023600Y-70838000D02*
X123023600Y-73942000D01*
X123063600Y-70937000D02*
X123063600Y-73843000D01*
X123103600Y-71044000D02*
X123103600Y-73736000D01*
X123143600Y-71161000D02*
X123143600Y-73619000D01*
X123183600Y-71292000D02*
X123183600Y-73488000D01*
X123223600Y-71442000D02*
X123223600Y-73338000D01*
X123263600Y-71622000D02*
X123263600Y-73158000D01*
X123303600Y-71857000D02*
X123303600Y-72923000D01*
X123342600Y-72390000D02*
G75*
G03*
X123342600Y-72390000I-4120000J0D01*
G01*
%TO.C,R7*%
X107400000Y-83615200D02*
X100860000Y-83615200D01*
X107400000Y-83285200D02*
X107400000Y-83615200D01*
X107400000Y-81205200D02*
X107400000Y-80875200D01*
X107400000Y-80875200D02*
X100860000Y-80875200D01*
X100860000Y-83615200D02*
X100860000Y-83285200D01*
X100860000Y-80875200D02*
X100860000Y-81205200D01*
%TO.C,R2*%
X74390000Y-82345200D02*
X67850000Y-82345200D01*
X74390000Y-82015200D02*
X74390000Y-82345200D01*
X74390000Y-79935200D02*
X74390000Y-79605200D01*
X74390000Y-79605200D02*
X67850000Y-79605200D01*
X67850000Y-82345200D02*
X67850000Y-82015200D01*
X67850000Y-79605200D02*
X67850000Y-79935200D01*
%TO.C,R8*%
X107410000Y-87425200D02*
X100870000Y-87425200D01*
X107410000Y-87095200D02*
X107410000Y-87425200D01*
X107410000Y-85015200D02*
X107410000Y-84685200D01*
X107410000Y-84685200D02*
X100870000Y-84685200D01*
X100870000Y-87425200D02*
X100870000Y-87095200D01*
X100870000Y-84685200D02*
X100870000Y-85015200D01*
%TO.C,R3*%
X100860000Y-65595200D02*
X107400000Y-65595200D01*
X100860000Y-65925200D02*
X100860000Y-65595200D01*
X100860000Y-68005200D02*
X100860000Y-68335200D01*
X100860000Y-68335200D02*
X107400000Y-68335200D01*
X107400000Y-65595200D02*
X107400000Y-65925200D01*
X107400000Y-68335200D02*
X107400000Y-68005200D01*
%TO.C,R1*%
X67850000Y-74525200D02*
X74390000Y-74525200D01*
X67850000Y-74855200D02*
X67850000Y-74525200D01*
X67850000Y-76935200D02*
X67850000Y-77265200D01*
X67850000Y-77265200D02*
X74390000Y-77265200D01*
X74390000Y-74525200D02*
X74390000Y-74855200D01*
X74390000Y-77265200D02*
X74390000Y-76935200D01*
%TO.C,R6*%
X107410000Y-79805200D02*
X100870000Y-79805200D01*
X107410000Y-79475200D02*
X107410000Y-79805200D01*
X107410000Y-77395200D02*
X107410000Y-77065200D01*
X107410000Y-77065200D02*
X100870000Y-77065200D01*
X100870000Y-79805200D02*
X100870000Y-79475200D01*
X100870000Y-77065200D02*
X100870000Y-77395200D01*
D12*
%TO.C,J2*%
X144496800Y-83492200D02*
X137996800Y-83492200D01*
X144496800Y-71092200D02*
X137996800Y-71092200D01*
X137996800Y-83492200D02*
X137996800Y-71092200D01*
D11*
%TO.C,U5*%
X60685000Y-84845200D02*
X60685000Y-66945200D01*
X60685000Y-66945200D02*
X56185000Y-66945200D01*
X59435000Y-84845200D02*
X60685000Y-84845200D01*
X56185000Y-84845200D02*
X57435000Y-84845200D01*
X56185000Y-66945200D02*
X56185000Y-84845200D01*
X59435000Y-84845200D02*
G75*
G03*
X57435000Y-84845200I-1000000J0D01*
G01*
%TO.C,U3*%
X86085000Y-63260200D02*
X86085000Y-45360200D01*
X86085000Y-45360200D02*
X81585000Y-45360200D01*
X84835000Y-63260200D02*
X86085000Y-63260200D01*
X81585000Y-63260200D02*
X82835000Y-63260200D01*
X81585000Y-45360200D02*
X81585000Y-63260200D01*
X84835000Y-63260200D02*
G75*
G03*
X82835000Y-63260200I-1000000J0D01*
G01*
%TO.C,R5*%
X100870000Y-73255200D02*
X107410000Y-73255200D01*
X100870000Y-73585200D02*
X100870000Y-73255200D01*
X100870000Y-75665200D02*
X100870000Y-75995200D01*
X100870000Y-75995200D02*
X107410000Y-75995200D01*
X107410000Y-73255200D02*
X107410000Y-73585200D01*
X107410000Y-75995200D02*
X107410000Y-75665200D01*
%TO.C,Y1*%
X82041000Y-84384400D02*
X82041000Y-72384400D01*
X82161000Y-84384400D02*
X82041000Y-84384400D01*
X82161000Y-84034400D02*
X95561000Y-84034400D01*
X95561000Y-84034400D02*
X95561000Y-72734400D01*
X81311000Y-80834400D02*
X81311000Y-80834400D01*
X82161000Y-80834400D02*
X81311000Y-80834400D01*
X81311000Y-75934400D02*
X81311000Y-75934400D01*
X82161000Y-75934400D02*
X81311000Y-75934400D01*
X82161000Y-72734400D02*
X82161000Y-84034400D01*
X95561000Y-72734400D02*
X82161000Y-72734400D01*
X82041000Y-72384400D02*
X82161000Y-72384400D01*
X82161000Y-72384400D02*
X82161000Y-84384400D01*
%TO.C,R4*%
X100870000Y-69445200D02*
X107410000Y-69445200D01*
X100870000Y-69775200D02*
X100870000Y-69445200D01*
X100870000Y-71855200D02*
X100870000Y-72185200D01*
X100870000Y-72185200D02*
X107410000Y-72185200D01*
X107410000Y-69445200D02*
X107410000Y-69775200D01*
X107410000Y-72185200D02*
X107410000Y-71855200D01*
%TO.C,U4*%
X91380000Y-60365200D02*
X142300000Y-60365200D01*
X142300000Y-60365200D02*
X142300000Y-48245200D01*
X91380000Y-55305200D02*
X91380000Y-60365200D01*
X91380000Y-48245200D02*
X91380000Y-53305200D01*
X142300000Y-48245200D02*
X91380000Y-48245200D01*
X91380000Y-55305200D02*
G75*
G03*
X91380000Y-53305200I0J1000000D01*
G01*
%TD*%
M02*
