%TF.GenerationSoftware,KiCad,Pcbnew,7.0.1*%
%TF.CreationDate,2023-07-19T12:38:44+03:00*%
%TF.ProjectId,deltaAY,64656c74-6141-4592-9e6b-696361645f70,rev?*%
%TF.SameCoordinates,Original*%
%TF.FileFunction,AssemblyDrawing,Top*%
%FSLAX46Y46*%
G04 Gerber Fmt 4.6, Leading zero omitted, Abs format (unit mm)*
G04 Created by KiCad (PCBNEW 7.0.1) date 2023-07-19 12:38:44*
%MOMM*%
%LPD*%
G01*
G04 APERTURE LIST*
%ADD10C,0.150000*%
%ADD11C,0.100000*%
G04 APERTURE END LIST*
D10*
%TO.C,U2*%
X70358095Y-53767819D02*
X70358095Y-54577342D01*
X70358095Y-54577342D02*
X70405714Y-54672580D01*
X70405714Y-54672580D02*
X70453333Y-54720200D01*
X70453333Y-54720200D02*
X70548571Y-54767819D01*
X70548571Y-54767819D02*
X70739047Y-54767819D01*
X70739047Y-54767819D02*
X70834285Y-54720200D01*
X70834285Y-54720200D02*
X70881904Y-54672580D01*
X70881904Y-54672580D02*
X70929523Y-54577342D01*
X70929523Y-54577342D02*
X70929523Y-53767819D01*
X71358095Y-53863057D02*
X71405714Y-53815438D01*
X71405714Y-53815438D02*
X71500952Y-53767819D01*
X71500952Y-53767819D02*
X71739047Y-53767819D01*
X71739047Y-53767819D02*
X71834285Y-53815438D01*
X71834285Y-53815438D02*
X71881904Y-53863057D01*
X71881904Y-53863057D02*
X71929523Y-53958295D01*
X71929523Y-53958295D02*
X71929523Y-54053533D01*
X71929523Y-54053533D02*
X71881904Y-54196390D01*
X71881904Y-54196390D02*
X71310476Y-54767819D01*
X71310476Y-54767819D02*
X71929523Y-54767819D01*
%TO.C,C2*%
X119055933Y-83374580D02*
X119008314Y-83422200D01*
X119008314Y-83422200D02*
X118865457Y-83469819D01*
X118865457Y-83469819D02*
X118770219Y-83469819D01*
X118770219Y-83469819D02*
X118627362Y-83422200D01*
X118627362Y-83422200D02*
X118532124Y-83326961D01*
X118532124Y-83326961D02*
X118484505Y-83231723D01*
X118484505Y-83231723D02*
X118436886Y-83041247D01*
X118436886Y-83041247D02*
X118436886Y-82898390D01*
X118436886Y-82898390D02*
X118484505Y-82707914D01*
X118484505Y-82707914D02*
X118532124Y-82612676D01*
X118532124Y-82612676D02*
X118627362Y-82517438D01*
X118627362Y-82517438D02*
X118770219Y-82469819D01*
X118770219Y-82469819D02*
X118865457Y-82469819D01*
X118865457Y-82469819D02*
X119008314Y-82517438D01*
X119008314Y-82517438D02*
X119055933Y-82565057D01*
X119436886Y-82565057D02*
X119484505Y-82517438D01*
X119484505Y-82517438D02*
X119579743Y-82469819D01*
X119579743Y-82469819D02*
X119817838Y-82469819D01*
X119817838Y-82469819D02*
X119913076Y-82517438D01*
X119913076Y-82517438D02*
X119960695Y-82565057D01*
X119960695Y-82565057D02*
X120008314Y-82660295D01*
X120008314Y-82660295D02*
X120008314Y-82755533D01*
X120008314Y-82755533D02*
X119960695Y-82898390D01*
X119960695Y-82898390D02*
X119389267Y-83469819D01*
X119389267Y-83469819D02*
X120008314Y-83469819D01*
%TO.C,U1*%
X57658095Y-53767819D02*
X57658095Y-54577342D01*
X57658095Y-54577342D02*
X57705714Y-54672580D01*
X57705714Y-54672580D02*
X57753333Y-54720200D01*
X57753333Y-54720200D02*
X57848571Y-54767819D01*
X57848571Y-54767819D02*
X58039047Y-54767819D01*
X58039047Y-54767819D02*
X58134285Y-54720200D01*
X58134285Y-54720200D02*
X58181904Y-54672580D01*
X58181904Y-54672580D02*
X58229523Y-54577342D01*
X58229523Y-54577342D02*
X58229523Y-53767819D01*
X59229523Y-54767819D02*
X58658095Y-54767819D01*
X58943809Y-54767819D02*
X58943809Y-53767819D01*
X58943809Y-53767819D02*
X58848571Y-53910676D01*
X58848571Y-53910676D02*
X58753333Y-54005914D01*
X58753333Y-54005914D02*
X58658095Y-54053533D01*
%TO.C,C1*%
X119055933Y-72757380D02*
X119008314Y-72805000D01*
X119008314Y-72805000D02*
X118865457Y-72852619D01*
X118865457Y-72852619D02*
X118770219Y-72852619D01*
X118770219Y-72852619D02*
X118627362Y-72805000D01*
X118627362Y-72805000D02*
X118532124Y-72709761D01*
X118532124Y-72709761D02*
X118484505Y-72614523D01*
X118484505Y-72614523D02*
X118436886Y-72424047D01*
X118436886Y-72424047D02*
X118436886Y-72281190D01*
X118436886Y-72281190D02*
X118484505Y-72090714D01*
X118484505Y-72090714D02*
X118532124Y-71995476D01*
X118532124Y-71995476D02*
X118627362Y-71900238D01*
X118627362Y-71900238D02*
X118770219Y-71852619D01*
X118770219Y-71852619D02*
X118865457Y-71852619D01*
X118865457Y-71852619D02*
X119008314Y-71900238D01*
X119008314Y-71900238D02*
X119055933Y-71947857D01*
X120008314Y-72852619D02*
X119436886Y-72852619D01*
X119722600Y-72852619D02*
X119722600Y-71852619D01*
X119722600Y-71852619D02*
X119627362Y-71995476D01*
X119627362Y-71995476D02*
X119532124Y-72090714D01*
X119532124Y-72090714D02*
X119436886Y-72138333D01*
%TO.C,R7*%
X103963333Y-82707819D02*
X103630000Y-82231628D01*
X103391905Y-82707819D02*
X103391905Y-81707819D01*
X103391905Y-81707819D02*
X103772857Y-81707819D01*
X103772857Y-81707819D02*
X103868095Y-81755438D01*
X103868095Y-81755438D02*
X103915714Y-81803057D01*
X103915714Y-81803057D02*
X103963333Y-81898295D01*
X103963333Y-81898295D02*
X103963333Y-82041152D01*
X103963333Y-82041152D02*
X103915714Y-82136390D01*
X103915714Y-82136390D02*
X103868095Y-82184009D01*
X103868095Y-82184009D02*
X103772857Y-82231628D01*
X103772857Y-82231628D02*
X103391905Y-82231628D01*
X104296667Y-81707819D02*
X104963333Y-81707819D01*
X104963333Y-81707819D02*
X104534762Y-82707819D01*
%TO.C,R2*%
X70953333Y-81437819D02*
X70620000Y-80961628D01*
X70381905Y-81437819D02*
X70381905Y-80437819D01*
X70381905Y-80437819D02*
X70762857Y-80437819D01*
X70762857Y-80437819D02*
X70858095Y-80485438D01*
X70858095Y-80485438D02*
X70905714Y-80533057D01*
X70905714Y-80533057D02*
X70953333Y-80628295D01*
X70953333Y-80628295D02*
X70953333Y-80771152D01*
X70953333Y-80771152D02*
X70905714Y-80866390D01*
X70905714Y-80866390D02*
X70858095Y-80914009D01*
X70858095Y-80914009D02*
X70762857Y-80961628D01*
X70762857Y-80961628D02*
X70381905Y-80961628D01*
X71334286Y-80533057D02*
X71381905Y-80485438D01*
X71381905Y-80485438D02*
X71477143Y-80437819D01*
X71477143Y-80437819D02*
X71715238Y-80437819D01*
X71715238Y-80437819D02*
X71810476Y-80485438D01*
X71810476Y-80485438D02*
X71858095Y-80533057D01*
X71858095Y-80533057D02*
X71905714Y-80628295D01*
X71905714Y-80628295D02*
X71905714Y-80723533D01*
X71905714Y-80723533D02*
X71858095Y-80866390D01*
X71858095Y-80866390D02*
X71286667Y-81437819D01*
X71286667Y-81437819D02*
X71905714Y-81437819D01*
%TO.C,R8*%
X103973333Y-86517819D02*
X103640000Y-86041628D01*
X103401905Y-86517819D02*
X103401905Y-85517819D01*
X103401905Y-85517819D02*
X103782857Y-85517819D01*
X103782857Y-85517819D02*
X103878095Y-85565438D01*
X103878095Y-85565438D02*
X103925714Y-85613057D01*
X103925714Y-85613057D02*
X103973333Y-85708295D01*
X103973333Y-85708295D02*
X103973333Y-85851152D01*
X103973333Y-85851152D02*
X103925714Y-85946390D01*
X103925714Y-85946390D02*
X103878095Y-85994009D01*
X103878095Y-85994009D02*
X103782857Y-86041628D01*
X103782857Y-86041628D02*
X103401905Y-86041628D01*
X104544762Y-85946390D02*
X104449524Y-85898771D01*
X104449524Y-85898771D02*
X104401905Y-85851152D01*
X104401905Y-85851152D02*
X104354286Y-85755914D01*
X104354286Y-85755914D02*
X104354286Y-85708295D01*
X104354286Y-85708295D02*
X104401905Y-85613057D01*
X104401905Y-85613057D02*
X104449524Y-85565438D01*
X104449524Y-85565438D02*
X104544762Y-85517819D01*
X104544762Y-85517819D02*
X104735238Y-85517819D01*
X104735238Y-85517819D02*
X104830476Y-85565438D01*
X104830476Y-85565438D02*
X104878095Y-85613057D01*
X104878095Y-85613057D02*
X104925714Y-85708295D01*
X104925714Y-85708295D02*
X104925714Y-85755914D01*
X104925714Y-85755914D02*
X104878095Y-85851152D01*
X104878095Y-85851152D02*
X104830476Y-85898771D01*
X104830476Y-85898771D02*
X104735238Y-85946390D01*
X104735238Y-85946390D02*
X104544762Y-85946390D01*
X104544762Y-85946390D02*
X104449524Y-85994009D01*
X104449524Y-85994009D02*
X104401905Y-86041628D01*
X104401905Y-86041628D02*
X104354286Y-86136866D01*
X104354286Y-86136866D02*
X104354286Y-86327342D01*
X104354286Y-86327342D02*
X104401905Y-86422580D01*
X104401905Y-86422580D02*
X104449524Y-86470200D01*
X104449524Y-86470200D02*
X104544762Y-86517819D01*
X104544762Y-86517819D02*
X104735238Y-86517819D01*
X104735238Y-86517819D02*
X104830476Y-86470200D01*
X104830476Y-86470200D02*
X104878095Y-86422580D01*
X104878095Y-86422580D02*
X104925714Y-86327342D01*
X104925714Y-86327342D02*
X104925714Y-86136866D01*
X104925714Y-86136866D02*
X104878095Y-86041628D01*
X104878095Y-86041628D02*
X104830476Y-85994009D01*
X104830476Y-85994009D02*
X104735238Y-85946390D01*
%TO.C,R3*%
X103963333Y-67427819D02*
X103630000Y-66951628D01*
X103391905Y-67427819D02*
X103391905Y-66427819D01*
X103391905Y-66427819D02*
X103772857Y-66427819D01*
X103772857Y-66427819D02*
X103868095Y-66475438D01*
X103868095Y-66475438D02*
X103915714Y-66523057D01*
X103915714Y-66523057D02*
X103963333Y-66618295D01*
X103963333Y-66618295D02*
X103963333Y-66761152D01*
X103963333Y-66761152D02*
X103915714Y-66856390D01*
X103915714Y-66856390D02*
X103868095Y-66904009D01*
X103868095Y-66904009D02*
X103772857Y-66951628D01*
X103772857Y-66951628D02*
X103391905Y-66951628D01*
X104296667Y-66427819D02*
X104915714Y-66427819D01*
X104915714Y-66427819D02*
X104582381Y-66808771D01*
X104582381Y-66808771D02*
X104725238Y-66808771D01*
X104725238Y-66808771D02*
X104820476Y-66856390D01*
X104820476Y-66856390D02*
X104868095Y-66904009D01*
X104868095Y-66904009D02*
X104915714Y-66999247D01*
X104915714Y-66999247D02*
X104915714Y-67237342D01*
X104915714Y-67237342D02*
X104868095Y-67332580D01*
X104868095Y-67332580D02*
X104820476Y-67380200D01*
X104820476Y-67380200D02*
X104725238Y-67427819D01*
X104725238Y-67427819D02*
X104439524Y-67427819D01*
X104439524Y-67427819D02*
X104344286Y-67380200D01*
X104344286Y-67380200D02*
X104296667Y-67332580D01*
%TO.C,R1*%
X70953333Y-76357819D02*
X70620000Y-75881628D01*
X70381905Y-76357819D02*
X70381905Y-75357819D01*
X70381905Y-75357819D02*
X70762857Y-75357819D01*
X70762857Y-75357819D02*
X70858095Y-75405438D01*
X70858095Y-75405438D02*
X70905714Y-75453057D01*
X70905714Y-75453057D02*
X70953333Y-75548295D01*
X70953333Y-75548295D02*
X70953333Y-75691152D01*
X70953333Y-75691152D02*
X70905714Y-75786390D01*
X70905714Y-75786390D02*
X70858095Y-75834009D01*
X70858095Y-75834009D02*
X70762857Y-75881628D01*
X70762857Y-75881628D02*
X70381905Y-75881628D01*
X71905714Y-76357819D02*
X71334286Y-76357819D01*
X71620000Y-76357819D02*
X71620000Y-75357819D01*
X71620000Y-75357819D02*
X71524762Y-75500676D01*
X71524762Y-75500676D02*
X71429524Y-75595914D01*
X71429524Y-75595914D02*
X71334286Y-75643533D01*
%TO.C,R6*%
X103973333Y-78897819D02*
X103640000Y-78421628D01*
X103401905Y-78897819D02*
X103401905Y-77897819D01*
X103401905Y-77897819D02*
X103782857Y-77897819D01*
X103782857Y-77897819D02*
X103878095Y-77945438D01*
X103878095Y-77945438D02*
X103925714Y-77993057D01*
X103925714Y-77993057D02*
X103973333Y-78088295D01*
X103973333Y-78088295D02*
X103973333Y-78231152D01*
X103973333Y-78231152D02*
X103925714Y-78326390D01*
X103925714Y-78326390D02*
X103878095Y-78374009D01*
X103878095Y-78374009D02*
X103782857Y-78421628D01*
X103782857Y-78421628D02*
X103401905Y-78421628D01*
X104830476Y-77897819D02*
X104640000Y-77897819D01*
X104640000Y-77897819D02*
X104544762Y-77945438D01*
X104544762Y-77945438D02*
X104497143Y-77993057D01*
X104497143Y-77993057D02*
X104401905Y-78135914D01*
X104401905Y-78135914D02*
X104354286Y-78326390D01*
X104354286Y-78326390D02*
X104354286Y-78707342D01*
X104354286Y-78707342D02*
X104401905Y-78802580D01*
X104401905Y-78802580D02*
X104449524Y-78850200D01*
X104449524Y-78850200D02*
X104544762Y-78897819D01*
X104544762Y-78897819D02*
X104735238Y-78897819D01*
X104735238Y-78897819D02*
X104830476Y-78850200D01*
X104830476Y-78850200D02*
X104878095Y-78802580D01*
X104878095Y-78802580D02*
X104925714Y-78707342D01*
X104925714Y-78707342D02*
X104925714Y-78469247D01*
X104925714Y-78469247D02*
X104878095Y-78374009D01*
X104878095Y-78374009D02*
X104830476Y-78326390D01*
X104830476Y-78326390D02*
X104735238Y-78278771D01*
X104735238Y-78278771D02*
X104544762Y-78278771D01*
X104544762Y-78278771D02*
X104449524Y-78326390D01*
X104449524Y-78326390D02*
X104401905Y-78374009D01*
X104401905Y-78374009D02*
X104354286Y-78469247D01*
%TO.C,J2*%
X144230133Y-80629580D02*
X144230133Y-79915295D01*
X144230133Y-79915295D02*
X144277752Y-79772438D01*
X144277752Y-79772438D02*
X144372990Y-79677200D01*
X144372990Y-79677200D02*
X144515847Y-79629580D01*
X144515847Y-79629580D02*
X144611085Y-79629580D01*
X143801561Y-80534342D02*
X143753942Y-80581961D01*
X143753942Y-80581961D02*
X143658704Y-80629580D01*
X143658704Y-80629580D02*
X143420609Y-80629580D01*
X143420609Y-80629580D02*
X143325371Y-80581961D01*
X143325371Y-80581961D02*
X143277752Y-80534342D01*
X143277752Y-80534342D02*
X143230133Y-80439104D01*
X143230133Y-80439104D02*
X143230133Y-80343866D01*
X143230133Y-80343866D02*
X143277752Y-80201009D01*
X143277752Y-80201009D02*
X143849180Y-79629580D01*
X143849180Y-79629580D02*
X143230133Y-79629580D01*
%TO.C,U5*%
X57673095Y-75357819D02*
X57673095Y-76167342D01*
X57673095Y-76167342D02*
X57720714Y-76262580D01*
X57720714Y-76262580D02*
X57768333Y-76310200D01*
X57768333Y-76310200D02*
X57863571Y-76357819D01*
X57863571Y-76357819D02*
X58054047Y-76357819D01*
X58054047Y-76357819D02*
X58149285Y-76310200D01*
X58149285Y-76310200D02*
X58196904Y-76262580D01*
X58196904Y-76262580D02*
X58244523Y-76167342D01*
X58244523Y-76167342D02*
X58244523Y-75357819D01*
X59196904Y-75357819D02*
X58720714Y-75357819D01*
X58720714Y-75357819D02*
X58673095Y-75834009D01*
X58673095Y-75834009D02*
X58720714Y-75786390D01*
X58720714Y-75786390D02*
X58815952Y-75738771D01*
X58815952Y-75738771D02*
X59054047Y-75738771D01*
X59054047Y-75738771D02*
X59149285Y-75786390D01*
X59149285Y-75786390D02*
X59196904Y-75834009D01*
X59196904Y-75834009D02*
X59244523Y-75929247D01*
X59244523Y-75929247D02*
X59244523Y-76167342D01*
X59244523Y-76167342D02*
X59196904Y-76262580D01*
X59196904Y-76262580D02*
X59149285Y-76310200D01*
X59149285Y-76310200D02*
X59054047Y-76357819D01*
X59054047Y-76357819D02*
X58815952Y-76357819D01*
X58815952Y-76357819D02*
X58720714Y-76310200D01*
X58720714Y-76310200D02*
X58673095Y-76262580D01*
%TO.C,U3*%
X80823095Y-53772819D02*
X80823095Y-54582342D01*
X80823095Y-54582342D02*
X80870714Y-54677580D01*
X80870714Y-54677580D02*
X80918333Y-54725200D01*
X80918333Y-54725200D02*
X81013571Y-54772819D01*
X81013571Y-54772819D02*
X81204047Y-54772819D01*
X81204047Y-54772819D02*
X81299285Y-54725200D01*
X81299285Y-54725200D02*
X81346904Y-54677580D01*
X81346904Y-54677580D02*
X81394523Y-54582342D01*
X81394523Y-54582342D02*
X81394523Y-53772819D01*
X81775476Y-53772819D02*
X82394523Y-53772819D01*
X82394523Y-53772819D02*
X82061190Y-54153771D01*
X82061190Y-54153771D02*
X82204047Y-54153771D01*
X82204047Y-54153771D02*
X82299285Y-54201390D01*
X82299285Y-54201390D02*
X82346904Y-54249009D01*
X82346904Y-54249009D02*
X82394523Y-54344247D01*
X82394523Y-54344247D02*
X82394523Y-54582342D01*
X82394523Y-54582342D02*
X82346904Y-54677580D01*
X82346904Y-54677580D02*
X82299285Y-54725200D01*
X82299285Y-54725200D02*
X82204047Y-54772819D01*
X82204047Y-54772819D02*
X81918333Y-54772819D01*
X81918333Y-54772819D02*
X81823095Y-54725200D01*
X81823095Y-54725200D02*
X81775476Y-54677580D01*
%TO.C,R5*%
X103973333Y-75087819D02*
X103640000Y-74611628D01*
X103401905Y-75087819D02*
X103401905Y-74087819D01*
X103401905Y-74087819D02*
X103782857Y-74087819D01*
X103782857Y-74087819D02*
X103878095Y-74135438D01*
X103878095Y-74135438D02*
X103925714Y-74183057D01*
X103925714Y-74183057D02*
X103973333Y-74278295D01*
X103973333Y-74278295D02*
X103973333Y-74421152D01*
X103973333Y-74421152D02*
X103925714Y-74516390D01*
X103925714Y-74516390D02*
X103878095Y-74564009D01*
X103878095Y-74564009D02*
X103782857Y-74611628D01*
X103782857Y-74611628D02*
X103401905Y-74611628D01*
X104878095Y-74087819D02*
X104401905Y-74087819D01*
X104401905Y-74087819D02*
X104354286Y-74564009D01*
X104354286Y-74564009D02*
X104401905Y-74516390D01*
X104401905Y-74516390D02*
X104497143Y-74468771D01*
X104497143Y-74468771D02*
X104735238Y-74468771D01*
X104735238Y-74468771D02*
X104830476Y-74516390D01*
X104830476Y-74516390D02*
X104878095Y-74564009D01*
X104878095Y-74564009D02*
X104925714Y-74659247D01*
X104925714Y-74659247D02*
X104925714Y-74897342D01*
X104925714Y-74897342D02*
X104878095Y-74992580D01*
X104878095Y-74992580D02*
X104830476Y-75040200D01*
X104830476Y-75040200D02*
X104735238Y-75087819D01*
X104735238Y-75087819D02*
X104497143Y-75087819D01*
X104497143Y-75087819D02*
X104401905Y-75040200D01*
X104401905Y-75040200D02*
X104354286Y-74992580D01*
%TO.C,Y1*%
X86847428Y-78810590D02*
X87323619Y-78810590D01*
X86323619Y-79143923D02*
X86847428Y-78810590D01*
X86847428Y-78810590D02*
X86323619Y-78477257D01*
X87323619Y-77620114D02*
X87323619Y-78191542D01*
X87323619Y-77905828D02*
X86323619Y-77905828D01*
X86323619Y-77905828D02*
X86466476Y-78001066D01*
X86466476Y-78001066D02*
X86561714Y-78096304D01*
X86561714Y-78096304D02*
X86609333Y-78191542D01*
%TO.C,R4*%
X103973333Y-71277819D02*
X103640000Y-70801628D01*
X103401905Y-71277819D02*
X103401905Y-70277819D01*
X103401905Y-70277819D02*
X103782857Y-70277819D01*
X103782857Y-70277819D02*
X103878095Y-70325438D01*
X103878095Y-70325438D02*
X103925714Y-70373057D01*
X103925714Y-70373057D02*
X103973333Y-70468295D01*
X103973333Y-70468295D02*
X103973333Y-70611152D01*
X103973333Y-70611152D02*
X103925714Y-70706390D01*
X103925714Y-70706390D02*
X103878095Y-70754009D01*
X103878095Y-70754009D02*
X103782857Y-70801628D01*
X103782857Y-70801628D02*
X103401905Y-70801628D01*
X104830476Y-70611152D02*
X104830476Y-71277819D01*
X104592381Y-70230200D02*
X104354286Y-70944485D01*
X104354286Y-70944485D02*
X104973333Y-70944485D01*
%TO.C,U4*%
X116302619Y-55067104D02*
X117112142Y-55067104D01*
X117112142Y-55067104D02*
X117207380Y-55019485D01*
X117207380Y-55019485D02*
X117255000Y-54971866D01*
X117255000Y-54971866D02*
X117302619Y-54876628D01*
X117302619Y-54876628D02*
X117302619Y-54686152D01*
X117302619Y-54686152D02*
X117255000Y-54590914D01*
X117255000Y-54590914D02*
X117207380Y-54543295D01*
X117207380Y-54543295D02*
X117112142Y-54495676D01*
X117112142Y-54495676D02*
X116302619Y-54495676D01*
X116635952Y-53590914D02*
X117302619Y-53590914D01*
X116255000Y-53829009D02*
X116969285Y-54067104D01*
X116969285Y-54067104D02*
X116969285Y-53448057D01*
D11*
%TO.C,U2*%
X74295000Y-62195200D02*
X73295000Y-63195200D01*
X74295000Y-45415200D02*
X74295000Y-62195200D01*
X73295000Y-63195200D02*
X67945000Y-63195200D01*
X67945000Y-63195200D02*
X67945000Y-45415200D01*
X67945000Y-45415200D02*
X74295000Y-45415200D01*
%TO.C,C2*%
X115795841Y-81259700D02*
X116595841Y-81259700D01*
X116195841Y-80859700D02*
X116195841Y-81659700D01*
X123222600Y-83007200D02*
G75*
G03*
X123222600Y-83007200I-4000000J0D01*
G01*
%TO.C,U1*%
X61595000Y-62195200D02*
X60595000Y-63195200D01*
X61595000Y-45415200D02*
X61595000Y-62195200D01*
X60595000Y-63195200D02*
X55245000Y-63195200D01*
X55245000Y-63195200D02*
X55245000Y-45415200D01*
X55245000Y-45415200D02*
X61595000Y-45415200D01*
%TO.C,C1*%
X115795841Y-70642500D02*
X116595841Y-70642500D01*
X116195841Y-70242500D02*
X116195841Y-71042500D01*
X123222600Y-72390000D02*
G75*
G03*
X123222600Y-72390000I-4000000J0D01*
G01*
%TO.C,R7*%
X107940000Y-82245200D02*
X107280000Y-82245200D01*
X107280000Y-83495200D02*
X107280000Y-80995200D01*
X107280000Y-80995200D02*
X100980000Y-80995200D01*
X100980000Y-83495200D02*
X107280000Y-83495200D01*
X100980000Y-80995200D02*
X100980000Y-83495200D01*
X100320000Y-82245200D02*
X100980000Y-82245200D01*
%TO.C,R2*%
X74930000Y-80975200D02*
X74270000Y-80975200D01*
X74270000Y-82225200D02*
X74270000Y-79725200D01*
X74270000Y-79725200D02*
X67970000Y-79725200D01*
X67970000Y-82225200D02*
X74270000Y-82225200D01*
X67970000Y-79725200D02*
X67970000Y-82225200D01*
X67310000Y-80975200D02*
X67970000Y-80975200D01*
%TO.C,R8*%
X107950000Y-86055200D02*
X107290000Y-86055200D01*
X107290000Y-87305200D02*
X107290000Y-84805200D01*
X107290000Y-84805200D02*
X100990000Y-84805200D01*
X100990000Y-87305200D02*
X107290000Y-87305200D01*
X100990000Y-84805200D02*
X100990000Y-87305200D01*
X100330000Y-86055200D02*
X100990000Y-86055200D01*
%TO.C,R3*%
X100320000Y-66965200D02*
X100980000Y-66965200D01*
X100980000Y-65715200D02*
X100980000Y-68215200D01*
X100980000Y-68215200D02*
X107280000Y-68215200D01*
X107280000Y-65715200D02*
X100980000Y-65715200D01*
X107280000Y-68215200D02*
X107280000Y-65715200D01*
X107940000Y-66965200D02*
X107280000Y-66965200D01*
%TO.C,R1*%
X67310000Y-75895200D02*
X67970000Y-75895200D01*
X67970000Y-74645200D02*
X67970000Y-77145200D01*
X67970000Y-77145200D02*
X74270000Y-77145200D01*
X74270000Y-74645200D02*
X67970000Y-74645200D01*
X74270000Y-77145200D02*
X74270000Y-74645200D01*
X74930000Y-75895200D02*
X74270000Y-75895200D01*
%TO.C,R6*%
X107950000Y-78435200D02*
X107290000Y-78435200D01*
X107290000Y-79685200D02*
X107290000Y-77185200D01*
X107290000Y-77185200D02*
X100990000Y-77185200D01*
X100990000Y-79685200D02*
X107290000Y-79685200D01*
X100990000Y-77185200D02*
X100990000Y-79685200D01*
X100330000Y-78435200D02*
X100990000Y-78435200D01*
%TO.C,U5*%
X61610000Y-83785200D02*
X60610000Y-84785200D01*
X61610000Y-67005200D02*
X61610000Y-83785200D01*
X60610000Y-84785200D02*
X55260000Y-84785200D01*
X55260000Y-84785200D02*
X55260000Y-67005200D01*
X55260000Y-67005200D02*
X61610000Y-67005200D01*
%TO.C,U3*%
X87010000Y-62200200D02*
X86010000Y-63200200D01*
X87010000Y-45420200D02*
X87010000Y-62200200D01*
X86010000Y-63200200D02*
X80660000Y-63200200D01*
X80660000Y-63200200D02*
X80660000Y-45420200D01*
X80660000Y-45420200D02*
X87010000Y-45420200D01*
%TO.C,R5*%
X100330000Y-74625200D02*
X100990000Y-74625200D01*
X100990000Y-73375200D02*
X100990000Y-75875200D01*
X100990000Y-75875200D02*
X107290000Y-75875200D01*
X107290000Y-73375200D02*
X100990000Y-73375200D01*
X107290000Y-75875200D02*
X107290000Y-73375200D01*
X107950000Y-74625200D02*
X107290000Y-74625200D01*
%TO.C,Y1*%
X82261000Y-84184400D02*
X82261000Y-72584400D01*
X82361000Y-84184400D02*
X82261000Y-84184400D01*
X82361000Y-83834400D02*
X95361000Y-83834400D01*
X95361000Y-83834400D02*
X95361000Y-72934400D01*
X81361000Y-80834400D02*
X80361000Y-80834400D01*
X82361000Y-80834400D02*
X81361000Y-80834400D01*
X81361000Y-75934400D02*
X80361000Y-75934400D01*
X82361000Y-75934400D02*
X81361000Y-75934400D01*
X82361000Y-72934400D02*
X82361000Y-83834400D01*
X95361000Y-72934400D02*
X82361000Y-72934400D01*
X82261000Y-72584400D02*
X82361000Y-72584400D01*
X82361000Y-72584400D02*
X82361000Y-84184400D01*
%TO.C,R4*%
X100330000Y-70815200D02*
X100990000Y-70815200D01*
X100990000Y-69565200D02*
X100990000Y-72065200D01*
X100990000Y-72065200D02*
X107290000Y-72065200D01*
X107290000Y-69565200D02*
X100990000Y-69565200D01*
X107290000Y-72065200D02*
X107290000Y-69565200D01*
X107950000Y-70815200D02*
X107290000Y-70815200D01*
%TO.C,U4*%
X92440000Y-61670200D02*
X91440000Y-60670200D01*
X142240000Y-61670200D02*
X92440000Y-61670200D01*
X91440000Y-60670200D02*
X91440000Y-46940200D01*
X91440000Y-46940200D02*
X142240000Y-46940200D01*
X142240000Y-46940200D02*
X142240000Y-61670200D01*
%TD*%
M02*
