M48
; DRILL file {KiCad 7.0.1} date Wed Jul 19 12:38:49 2023
; FORMAT={-:-/ absolute / inch / decimal}
; #@! TF.CreationDate,2023-07-19T12:38:49+03:00
; #@! TF.GenerationSoftware,Kicad,Pcbnew,7.0.1
; #@! TF.FileFunction,Plated,1,2,PTH
FMAT,2
INCH
; #@! TA.AperFunction,Plated,PTH,ViaDrill
T1C0.0157
; #@! TA.AperFunction,Plated,PTH,ComponentDrill
T2C0.0315
; #@! TA.AperFunction,Plated,PTH,ViaDrill
T3C0.0394
; #@! TA.AperFunction,Plated,PTH,ComponentDrill
T4C0.0394
; #@! TA.AperFunction,Plated,PTH,ComponentDrill
T5C0.0512
; #@! TA.AperFunction,Plated,PTH,ViaDrill
T6C0.1024
%
G90
G05
T1
X2.545Y-1.985
X2.75Y-2.401
X2.853Y-2.276
X2.8949Y-1.6778
X3.069Y-1.731
X3.233Y-1.7426
X3.247Y-1.859
X3.2791Y-1.7086
X3.2968Y-2.3933
X3.341Y-1.716
X3.356Y-1.877
X3.3904Y-1.7341
X3.509Y-1.7
X3.551Y-1.929
X3.5883Y-1.6879
X3.702Y-2.0404
X3.8932Y-1.699
X4.058Y-2.0404
X4.142Y-2.21
X4.4008Y-1.6508
X4.4074Y-2.0404
X4.5297Y-1.6509
X4.6842Y-1.7375
X4.8431Y-1.6864
X5.065Y-2.207
X5.1295Y-1.65
T2
X2.15Y-1.838
X2.15Y-1.938
X2.15Y-2.038
X2.15Y-2.138
X2.15Y-2.238
X2.15Y-2.338
X2.15Y-2.438
X2.1506Y-2.688
X2.1506Y-2.788
X2.1506Y-2.888
X2.1506Y-2.988
X2.1506Y-3.088
X2.1506Y-3.188
X2.1506Y-3.288
X2.45Y-1.838
X2.45Y-1.938
X2.45Y-2.038
X2.45Y-2.138
X2.45Y-2.238
X2.45Y-2.338
X2.45Y-2.438
X2.4506Y-2.688
X2.4506Y-2.788
X2.4506Y-2.888
X2.4506Y-2.988
X2.4506Y-3.088
X2.4506Y-3.188
X2.4506Y-3.288
X2.65Y-1.838
X2.65Y-1.938
X2.65Y-2.038
X2.65Y-2.138
X2.65Y-2.238
X2.65Y-2.338
X2.65Y-2.438
X2.65Y-2.988
X2.65Y-3.188
X2.95Y-1.838
X2.95Y-1.938
X2.95Y-2.038
X2.95Y-2.138
X2.95Y-2.238
X2.95Y-2.338
X2.95Y-2.438
X2.95Y-2.988
X2.95Y-3.188
X3.1506Y-1.8382
X3.1506Y-1.9382
X3.1506Y-2.0382
X3.1506Y-2.1382
X3.1506Y-2.2382
X3.1506Y-2.3382
X3.1506Y-2.4382
X3.1638Y-2.9895
X3.1638Y-3.1825
X3.4506Y-1.8382
X3.4506Y-1.9382
X3.4506Y-2.0382
X3.4506Y-2.1382
X3.4506Y-2.2382
X3.4506Y-2.3382
X3.4506Y-2.4382
X3.65Y-1.838
X3.65Y-2.438
X3.75Y-1.838
X3.75Y-2.438
X3.85Y-1.838
X3.85Y-2.438
X3.9496Y-2.6364
X3.9496Y-3.238
X3.95Y-1.838
X3.95Y-2.438
X3.95Y-2.788
X3.95Y-2.938
X3.95Y-3.088
X3.95Y-3.388
X4.05Y-1.838
X4.05Y-2.438
X4.15Y-1.838
X4.15Y-2.438
X4.2496Y-2.6364
X4.2496Y-3.238
X4.25Y-1.838
X4.25Y-2.438
X4.25Y-2.788
X4.25Y-2.938
X4.25Y-3.088
X4.25Y-3.388
X4.35Y-1.838
X4.35Y-2.438
X4.45Y-1.838
X4.45Y-2.438
X4.55Y-1.838
X4.55Y-2.438
X4.619Y-2.85
X4.619Y-3.268
X4.65Y-1.838
X4.65Y-2.438
X4.75Y-1.838
X4.75Y-2.438
X4.7686Y-2.85
X4.7686Y-3.268
X4.85Y-1.838
X4.85Y-2.438
X4.95Y-1.838
X4.95Y-2.438
X5.05Y-1.838
X5.05Y-2.438
X5.15Y-1.838
X5.15Y-2.438
X5.25Y-1.838
X5.25Y-2.438
X5.35Y-1.838
X5.35Y-2.438
X5.45Y-1.838
X5.45Y-2.438
X5.55Y-1.838
X5.55Y-2.438
T3
X3.6386Y-2.7931
X3.6386Y-3.3841
T4
X5.6889Y-2.8461
X5.6889Y-3.2399
X5.7873Y-2.8461
X5.7873Y-3.2399
T5
X5.492Y-3.043
X5.6873Y-3.0399
T6
X2.7559Y-2.7165
X5.0394Y-2.7165
T4
G00X5.4999Y-2.8461
M15
G01X5.4841Y-2.8461
M16
G05
G00X5.4999Y-2.9446
M15
G01X5.4841Y-2.9446
M16
G05
G00X5.4999Y-3.1414
M15
G01X5.4841Y-3.1414
M16
G05
G00X5.4999Y-3.2399
M15
G01X5.4841Y-3.2399
M16
G05
T0
M30
