%TF.GenerationSoftware,KiCad,Pcbnew,7.0.1*%
%TF.CreationDate,2023-07-19T12:38:44+03:00*%
%TF.ProjectId,deltaAY,64656c74-6141-4592-9e6b-696361645f70,rev?*%
%TF.SameCoordinates,Original*%
%TF.FileFunction,Soldermask,Top*%
%TF.FilePolarity,Negative*%
%FSLAX46Y46*%
G04 Gerber Fmt 4.6, Leading zero omitted, Abs format (unit mm)*
G04 Created by KiCad (PCBNEW 7.0.1) date 2023-07-19 12:38:44*
%MOMM*%
%LPD*%
G01*
G04 APERTURE LIST*
%ADD10C,0.120000*%
%ADD11R,2.400000X1.600000*%
%ADD12O,2.400000X1.600000*%
%ADD13R,1.600000X1.600000*%
%ADD14C,1.600000*%
%ADD15O,1.600000X1.600000*%
%ADD16C,1.400000*%
%ADD17C,1.900000*%
%ADD18C,2.000000*%
%ADD19C,1.500000*%
%ADD20R,1.600000X2.400000*%
%ADD21O,1.600000X2.400000*%
G04 APERTURE END LIST*
D10*
%TO.C,J1*%
X59692490Y-31189990D02*
X60992490Y-31189990D01*
X60992490Y-31189990D02*
X60992490Y-41189990D01*
X60992490Y-41189990D02*
X59692490Y-41189990D01*
X59692490Y-41189990D02*
X59692490Y-31189990D01*
G36*
X59692490Y-31189990D02*
G01*
X60992490Y-31189990D01*
X60992490Y-41189990D01*
X59692490Y-41189990D01*
X59692490Y-31189990D01*
G37*
X62192490Y-31189990D02*
X63492490Y-31189990D01*
X63492490Y-31189990D02*
X63492490Y-41189990D01*
X63492490Y-41189990D02*
X62192490Y-41189990D01*
X62192490Y-41189990D02*
X62192490Y-31189990D01*
G36*
X62192490Y-31189990D02*
G01*
X63492490Y-31189990D01*
X63492490Y-41189990D01*
X62192490Y-41189990D01*
X62192490Y-31189990D01*
G37*
X64692490Y-31189990D02*
X65992490Y-31189990D01*
X65992490Y-31189990D02*
X65992490Y-41189990D01*
X65992490Y-41189990D02*
X64692490Y-41189990D01*
X64692490Y-41189990D02*
X64692490Y-31189990D01*
G36*
X64692490Y-31189990D02*
G01*
X65992490Y-31189990D01*
X65992490Y-41189990D01*
X64692490Y-41189990D01*
X64692490Y-31189990D01*
G37*
X67192490Y-31189990D02*
X68492490Y-31189990D01*
X68492490Y-31189990D02*
X68492490Y-41189990D01*
X68492490Y-41189990D02*
X67192490Y-41189990D01*
X67192490Y-41189990D02*
X67192490Y-31189990D01*
G36*
X67192490Y-31189990D02*
G01*
X68492490Y-31189990D01*
X68492490Y-41189990D01*
X67192490Y-41189990D01*
X67192490Y-31189990D01*
G37*
X69692490Y-31189990D02*
X70992490Y-31189990D01*
X70992490Y-31189990D02*
X70992490Y-41189990D01*
X70992490Y-41189990D02*
X69692490Y-41189990D01*
X69692490Y-41189990D02*
X69692490Y-31189990D01*
G36*
X69692490Y-31189990D02*
G01*
X70992490Y-31189990D01*
X70992490Y-41189990D01*
X69692490Y-41189990D01*
X69692490Y-31189990D01*
G37*
X72192490Y-31189990D02*
X73492490Y-31189990D01*
X73492490Y-31189990D02*
X73492490Y-41189990D01*
X73492490Y-41189990D02*
X72192490Y-41189990D01*
X72192490Y-41189990D02*
X72192490Y-31189990D01*
G36*
X72192490Y-31189990D02*
G01*
X73492490Y-31189990D01*
X73492490Y-41189990D01*
X72192490Y-41189990D01*
X72192490Y-31189990D01*
G37*
X74692490Y-31189990D02*
X75992490Y-31189990D01*
X75992490Y-31189990D02*
X75992490Y-41189990D01*
X75992490Y-41189990D02*
X74692490Y-41189990D01*
X74692490Y-41189990D02*
X74692490Y-31189990D01*
G36*
X74692490Y-31189990D02*
G01*
X75992490Y-31189990D01*
X75992490Y-41189990D01*
X74692490Y-41189990D01*
X74692490Y-31189990D01*
G37*
X77192490Y-31189990D02*
X78492490Y-31189990D01*
X78492490Y-31189990D02*
X78492490Y-41189990D01*
X78492490Y-41189990D02*
X77192490Y-41189990D01*
X77192490Y-41189990D02*
X77192490Y-31189990D01*
G36*
X77192490Y-31189990D02*
G01*
X78492490Y-31189990D01*
X78492490Y-41189990D01*
X77192490Y-41189990D01*
X77192490Y-31189990D01*
G37*
X79692490Y-31189990D02*
X80992490Y-31189990D01*
X80992490Y-31189990D02*
X80992490Y-41189990D01*
X80992490Y-41189990D02*
X79692490Y-41189990D01*
X79692490Y-41189990D02*
X79692490Y-31189990D01*
G36*
X79692490Y-31189990D02*
G01*
X80992490Y-31189990D01*
X80992490Y-41189990D01*
X79692490Y-41189990D01*
X79692490Y-31189990D01*
G37*
X82192490Y-31189990D02*
X83492490Y-31189990D01*
X83492490Y-31189990D02*
X83492490Y-41189990D01*
X83492490Y-41189990D02*
X82192490Y-41189990D01*
X82192490Y-41189990D02*
X82192490Y-31189990D01*
G36*
X82192490Y-31189990D02*
G01*
X83492490Y-31189990D01*
X83492490Y-41189990D01*
X82192490Y-41189990D01*
X82192490Y-31189990D01*
G37*
X84692490Y-31189990D02*
X85992490Y-31189990D01*
X85992490Y-31189990D02*
X85992490Y-41189990D01*
X85992490Y-41189990D02*
X84692490Y-41189990D01*
X84692490Y-41189990D02*
X84692490Y-31189990D01*
G36*
X84692490Y-31189990D02*
G01*
X85992490Y-31189990D01*
X85992490Y-41189990D01*
X84692490Y-41189990D01*
X84692490Y-31189990D01*
G37*
X87192490Y-31189990D02*
X88492490Y-31189990D01*
X88492490Y-31189990D02*
X88492490Y-41189990D01*
X88492490Y-41189990D02*
X87192490Y-41189990D01*
X87192490Y-41189990D02*
X87192490Y-31189990D01*
G36*
X87192490Y-31189990D02*
G01*
X88492490Y-31189990D01*
X88492490Y-41189990D01*
X87192490Y-41189990D01*
X87192490Y-31189990D01*
G37*
X89692490Y-31189990D02*
X90992490Y-31189990D01*
X90992490Y-31189990D02*
X90992490Y-41189990D01*
X90992490Y-41189990D02*
X89692490Y-41189990D01*
X89692490Y-41189990D02*
X89692490Y-31189990D01*
G36*
X89692490Y-31189990D02*
G01*
X90992490Y-31189990D01*
X90992490Y-41189990D01*
X89692490Y-41189990D01*
X89692490Y-31189990D01*
G37*
X92192490Y-31189990D02*
X93492490Y-31189990D01*
X93492490Y-31189990D02*
X93492490Y-41189990D01*
X93492490Y-41189990D02*
X92192490Y-41189990D01*
X92192490Y-41189990D02*
X92192490Y-31189990D01*
G36*
X92192490Y-31189990D02*
G01*
X93492490Y-31189990D01*
X93492490Y-41189990D01*
X92192490Y-41189990D01*
X92192490Y-31189990D01*
G37*
X94692490Y-31189990D02*
X95992490Y-31189990D01*
X95992490Y-31189990D02*
X95992490Y-41189990D01*
X95992490Y-41189990D02*
X94692490Y-41189990D01*
X94692490Y-41189990D02*
X94692490Y-31189990D01*
G36*
X94692490Y-31189990D02*
G01*
X95992490Y-31189990D01*
X95992490Y-41189990D01*
X94692490Y-41189990D01*
X94692490Y-31189990D01*
G37*
X97192490Y-31189990D02*
X98492490Y-31189990D01*
X98492490Y-31189990D02*
X98492490Y-41189990D01*
X98492490Y-41189990D02*
X97192490Y-41189990D01*
X97192490Y-41189990D02*
X97192490Y-31189990D01*
G36*
X97192490Y-31189990D02*
G01*
X98492490Y-31189990D01*
X98492490Y-41189990D01*
X97192490Y-41189990D01*
X97192490Y-31189990D01*
G37*
X99692490Y-31189990D02*
X100992490Y-31189990D01*
X100992490Y-31189990D02*
X100992490Y-41189990D01*
X100992490Y-41189990D02*
X99692490Y-41189990D01*
X99692490Y-41189990D02*
X99692490Y-31189990D01*
G36*
X99692490Y-31189990D02*
G01*
X100992490Y-31189990D01*
X100992490Y-41189990D01*
X99692490Y-41189990D01*
X99692490Y-31189990D01*
G37*
X102192490Y-31189990D02*
X103492490Y-31189990D01*
X103492490Y-31189990D02*
X103492490Y-41189990D01*
X103492490Y-41189990D02*
X102192490Y-41189990D01*
X102192490Y-41189990D02*
X102192490Y-31189990D01*
G36*
X102192490Y-31189990D02*
G01*
X103492490Y-31189990D01*
X103492490Y-41189990D01*
X102192490Y-41189990D01*
X102192490Y-31189990D01*
G37*
X104692490Y-31189990D02*
X105992490Y-31189990D01*
X105992490Y-31189990D02*
X105992490Y-41189990D01*
X105992490Y-41189990D02*
X104692490Y-41189990D01*
X104692490Y-41189990D02*
X104692490Y-31189990D01*
G36*
X104692490Y-31189990D02*
G01*
X105992490Y-31189990D01*
X105992490Y-41189990D01*
X104692490Y-41189990D01*
X104692490Y-31189990D01*
G37*
X107192490Y-31189990D02*
X108492490Y-31189990D01*
X108492490Y-31189990D02*
X108492490Y-41189990D01*
X108492490Y-41189990D02*
X107192490Y-41189990D01*
X107192490Y-41189990D02*
X107192490Y-31189990D01*
G36*
X107192490Y-31189990D02*
G01*
X108492490Y-31189990D01*
X108492490Y-41189990D01*
X107192490Y-41189990D01*
X107192490Y-31189990D01*
G37*
X109692490Y-31189990D02*
X110992490Y-31189990D01*
X110992490Y-31189990D02*
X110992490Y-41189990D01*
X110992490Y-41189990D02*
X109692490Y-41189990D01*
X109692490Y-41189990D02*
X109692490Y-31189990D01*
G36*
X109692490Y-31189990D02*
G01*
X110992490Y-31189990D01*
X110992490Y-41189990D01*
X109692490Y-41189990D01*
X109692490Y-31189990D01*
G37*
X112192490Y-31189990D02*
X113492490Y-31189990D01*
X113492490Y-31189990D02*
X113492490Y-41189990D01*
X113492490Y-41189990D02*
X112192490Y-41189990D01*
X112192490Y-41189990D02*
X112192490Y-31189990D01*
G36*
X112192490Y-31189990D02*
G01*
X113492490Y-31189990D01*
X113492490Y-41189990D01*
X112192490Y-41189990D01*
X112192490Y-31189990D01*
G37*
X114692490Y-31189990D02*
X115992490Y-31189990D01*
X115992490Y-31189990D02*
X115992490Y-41189990D01*
X115992490Y-41189990D02*
X114692490Y-41189990D01*
X114692490Y-41189990D02*
X114692490Y-31189990D01*
G36*
X114692490Y-31189990D02*
G01*
X115992490Y-31189990D01*
X115992490Y-41189990D01*
X114692490Y-41189990D01*
X114692490Y-31189990D01*
G37*
X117192490Y-31189990D02*
X118492490Y-31189990D01*
X118492490Y-31189990D02*
X118492490Y-41189990D01*
X118492490Y-41189990D02*
X117192490Y-41189990D01*
X117192490Y-41189990D02*
X117192490Y-31189990D01*
G36*
X117192490Y-31189990D02*
G01*
X118492490Y-31189990D01*
X118492490Y-41189990D01*
X117192490Y-41189990D01*
X117192490Y-31189990D01*
G37*
X119692490Y-31189990D02*
X120992490Y-31189990D01*
X120992490Y-31189990D02*
X120992490Y-41189990D01*
X120992490Y-41189990D02*
X119692490Y-41189990D01*
X119692490Y-41189990D02*
X119692490Y-31189990D01*
G36*
X119692490Y-31189990D02*
G01*
X120992490Y-31189990D01*
X120992490Y-41189990D01*
X119692490Y-41189990D01*
X119692490Y-31189990D01*
G37*
X122192490Y-31189990D02*
X123492490Y-31189990D01*
X123492490Y-31189990D02*
X123492490Y-41189990D01*
X123492490Y-41189990D02*
X122192490Y-41189990D01*
X122192490Y-41189990D02*
X122192490Y-31189990D01*
G36*
X122192490Y-31189990D02*
G01*
X123492490Y-31189990D01*
X123492490Y-41189990D01*
X122192490Y-41189990D01*
X122192490Y-31189990D01*
G37*
X124692490Y-31189990D02*
X125992490Y-31189990D01*
X125992490Y-31189990D02*
X125992490Y-41189990D01*
X125992490Y-41189990D02*
X124692490Y-41189990D01*
X124692490Y-41189990D02*
X124692490Y-31189990D01*
G36*
X124692490Y-31189990D02*
G01*
X125992490Y-31189990D01*
X125992490Y-41189990D01*
X124692490Y-41189990D01*
X124692490Y-31189990D01*
G37*
X127192490Y-31189990D02*
X128492490Y-31189990D01*
X128492490Y-31189990D02*
X128492490Y-41189990D01*
X128492490Y-41189990D02*
X127192490Y-41189990D01*
X127192490Y-41189990D02*
X127192490Y-31189990D01*
G36*
X127192490Y-31189990D02*
G01*
X128492490Y-31189990D01*
X128492490Y-41189990D01*
X127192490Y-41189990D01*
X127192490Y-31189990D01*
G37*
X129692490Y-31189990D02*
X130992490Y-31189990D01*
X130992490Y-31189990D02*
X130992490Y-41189990D01*
X130992490Y-41189990D02*
X129692490Y-41189990D01*
X129692490Y-41189990D02*
X129692490Y-31189990D01*
G36*
X129692490Y-31189990D02*
G01*
X130992490Y-31189990D01*
X130992490Y-41189990D01*
X129692490Y-41189990D01*
X129692490Y-31189990D01*
G37*
X132192490Y-31189990D02*
X133492490Y-31189990D01*
X133492490Y-31189990D02*
X133492490Y-41189990D01*
X133492490Y-41189990D02*
X132192490Y-41189990D01*
X132192490Y-41189990D02*
X132192490Y-31189990D01*
G36*
X132192490Y-31189990D02*
G01*
X133492490Y-31189990D01*
X133492490Y-41189990D01*
X132192490Y-41189990D01*
X132192490Y-31189990D01*
G37*
X134692490Y-31189990D02*
X135992490Y-31189990D01*
X135992490Y-31189990D02*
X135992490Y-41189990D01*
X135992490Y-41189990D02*
X134692490Y-41189990D01*
X134692490Y-41189990D02*
X134692490Y-31189990D01*
G36*
X134692490Y-31189990D02*
G01*
X135992490Y-31189990D01*
X135992490Y-41189990D01*
X134692490Y-41189990D01*
X134692490Y-31189990D01*
G37*
X137192490Y-31189990D02*
X138492490Y-31189990D01*
X138492490Y-31189990D02*
X138492490Y-41189990D01*
X138492490Y-41189990D02*
X137192490Y-41189990D01*
X137192490Y-41189990D02*
X137192490Y-31189990D01*
G36*
X137192490Y-31189990D02*
G01*
X138492490Y-31189990D01*
X138492490Y-41189990D01*
X137192490Y-41189990D01*
X137192490Y-31189990D01*
G37*
%TD*%
D11*
%TO.C,U2*%
X74930000Y-61925200D03*
D12*
X74930000Y-59385200D03*
X74930000Y-56845200D03*
X74930000Y-54305200D03*
X74930000Y-51765200D03*
X74930000Y-49225200D03*
X74930000Y-46685200D03*
X67310000Y-46685200D03*
X67310000Y-49225200D03*
X67310000Y-51765200D03*
X67310000Y-54305200D03*
X67310000Y-56845200D03*
X67310000Y-59385200D03*
X67310000Y-61925200D03*
%TD*%
D13*
%TO.C,C2*%
X117322600Y-83007200D03*
D14*
X121122600Y-83007200D03*
%TD*%
D11*
%TO.C,U1*%
X62230000Y-61925200D03*
D12*
X62230000Y-59385200D03*
X62230000Y-56845200D03*
X62230000Y-54305200D03*
X62230000Y-51765200D03*
X62230000Y-49225200D03*
X62230000Y-46685200D03*
X54610000Y-46685200D03*
X54610000Y-49225200D03*
X54610000Y-51765200D03*
X54610000Y-54305200D03*
X54610000Y-56845200D03*
X54610000Y-59385200D03*
X54610000Y-61925200D03*
%TD*%
D13*
%TO.C,C1*%
X117322600Y-72390000D03*
D14*
X121122600Y-72390000D03*
%TD*%
%TO.C,R7*%
X107940000Y-82245200D03*
D15*
X100320000Y-82245200D03*
%TD*%
D14*
%TO.C,R2*%
X74930000Y-80975200D03*
D15*
X67310000Y-80975200D03*
%TD*%
D14*
%TO.C,R8*%
X107950000Y-86055200D03*
D15*
X100330000Y-86055200D03*
%TD*%
D14*
%TO.C,R3*%
X100320000Y-66965200D03*
D15*
X107940000Y-66965200D03*
%TD*%
D14*
%TO.C,R1*%
X67310000Y-75895200D03*
D15*
X74930000Y-75895200D03*
%TD*%
D14*
%TO.C,R6*%
X107950000Y-78435200D03*
D15*
X100330000Y-78435200D03*
%TD*%
D16*
%TO.C,J2*%
X146996800Y-82292200D03*
X146996800Y-72292200D03*
X144496800Y-82292200D03*
X144496800Y-72292200D03*
D17*
X139496800Y-77292200D03*
X144456800Y-77212200D03*
D18*
X139496800Y-82292200D03*
X139496800Y-79792200D03*
X139496800Y-74792200D03*
X139496800Y-72292200D03*
%TD*%
D11*
%TO.C,U5*%
X62245000Y-83515200D03*
D12*
X62245000Y-80975200D03*
X62245000Y-78435200D03*
X62245000Y-75895200D03*
X62245000Y-73355200D03*
X62245000Y-70815200D03*
X62245000Y-68275200D03*
X54625000Y-68275200D03*
X54625000Y-70815200D03*
X54625000Y-73355200D03*
X54625000Y-75895200D03*
X54625000Y-78435200D03*
X54625000Y-80975200D03*
X54625000Y-83515200D03*
%TD*%
D11*
%TO.C,U3*%
X87645000Y-61930200D03*
D12*
X87645000Y-59390200D03*
X87645000Y-56850200D03*
X87645000Y-54310200D03*
X87645000Y-51770200D03*
X87645000Y-49230200D03*
X87645000Y-46690200D03*
X80025000Y-46690200D03*
X80025000Y-49230200D03*
X80025000Y-51770200D03*
X80025000Y-54310200D03*
X80025000Y-56850200D03*
X80025000Y-59390200D03*
X80025000Y-61930200D03*
%TD*%
D14*
%TO.C,R5*%
X100330000Y-74625200D03*
D15*
X107950000Y-74625200D03*
%TD*%
D19*
%TO.C,Y1*%
X80361000Y-80834400D03*
X80361000Y-75934400D03*
%TD*%
D14*
%TO.C,R4*%
X100330000Y-70815200D03*
D15*
X107950000Y-70815200D03*
%TD*%
D20*
%TO.C,U4*%
X92710000Y-61925200D03*
D21*
X95250000Y-61925200D03*
X97790000Y-61925200D03*
X100330000Y-61925200D03*
X102870000Y-61925200D03*
X105410000Y-61925200D03*
X107950000Y-61925200D03*
X110490000Y-61925200D03*
X113030000Y-61925200D03*
X115570000Y-61925200D03*
X118110000Y-61925200D03*
X120650000Y-61925200D03*
X123190000Y-61925200D03*
X125730000Y-61925200D03*
X128270000Y-61925200D03*
X130810000Y-61925200D03*
X133350000Y-61925200D03*
X135890000Y-61925200D03*
X138430000Y-61925200D03*
X140970000Y-61925200D03*
X140970000Y-46685200D03*
X138430000Y-46685200D03*
X135890000Y-46685200D03*
X133350000Y-46685200D03*
X130810000Y-46685200D03*
X128270000Y-46685200D03*
X125730000Y-46685200D03*
X123190000Y-46685200D03*
X120650000Y-46685200D03*
X118110000Y-46685200D03*
X115570000Y-46685200D03*
X113030000Y-46685200D03*
X110490000Y-46685200D03*
X107950000Y-46685200D03*
X105410000Y-46685200D03*
X102870000Y-46685200D03*
X100330000Y-46685200D03*
X97790000Y-46685200D03*
X95250000Y-46685200D03*
X92710000Y-46685200D03*
%TD*%
M02*
