%TF.GenerationSoftware,KiCad,Pcbnew,7.0.1*%
%TF.CreationDate,2023-07-19T12:38:50+03:00*%
%TF.ProjectId,deltaAY,64656c74-6141-4592-9e6b-696361645f70,rev?*%
%TF.SameCoordinates,Original*%
%TF.FileFunction,Drillmap*%
%TF.FilePolarity,Positive*%
%FSLAX45Y45*%
G04 Gerber Fmt 4.5, Leading zero omitted, Abs format (unit mm)*
G04 Created by KiCad (PCBNEW 7.0.1) date 2023-07-19 12:38:50*
%MOMM*%
%LPD*%
G01*
G04 APERTURE LIST*
%ADD10C,0.100000*%
%ADD11C,0.200000*%
%ADD12C,0.040000*%
%ADD13C,0.080000*%
%ADD14C,0.130000*%
%ADD15C,0.260000*%
G04 APERTURE END LIST*
D10*
X14800000Y-3000000D02*
X5000000Y-3000000D01*
X5000000Y-8900000D02*
G75*
G03*
X5100000Y-9000000I100000J0D01*
G01*
X5100000Y-9000000D02*
X14700000Y-9000000D01*
X5000000Y-3000000D02*
X5000000Y-8900000D01*
X14700000Y-9000000D02*
G75*
G03*
X14800000Y-8900000I0J100000D01*
G01*
X14800000Y-8900000D02*
X14800000Y-3000000D01*
D11*
D12*
X6444300Y-5021900D02*
X6484300Y-5061900D01*
X6484300Y-5021900D02*
X6444300Y-5061900D01*
X6965000Y-6078540D02*
X7005000Y-6118540D01*
X7005000Y-6078540D02*
X6965000Y-6118540D01*
X7226620Y-5761040D02*
X7266620Y-5801040D01*
X7266620Y-5761040D02*
X7226620Y-5801040D01*
X7333120Y-4241620D02*
X7373120Y-4281620D01*
X7373120Y-4241620D02*
X7333120Y-4281620D01*
X7775260Y-4376740D02*
X7815260Y-4416740D01*
X7815260Y-4376740D02*
X7775260Y-4416740D01*
X8191820Y-4406170D02*
X8231820Y-4446170D01*
X8231820Y-4406170D02*
X8191820Y-4446170D01*
X8227380Y-4701860D02*
X8267380Y-4741860D01*
X8267380Y-4701860D02*
X8227380Y-4741860D01*
X8308800Y-4319920D02*
X8348800Y-4359920D01*
X8348800Y-4319920D02*
X8308800Y-4359920D01*
X8353950Y-6059010D02*
X8393950Y-6099010D01*
X8393950Y-6059010D02*
X8353950Y-6099010D01*
X8466140Y-4338640D02*
X8506140Y-4378640D01*
X8506140Y-4338640D02*
X8466140Y-4378640D01*
X8504240Y-4747580D02*
X8544240Y-4787580D01*
X8544240Y-4747580D02*
X8504240Y-4787580D01*
X8591670Y-4384720D02*
X8631670Y-4424720D01*
X8631670Y-4384720D02*
X8591670Y-4424720D01*
X8892860Y-4298000D02*
X8932860Y-4338000D01*
X8932860Y-4298000D02*
X8892860Y-4338000D01*
X8999540Y-4879660D02*
X9039540Y-4919660D01*
X9039540Y-4879660D02*
X8999540Y-4919660D01*
X9094400Y-4267150D02*
X9134400Y-4307150D01*
X9134400Y-4267150D02*
X9094400Y-4307150D01*
X9382980Y-5162650D02*
X9422980Y-5202650D01*
X9422980Y-5162650D02*
X9382980Y-5202650D01*
X9868750Y-4295460D02*
X9908750Y-4335460D01*
X9908750Y-4295460D02*
X9868750Y-4335460D01*
X10287320Y-5162650D02*
X10327320Y-5202650D01*
X10327320Y-5162650D02*
X10287320Y-5202650D01*
X10500680Y-5593400D02*
X10540680Y-5633400D01*
X10540680Y-5593400D02*
X10500680Y-5633400D01*
X11158150Y-4173150D02*
X11198150Y-4213150D01*
X11198150Y-4173150D02*
X11158150Y-4213150D01*
X11174890Y-5162650D02*
X11214890Y-5202650D01*
X11214890Y-5162650D02*
X11174890Y-5202650D01*
X11485470Y-4173290D02*
X11525470Y-4213290D01*
X11525470Y-4173290D02*
X11485470Y-4213290D01*
X11877830Y-4393180D02*
X11917830Y-4433180D01*
X11917830Y-4393180D02*
X11877830Y-4433180D01*
X12281450Y-4263520D02*
X12321450Y-4303520D01*
X12321450Y-4263520D02*
X12281450Y-4303520D01*
X12845100Y-5585780D02*
X12885100Y-5625780D01*
X12885100Y-5585780D02*
X12845100Y-5625780D01*
X13008940Y-4170920D02*
X13048940Y-4210920D01*
X13048940Y-4170920D02*
X13008940Y-4210920D01*
D13*
X5501000Y-4668520D02*
G75*
G03*
X5501000Y-4668520I-40000J0D01*
G01*
X5501000Y-4922520D02*
G75*
G03*
X5501000Y-4922520I-40000J0D01*
G01*
X5501000Y-5176520D02*
G75*
G03*
X5501000Y-5176520I-40000J0D01*
G01*
X5501000Y-5430520D02*
G75*
G03*
X5501000Y-5430520I-40000J0D01*
G01*
X5501000Y-5684520D02*
G75*
G03*
X5501000Y-5684520I-40000J0D01*
G01*
X5501000Y-5938520D02*
G75*
G03*
X5501000Y-5938520I-40000J0D01*
G01*
X5501000Y-6192520D02*
G75*
G03*
X5501000Y-6192520I-40000J0D01*
G01*
X5502500Y-6827520D02*
G75*
G03*
X5502500Y-6827520I-40000J0D01*
G01*
X5502500Y-7081520D02*
G75*
G03*
X5502500Y-7081520I-40000J0D01*
G01*
X5502500Y-7335520D02*
G75*
G03*
X5502500Y-7335520I-40000J0D01*
G01*
X5502500Y-7589520D02*
G75*
G03*
X5502500Y-7589520I-40000J0D01*
G01*
X5502500Y-7843520D02*
G75*
G03*
X5502500Y-7843520I-40000J0D01*
G01*
X5502500Y-8097520D02*
G75*
G03*
X5502500Y-8097520I-40000J0D01*
G01*
X5502500Y-8351520D02*
G75*
G03*
X5502500Y-8351520I-40000J0D01*
G01*
X6263000Y-4668520D02*
G75*
G03*
X6263000Y-4668520I-40000J0D01*
G01*
X6263000Y-4922520D02*
G75*
G03*
X6263000Y-4922520I-40000J0D01*
G01*
X6263000Y-5176520D02*
G75*
G03*
X6263000Y-5176520I-40000J0D01*
G01*
X6263000Y-5430520D02*
G75*
G03*
X6263000Y-5430520I-40000J0D01*
G01*
X6263000Y-5684520D02*
G75*
G03*
X6263000Y-5684520I-40000J0D01*
G01*
X6263000Y-5938520D02*
G75*
G03*
X6263000Y-5938520I-40000J0D01*
G01*
X6263000Y-6192520D02*
G75*
G03*
X6263000Y-6192520I-40000J0D01*
G01*
X6264500Y-6827520D02*
G75*
G03*
X6264500Y-6827520I-40000J0D01*
G01*
X6264500Y-7081520D02*
G75*
G03*
X6264500Y-7081520I-40000J0D01*
G01*
X6264500Y-7335520D02*
G75*
G03*
X6264500Y-7335520I-40000J0D01*
G01*
X6264500Y-7589520D02*
G75*
G03*
X6264500Y-7589520I-40000J0D01*
G01*
X6264500Y-7843520D02*
G75*
G03*
X6264500Y-7843520I-40000J0D01*
G01*
X6264500Y-8097520D02*
G75*
G03*
X6264500Y-8097520I-40000J0D01*
G01*
X6264500Y-8351520D02*
G75*
G03*
X6264500Y-8351520I-40000J0D01*
G01*
X6771000Y-4668520D02*
G75*
G03*
X6771000Y-4668520I-40000J0D01*
G01*
X6771000Y-4922520D02*
G75*
G03*
X6771000Y-4922520I-40000J0D01*
G01*
X6771000Y-5176520D02*
G75*
G03*
X6771000Y-5176520I-40000J0D01*
G01*
X6771000Y-5430520D02*
G75*
G03*
X6771000Y-5430520I-40000J0D01*
G01*
X6771000Y-5684520D02*
G75*
G03*
X6771000Y-5684520I-40000J0D01*
G01*
X6771000Y-5938520D02*
G75*
G03*
X6771000Y-5938520I-40000J0D01*
G01*
X6771000Y-6192520D02*
G75*
G03*
X6771000Y-6192520I-40000J0D01*
G01*
X6771000Y-7589520D02*
G75*
G03*
X6771000Y-7589520I-40000J0D01*
G01*
X6771000Y-8097520D02*
G75*
G03*
X6771000Y-8097520I-40000J0D01*
G01*
X7533000Y-4668520D02*
G75*
G03*
X7533000Y-4668520I-40000J0D01*
G01*
X7533000Y-4922520D02*
G75*
G03*
X7533000Y-4922520I-40000J0D01*
G01*
X7533000Y-5176520D02*
G75*
G03*
X7533000Y-5176520I-40000J0D01*
G01*
X7533000Y-5430520D02*
G75*
G03*
X7533000Y-5430520I-40000J0D01*
G01*
X7533000Y-5684520D02*
G75*
G03*
X7533000Y-5684520I-40000J0D01*
G01*
X7533000Y-5938520D02*
G75*
G03*
X7533000Y-5938520I-40000J0D01*
G01*
X7533000Y-6192520D02*
G75*
G03*
X7533000Y-6192520I-40000J0D01*
G01*
X7533000Y-7589520D02*
G75*
G03*
X7533000Y-7589520I-40000J0D01*
G01*
X7533000Y-8097520D02*
G75*
G03*
X7533000Y-8097520I-40000J0D01*
G01*
X8042500Y-4669020D02*
G75*
G03*
X8042500Y-4669020I-40000J0D01*
G01*
X8042500Y-4923020D02*
G75*
G03*
X8042500Y-4923020I-40000J0D01*
G01*
X8042500Y-5177020D02*
G75*
G03*
X8042500Y-5177020I-40000J0D01*
G01*
X8042500Y-5431020D02*
G75*
G03*
X8042500Y-5431020I-40000J0D01*
G01*
X8042500Y-5685020D02*
G75*
G03*
X8042500Y-5685020I-40000J0D01*
G01*
X8042500Y-5939020D02*
G75*
G03*
X8042500Y-5939020I-40000J0D01*
G01*
X8042500Y-6193020D02*
G75*
G03*
X8042500Y-6193020I-40000J0D01*
G01*
X8076100Y-7593440D02*
G75*
G03*
X8076100Y-7593440I-40000J0D01*
G01*
X8076100Y-8083440D02*
G75*
G03*
X8076100Y-8083440I-40000J0D01*
G01*
X8804500Y-4669020D02*
G75*
G03*
X8804500Y-4669020I-40000J0D01*
G01*
X8804500Y-4923020D02*
G75*
G03*
X8804500Y-4923020I-40000J0D01*
G01*
X8804500Y-5177020D02*
G75*
G03*
X8804500Y-5177020I-40000J0D01*
G01*
X8804500Y-5431020D02*
G75*
G03*
X8804500Y-5431020I-40000J0D01*
G01*
X8804500Y-5685020D02*
G75*
G03*
X8804500Y-5685020I-40000J0D01*
G01*
X8804500Y-5939020D02*
G75*
G03*
X8804500Y-5939020I-40000J0D01*
G01*
X8804500Y-6193020D02*
G75*
G03*
X8804500Y-6193020I-40000J0D01*
G01*
X9311000Y-4668520D02*
G75*
G03*
X9311000Y-4668520I-40000J0D01*
G01*
X9311000Y-6192520D02*
G75*
G03*
X9311000Y-6192520I-40000J0D01*
G01*
X9565000Y-4668520D02*
G75*
G03*
X9565000Y-4668520I-40000J0D01*
G01*
X9565000Y-6192520D02*
G75*
G03*
X9565000Y-6192520I-40000J0D01*
G01*
X9819000Y-4668520D02*
G75*
G03*
X9819000Y-4668520I-40000J0D01*
G01*
X9819000Y-6192520D02*
G75*
G03*
X9819000Y-6192520I-40000J0D01*
G01*
X10072000Y-6696520D02*
G75*
G03*
X10072000Y-6696520I-40000J0D01*
G01*
X10072000Y-8224520D02*
G75*
G03*
X10072000Y-8224520I-40000J0D01*
G01*
X10073000Y-4668520D02*
G75*
G03*
X10073000Y-4668520I-40000J0D01*
G01*
X10073000Y-6192520D02*
G75*
G03*
X10073000Y-6192520I-40000J0D01*
G01*
X10073000Y-7081520D02*
G75*
G03*
X10073000Y-7081520I-40000J0D01*
G01*
X10073000Y-7462520D02*
G75*
G03*
X10073000Y-7462520I-40000J0D01*
G01*
X10073000Y-7843520D02*
G75*
G03*
X10073000Y-7843520I-40000J0D01*
G01*
X10073000Y-8605520D02*
G75*
G03*
X10073000Y-8605520I-40000J0D01*
G01*
X10327000Y-4668520D02*
G75*
G03*
X10327000Y-4668520I-40000J0D01*
G01*
X10327000Y-6192520D02*
G75*
G03*
X10327000Y-6192520I-40000J0D01*
G01*
X10581000Y-4668520D02*
G75*
G03*
X10581000Y-4668520I-40000J0D01*
G01*
X10581000Y-6192520D02*
G75*
G03*
X10581000Y-6192520I-40000J0D01*
G01*
X10834000Y-6696520D02*
G75*
G03*
X10834000Y-6696520I-40000J0D01*
G01*
X10834000Y-8224520D02*
G75*
G03*
X10834000Y-8224520I-40000J0D01*
G01*
X10835000Y-4668520D02*
G75*
G03*
X10835000Y-4668520I-40000J0D01*
G01*
X10835000Y-6192520D02*
G75*
G03*
X10835000Y-6192520I-40000J0D01*
G01*
X10835000Y-7081520D02*
G75*
G03*
X10835000Y-7081520I-40000J0D01*
G01*
X10835000Y-7462520D02*
G75*
G03*
X10835000Y-7462520I-40000J0D01*
G01*
X10835000Y-7843520D02*
G75*
G03*
X10835000Y-7843520I-40000J0D01*
G01*
X10835000Y-8605520D02*
G75*
G03*
X10835000Y-8605520I-40000J0D01*
G01*
X11089000Y-4668520D02*
G75*
G03*
X11089000Y-4668520I-40000J0D01*
G01*
X11089000Y-6192520D02*
G75*
G03*
X11089000Y-6192520I-40000J0D01*
G01*
X11343000Y-4668520D02*
G75*
G03*
X11343000Y-4668520I-40000J0D01*
G01*
X11343000Y-6192520D02*
G75*
G03*
X11343000Y-6192520I-40000J0D01*
G01*
X11597000Y-4668520D02*
G75*
G03*
X11597000Y-4668520I-40000J0D01*
G01*
X11597000Y-6192520D02*
G75*
G03*
X11597000Y-6192520I-40000J0D01*
G01*
X11772260Y-7239000D02*
G75*
G03*
X11772260Y-7239000I-40000J0D01*
G01*
X11772260Y-8300720D02*
G75*
G03*
X11772260Y-8300720I-40000J0D01*
G01*
X11851000Y-4668520D02*
G75*
G03*
X11851000Y-4668520I-40000J0D01*
G01*
X11851000Y-6192520D02*
G75*
G03*
X11851000Y-6192520I-40000J0D01*
G01*
X12105000Y-4668520D02*
G75*
G03*
X12105000Y-4668520I-40000J0D01*
G01*
X12105000Y-6192520D02*
G75*
G03*
X12105000Y-6192520I-40000J0D01*
G01*
X12152260Y-7239000D02*
G75*
G03*
X12152260Y-7239000I-40000J0D01*
G01*
X12152260Y-8300720D02*
G75*
G03*
X12152260Y-8300720I-40000J0D01*
G01*
X12359000Y-4668520D02*
G75*
G03*
X12359000Y-4668520I-40000J0D01*
G01*
X12359000Y-6192520D02*
G75*
G03*
X12359000Y-6192520I-40000J0D01*
G01*
X12613000Y-4668520D02*
G75*
G03*
X12613000Y-4668520I-40000J0D01*
G01*
X12613000Y-6192520D02*
G75*
G03*
X12613000Y-6192520I-40000J0D01*
G01*
X12867000Y-4668520D02*
G75*
G03*
X12867000Y-4668520I-40000J0D01*
G01*
X12867000Y-6192520D02*
G75*
G03*
X12867000Y-6192520I-40000J0D01*
G01*
X13121000Y-4668520D02*
G75*
G03*
X13121000Y-4668520I-40000J0D01*
G01*
X13121000Y-6192520D02*
G75*
G03*
X13121000Y-6192520I-40000J0D01*
G01*
X13375000Y-4668520D02*
G75*
G03*
X13375000Y-4668520I-40000J0D01*
G01*
X13375000Y-6192520D02*
G75*
G03*
X13375000Y-6192520I-40000J0D01*
G01*
X13629000Y-4668520D02*
G75*
G03*
X13629000Y-4668520I-40000J0D01*
G01*
X13629000Y-6192520D02*
G75*
G03*
X13629000Y-6192520I-40000J0D01*
G01*
X13883000Y-4668520D02*
G75*
G03*
X13883000Y-4668520I-40000J0D01*
G01*
X13883000Y-6192520D02*
G75*
G03*
X13883000Y-6192520I-40000J0D01*
G01*
X14137000Y-4668520D02*
G75*
G03*
X14137000Y-4668520I-40000J0D01*
G01*
X14137000Y-6192520D02*
G75*
G03*
X14137000Y-6192520I-40000J0D01*
G01*
D10*
X9242120Y-7044460D02*
X9242120Y-7144460D01*
X9192120Y-7094460D02*
X9292120Y-7094460D01*
X9242120Y-8545600D02*
X9242120Y-8645600D01*
X9192120Y-8595600D02*
X9292120Y-8595600D01*
X13985036Y-7264576D02*
X13985036Y-7193864D01*
X13914324Y-7193864D01*
X13914324Y-7264576D01*
X13985036Y-7264576D01*
D11*
X13969680Y-7179220D02*
X13929680Y-7179220D01*
X13929680Y-7179220D02*
G75*
G03*
X13929680Y-7279220I0J-50000D01*
G01*
X13929680Y-7279220D02*
X13969680Y-7279220D01*
X13969680Y-7279220D02*
G75*
G03*
X13969680Y-7179220I0J50000D01*
G01*
D10*
X13985036Y-7514576D02*
X13985036Y-7443864D01*
X13914324Y-7443864D01*
X13914324Y-7514576D01*
X13985036Y-7514576D01*
D11*
X13969680Y-7429220D02*
X13929680Y-7429220D01*
X13929680Y-7429220D02*
G75*
G03*
X13929680Y-7529220I0J-50000D01*
G01*
X13929680Y-7529220D02*
X13969680Y-7529220D01*
X13969680Y-7529220D02*
G75*
G03*
X13969680Y-7429220I0J50000D01*
G01*
D10*
X13985036Y-8014576D02*
X13985036Y-7943864D01*
X13914324Y-7943864D01*
X13914324Y-8014576D01*
X13985036Y-8014576D01*
D11*
X13969680Y-7929220D02*
X13929680Y-7929220D01*
X13929680Y-7929220D02*
G75*
G03*
X13929680Y-8029220I0J-50000D01*
G01*
X13929680Y-8029220D02*
X13969680Y-8029220D01*
X13969680Y-8029220D02*
G75*
G03*
X13969680Y-7929220I0J50000D01*
G01*
D10*
X13985036Y-8264576D02*
X13985036Y-8193864D01*
X13914324Y-8193864D01*
X13914324Y-8264576D01*
X13985036Y-8264576D01*
D11*
X13969680Y-8179220D02*
X13929680Y-8179220D01*
X13929680Y-8179220D02*
G75*
G03*
X13929680Y-8279220I0J-50000D01*
G01*
X13929680Y-8279220D02*
X13969680Y-8279220D01*
X13969680Y-8279220D02*
G75*
G03*
X13969680Y-8179220I0J50000D01*
G01*
D10*
X14485036Y-7264576D02*
X14485036Y-7193864D01*
X14414324Y-7193864D01*
X14414324Y-7264576D01*
X14485036Y-7264576D01*
X14485036Y-8264576D02*
X14485036Y-8193864D01*
X14414324Y-8193864D01*
X14414324Y-8264576D01*
X14485036Y-8264576D01*
X14735036Y-7264576D02*
X14735036Y-7193864D01*
X14664324Y-7193864D01*
X14664324Y-7264576D01*
X14735036Y-7264576D01*
X14735036Y-8264576D02*
X14735036Y-8193864D01*
X14664324Y-8193864D01*
X14664324Y-8264576D01*
X14735036Y-8264576D01*
D14*
X13949680Y-7794220D02*
X14014680Y-7729220D01*
X13949680Y-7664220D01*
X13884680Y-7729220D01*
X13949680Y-7794220D01*
X14445680Y-7786220D02*
X14510680Y-7721220D01*
X14445680Y-7656220D01*
X14380680Y-7721220D01*
X14445680Y-7786220D01*
D15*
X6870000Y-6770000D02*
X7130000Y-7030000D01*
X7130000Y-6770000D02*
X6870000Y-7030000D01*
X7130000Y-6900000D02*
G75*
G03*
X7130000Y-6900000I-130000J0D01*
G01*
X12670000Y-6770000D02*
X12930000Y-7030000D01*
X12930000Y-6770000D02*
X12670000Y-7030000D01*
X12930000Y-6900000D02*
G75*
G03*
X12930000Y-6900000I-130000J0D01*
G01*
D11*
X5242619Y-9317524D02*
X5242619Y-9117524D01*
X5242619Y-9117524D02*
X5290238Y-9117524D01*
X5290238Y-9117524D02*
X5318810Y-9127048D01*
X5318810Y-9127048D02*
X5337857Y-9146095D01*
X5337857Y-9146095D02*
X5347381Y-9165143D01*
X5347381Y-9165143D02*
X5356905Y-9203238D01*
X5356905Y-9203238D02*
X5356905Y-9231810D01*
X5356905Y-9231810D02*
X5347381Y-9269905D01*
X5347381Y-9269905D02*
X5337857Y-9288952D01*
X5337857Y-9288952D02*
X5318810Y-9308000D01*
X5318810Y-9308000D02*
X5290238Y-9317524D01*
X5290238Y-9317524D02*
X5242619Y-9317524D01*
X5442619Y-9317524D02*
X5442619Y-9184190D01*
X5442619Y-9222286D02*
X5452143Y-9203238D01*
X5452143Y-9203238D02*
X5461667Y-9193714D01*
X5461667Y-9193714D02*
X5480714Y-9184190D01*
X5480714Y-9184190D02*
X5499762Y-9184190D01*
X5566429Y-9317524D02*
X5566429Y-9184190D01*
X5566429Y-9117524D02*
X5556905Y-9127048D01*
X5556905Y-9127048D02*
X5566429Y-9136571D01*
X5566429Y-9136571D02*
X5575952Y-9127048D01*
X5575952Y-9127048D02*
X5566429Y-9117524D01*
X5566429Y-9117524D02*
X5566429Y-9136571D01*
X5690238Y-9317524D02*
X5671190Y-9308000D01*
X5671190Y-9308000D02*
X5661667Y-9288952D01*
X5661667Y-9288952D02*
X5661667Y-9117524D01*
X5795000Y-9317524D02*
X5775952Y-9308000D01*
X5775952Y-9308000D02*
X5766428Y-9288952D01*
X5766428Y-9288952D02*
X5766428Y-9117524D01*
X6023571Y-9317524D02*
X6023571Y-9117524D01*
X6023571Y-9117524D02*
X6090238Y-9260381D01*
X6090238Y-9260381D02*
X6156905Y-9117524D01*
X6156905Y-9117524D02*
X6156905Y-9317524D01*
X6337857Y-9317524D02*
X6337857Y-9212762D01*
X6337857Y-9212762D02*
X6328333Y-9193714D01*
X6328333Y-9193714D02*
X6309286Y-9184190D01*
X6309286Y-9184190D02*
X6271190Y-9184190D01*
X6271190Y-9184190D02*
X6252143Y-9193714D01*
X6337857Y-9308000D02*
X6318809Y-9317524D01*
X6318809Y-9317524D02*
X6271190Y-9317524D01*
X6271190Y-9317524D02*
X6252143Y-9308000D01*
X6252143Y-9308000D02*
X6242619Y-9288952D01*
X6242619Y-9288952D02*
X6242619Y-9269905D01*
X6242619Y-9269905D02*
X6252143Y-9250857D01*
X6252143Y-9250857D02*
X6271190Y-9241333D01*
X6271190Y-9241333D02*
X6318809Y-9241333D01*
X6318809Y-9241333D02*
X6337857Y-9231810D01*
X6433095Y-9184190D02*
X6433095Y-9384190D01*
X6433095Y-9193714D02*
X6452143Y-9184190D01*
X6452143Y-9184190D02*
X6490238Y-9184190D01*
X6490238Y-9184190D02*
X6509286Y-9193714D01*
X6509286Y-9193714D02*
X6518809Y-9203238D01*
X6518809Y-9203238D02*
X6528333Y-9222286D01*
X6528333Y-9222286D02*
X6528333Y-9279429D01*
X6528333Y-9279429D02*
X6518809Y-9298476D01*
X6518809Y-9298476D02*
X6509286Y-9308000D01*
X6509286Y-9308000D02*
X6490238Y-9317524D01*
X6490238Y-9317524D02*
X6452143Y-9317524D01*
X6452143Y-9317524D02*
X6433095Y-9308000D01*
X6614048Y-9298476D02*
X6623571Y-9308000D01*
X6623571Y-9308000D02*
X6614048Y-9317524D01*
X6614048Y-9317524D02*
X6604524Y-9308000D01*
X6604524Y-9308000D02*
X6614048Y-9298476D01*
X6614048Y-9298476D02*
X6614048Y-9317524D01*
X6614048Y-9193714D02*
X6623571Y-9203238D01*
X6623571Y-9203238D02*
X6614048Y-9212762D01*
X6614048Y-9212762D02*
X6604524Y-9203238D01*
X6604524Y-9203238D02*
X6614048Y-9193714D01*
X6614048Y-9193714D02*
X6614048Y-9212762D01*
D12*
X4955000Y-9625000D02*
X4995000Y-9665000D01*
X4995000Y-9625000D02*
X4955000Y-9665000D01*
D11*
X5280714Y-9537524D02*
X5299762Y-9537524D01*
X5299762Y-9537524D02*
X5318810Y-9547048D01*
X5318810Y-9547048D02*
X5328333Y-9556571D01*
X5328333Y-9556571D02*
X5337857Y-9575619D01*
X5337857Y-9575619D02*
X5347381Y-9613714D01*
X5347381Y-9613714D02*
X5347381Y-9661333D01*
X5347381Y-9661333D02*
X5337857Y-9699429D01*
X5337857Y-9699429D02*
X5328333Y-9718476D01*
X5328333Y-9718476D02*
X5318810Y-9728000D01*
X5318810Y-9728000D02*
X5299762Y-9737524D01*
X5299762Y-9737524D02*
X5280714Y-9737524D01*
X5280714Y-9737524D02*
X5261667Y-9728000D01*
X5261667Y-9728000D02*
X5252143Y-9718476D01*
X5252143Y-9718476D02*
X5242619Y-9699429D01*
X5242619Y-9699429D02*
X5233095Y-9661333D01*
X5233095Y-9661333D02*
X5233095Y-9613714D01*
X5233095Y-9613714D02*
X5242619Y-9575619D01*
X5242619Y-9575619D02*
X5252143Y-9556571D01*
X5252143Y-9556571D02*
X5261667Y-9547048D01*
X5261667Y-9547048D02*
X5280714Y-9537524D01*
X5433095Y-9718476D02*
X5442619Y-9728000D01*
X5442619Y-9728000D02*
X5433095Y-9737524D01*
X5433095Y-9737524D02*
X5423571Y-9728000D01*
X5423571Y-9728000D02*
X5433095Y-9718476D01*
X5433095Y-9718476D02*
X5433095Y-9737524D01*
X5614048Y-9604190D02*
X5614048Y-9737524D01*
X5566429Y-9528000D02*
X5518810Y-9670857D01*
X5518810Y-9670857D02*
X5642619Y-9670857D01*
X5756905Y-9537524D02*
X5775952Y-9537524D01*
X5775952Y-9537524D02*
X5795000Y-9547048D01*
X5795000Y-9547048D02*
X5804524Y-9556571D01*
X5804524Y-9556571D02*
X5814048Y-9575619D01*
X5814048Y-9575619D02*
X5823571Y-9613714D01*
X5823571Y-9613714D02*
X5823571Y-9661333D01*
X5823571Y-9661333D02*
X5814048Y-9699429D01*
X5814048Y-9699429D02*
X5804524Y-9718476D01*
X5804524Y-9718476D02*
X5795000Y-9728000D01*
X5795000Y-9728000D02*
X5775952Y-9737524D01*
X5775952Y-9737524D02*
X5756905Y-9737524D01*
X5756905Y-9737524D02*
X5737857Y-9728000D01*
X5737857Y-9728000D02*
X5728333Y-9718476D01*
X5728333Y-9718476D02*
X5718809Y-9699429D01*
X5718809Y-9699429D02*
X5709286Y-9661333D01*
X5709286Y-9661333D02*
X5709286Y-9613714D01*
X5709286Y-9613714D02*
X5718809Y-9575619D01*
X5718809Y-9575619D02*
X5728333Y-9556571D01*
X5728333Y-9556571D02*
X5737857Y-9547048D01*
X5737857Y-9547048D02*
X5756905Y-9537524D01*
X5947381Y-9537524D02*
X5966429Y-9537524D01*
X5966429Y-9537524D02*
X5985476Y-9547048D01*
X5985476Y-9547048D02*
X5995000Y-9556571D01*
X5995000Y-9556571D02*
X6004524Y-9575619D01*
X6004524Y-9575619D02*
X6014048Y-9613714D01*
X6014048Y-9613714D02*
X6014048Y-9661333D01*
X6014048Y-9661333D02*
X6004524Y-9699429D01*
X6004524Y-9699429D02*
X5995000Y-9718476D01*
X5995000Y-9718476D02*
X5985476Y-9728000D01*
X5985476Y-9728000D02*
X5966429Y-9737524D01*
X5966429Y-9737524D02*
X5947381Y-9737524D01*
X5947381Y-9737524D02*
X5928333Y-9728000D01*
X5928333Y-9728000D02*
X5918809Y-9718476D01*
X5918809Y-9718476D02*
X5909286Y-9699429D01*
X5909286Y-9699429D02*
X5899762Y-9661333D01*
X5899762Y-9661333D02*
X5899762Y-9613714D01*
X5899762Y-9613714D02*
X5909286Y-9575619D01*
X5909286Y-9575619D02*
X5918809Y-9556571D01*
X5918809Y-9556571D02*
X5928333Y-9547048D01*
X5928333Y-9547048D02*
X5947381Y-9537524D01*
X6099762Y-9737524D02*
X6099762Y-9604190D01*
X6099762Y-9623238D02*
X6109286Y-9613714D01*
X6109286Y-9613714D02*
X6128333Y-9604190D01*
X6128333Y-9604190D02*
X6156905Y-9604190D01*
X6156905Y-9604190D02*
X6175952Y-9613714D01*
X6175952Y-9613714D02*
X6185476Y-9632762D01*
X6185476Y-9632762D02*
X6185476Y-9737524D01*
X6185476Y-9632762D02*
X6195000Y-9613714D01*
X6195000Y-9613714D02*
X6214048Y-9604190D01*
X6214048Y-9604190D02*
X6242619Y-9604190D01*
X6242619Y-9604190D02*
X6261667Y-9613714D01*
X6261667Y-9613714D02*
X6271190Y-9632762D01*
X6271190Y-9632762D02*
X6271190Y-9737524D01*
X6366429Y-9737524D02*
X6366429Y-9604190D01*
X6366429Y-9623238D02*
X6375952Y-9613714D01*
X6375952Y-9613714D02*
X6395000Y-9604190D01*
X6395000Y-9604190D02*
X6423571Y-9604190D01*
X6423571Y-9604190D02*
X6442619Y-9613714D01*
X6442619Y-9613714D02*
X6452143Y-9632762D01*
X6452143Y-9632762D02*
X6452143Y-9737524D01*
X6452143Y-9632762D02*
X6461667Y-9613714D01*
X6461667Y-9613714D02*
X6480714Y-9604190D01*
X6480714Y-9604190D02*
X6509286Y-9604190D01*
X6509286Y-9604190D02*
X6528333Y-9613714D01*
X6528333Y-9613714D02*
X6537857Y-9632762D01*
X6537857Y-9632762D02*
X6537857Y-9737524D01*
X6928333Y-9528000D02*
X6756905Y-9785143D01*
X7185476Y-9537524D02*
X7204524Y-9537524D01*
X7204524Y-9537524D02*
X7223572Y-9547048D01*
X7223572Y-9547048D02*
X7233095Y-9556571D01*
X7233095Y-9556571D02*
X7242619Y-9575619D01*
X7242619Y-9575619D02*
X7252143Y-9613714D01*
X7252143Y-9613714D02*
X7252143Y-9661333D01*
X7252143Y-9661333D02*
X7242619Y-9699429D01*
X7242619Y-9699429D02*
X7233095Y-9718476D01*
X7233095Y-9718476D02*
X7223572Y-9728000D01*
X7223572Y-9728000D02*
X7204524Y-9737524D01*
X7204524Y-9737524D02*
X7185476Y-9737524D01*
X7185476Y-9737524D02*
X7166429Y-9728000D01*
X7166429Y-9728000D02*
X7156905Y-9718476D01*
X7156905Y-9718476D02*
X7147381Y-9699429D01*
X7147381Y-9699429D02*
X7137857Y-9661333D01*
X7137857Y-9661333D02*
X7137857Y-9613714D01*
X7137857Y-9613714D02*
X7147381Y-9575619D01*
X7147381Y-9575619D02*
X7156905Y-9556571D01*
X7156905Y-9556571D02*
X7166429Y-9547048D01*
X7166429Y-9547048D02*
X7185476Y-9537524D01*
X7337857Y-9718476D02*
X7347381Y-9728000D01*
X7347381Y-9728000D02*
X7337857Y-9737524D01*
X7337857Y-9737524D02*
X7328333Y-9728000D01*
X7328333Y-9728000D02*
X7337857Y-9718476D01*
X7337857Y-9718476D02*
X7337857Y-9737524D01*
X7471191Y-9537524D02*
X7490238Y-9537524D01*
X7490238Y-9537524D02*
X7509286Y-9547048D01*
X7509286Y-9547048D02*
X7518810Y-9556571D01*
X7518810Y-9556571D02*
X7528333Y-9575619D01*
X7528333Y-9575619D02*
X7537857Y-9613714D01*
X7537857Y-9613714D02*
X7537857Y-9661333D01*
X7537857Y-9661333D02*
X7528333Y-9699429D01*
X7528333Y-9699429D02*
X7518810Y-9718476D01*
X7518810Y-9718476D02*
X7509286Y-9728000D01*
X7509286Y-9728000D02*
X7490238Y-9737524D01*
X7490238Y-9737524D02*
X7471191Y-9737524D01*
X7471191Y-9737524D02*
X7452143Y-9728000D01*
X7452143Y-9728000D02*
X7442619Y-9718476D01*
X7442619Y-9718476D02*
X7433095Y-9699429D01*
X7433095Y-9699429D02*
X7423572Y-9661333D01*
X7423572Y-9661333D02*
X7423572Y-9613714D01*
X7423572Y-9613714D02*
X7433095Y-9575619D01*
X7433095Y-9575619D02*
X7442619Y-9556571D01*
X7442619Y-9556571D02*
X7452143Y-9547048D01*
X7452143Y-9547048D02*
X7471191Y-9537524D01*
X7728333Y-9737524D02*
X7614048Y-9737524D01*
X7671191Y-9737524D02*
X7671191Y-9537524D01*
X7671191Y-9537524D02*
X7652143Y-9566095D01*
X7652143Y-9566095D02*
X7633095Y-9585143D01*
X7633095Y-9585143D02*
X7614048Y-9594667D01*
X7909286Y-9537524D02*
X7814048Y-9537524D01*
X7814048Y-9537524D02*
X7804524Y-9632762D01*
X7804524Y-9632762D02*
X7814048Y-9623238D01*
X7814048Y-9623238D02*
X7833095Y-9613714D01*
X7833095Y-9613714D02*
X7880714Y-9613714D01*
X7880714Y-9613714D02*
X7899762Y-9623238D01*
X7899762Y-9623238D02*
X7909286Y-9632762D01*
X7909286Y-9632762D02*
X7918810Y-9651810D01*
X7918810Y-9651810D02*
X7918810Y-9699429D01*
X7918810Y-9699429D02*
X7909286Y-9718476D01*
X7909286Y-9718476D02*
X7899762Y-9728000D01*
X7899762Y-9728000D02*
X7880714Y-9737524D01*
X7880714Y-9737524D02*
X7833095Y-9737524D01*
X7833095Y-9737524D02*
X7814048Y-9728000D01*
X7814048Y-9728000D02*
X7804524Y-9718476D01*
X7985476Y-9537524D02*
X8118810Y-9537524D01*
X8118810Y-9537524D02*
X8033095Y-9737524D01*
X8185476Y-9537524D02*
X8185476Y-9575619D01*
X8261667Y-9537524D02*
X8261667Y-9575619D01*
X8556905Y-9813714D02*
X8547381Y-9804190D01*
X8547381Y-9804190D02*
X8528334Y-9775619D01*
X8528334Y-9775619D02*
X8518810Y-9756571D01*
X8518810Y-9756571D02*
X8509286Y-9728000D01*
X8509286Y-9728000D02*
X8499762Y-9680381D01*
X8499762Y-9680381D02*
X8499762Y-9642286D01*
X8499762Y-9642286D02*
X8509286Y-9594667D01*
X8509286Y-9594667D02*
X8518810Y-9566095D01*
X8518810Y-9566095D02*
X8528334Y-9547048D01*
X8528334Y-9547048D02*
X8547381Y-9518476D01*
X8547381Y-9518476D02*
X8556905Y-9508952D01*
X8623572Y-9556571D02*
X8633096Y-9547048D01*
X8633096Y-9547048D02*
X8652143Y-9537524D01*
X8652143Y-9537524D02*
X8699762Y-9537524D01*
X8699762Y-9537524D02*
X8718810Y-9547048D01*
X8718810Y-9547048D02*
X8728334Y-9556571D01*
X8728334Y-9556571D02*
X8737857Y-9575619D01*
X8737857Y-9575619D02*
X8737857Y-9594667D01*
X8737857Y-9594667D02*
X8728334Y-9623238D01*
X8728334Y-9623238D02*
X8614048Y-9737524D01*
X8614048Y-9737524D02*
X8737857Y-9737524D01*
X8909286Y-9537524D02*
X8871191Y-9537524D01*
X8871191Y-9537524D02*
X8852143Y-9547048D01*
X8852143Y-9547048D02*
X8842619Y-9556571D01*
X8842619Y-9556571D02*
X8823572Y-9585143D01*
X8823572Y-9585143D02*
X8814048Y-9623238D01*
X8814048Y-9623238D02*
X8814048Y-9699429D01*
X8814048Y-9699429D02*
X8823572Y-9718476D01*
X8823572Y-9718476D02*
X8833096Y-9728000D01*
X8833096Y-9728000D02*
X8852143Y-9737524D01*
X8852143Y-9737524D02*
X8890238Y-9737524D01*
X8890238Y-9737524D02*
X8909286Y-9728000D01*
X8909286Y-9728000D02*
X8918810Y-9718476D01*
X8918810Y-9718476D02*
X8928334Y-9699429D01*
X8928334Y-9699429D02*
X8928334Y-9651810D01*
X8928334Y-9651810D02*
X8918810Y-9632762D01*
X8918810Y-9632762D02*
X8909286Y-9623238D01*
X8909286Y-9623238D02*
X8890238Y-9613714D01*
X8890238Y-9613714D02*
X8852143Y-9613714D01*
X8852143Y-9613714D02*
X8833096Y-9623238D01*
X8833096Y-9623238D02*
X8823572Y-9632762D01*
X8823572Y-9632762D02*
X8814048Y-9651810D01*
X9166429Y-9737524D02*
X9166429Y-9537524D01*
X9252143Y-9737524D02*
X9252143Y-9632762D01*
X9252143Y-9632762D02*
X9242619Y-9613714D01*
X9242619Y-9613714D02*
X9223572Y-9604190D01*
X9223572Y-9604190D02*
X9195000Y-9604190D01*
X9195000Y-9604190D02*
X9175953Y-9613714D01*
X9175953Y-9613714D02*
X9166429Y-9623238D01*
X9375953Y-9737524D02*
X9356905Y-9728000D01*
X9356905Y-9728000D02*
X9347381Y-9718476D01*
X9347381Y-9718476D02*
X9337858Y-9699429D01*
X9337858Y-9699429D02*
X9337858Y-9642286D01*
X9337858Y-9642286D02*
X9347381Y-9623238D01*
X9347381Y-9623238D02*
X9356905Y-9613714D01*
X9356905Y-9613714D02*
X9375953Y-9604190D01*
X9375953Y-9604190D02*
X9404524Y-9604190D01*
X9404524Y-9604190D02*
X9423572Y-9613714D01*
X9423572Y-9613714D02*
X9433096Y-9623238D01*
X9433096Y-9623238D02*
X9442619Y-9642286D01*
X9442619Y-9642286D02*
X9442619Y-9699429D01*
X9442619Y-9699429D02*
X9433096Y-9718476D01*
X9433096Y-9718476D02*
X9423572Y-9728000D01*
X9423572Y-9728000D02*
X9404524Y-9737524D01*
X9404524Y-9737524D02*
X9375953Y-9737524D01*
X9556905Y-9737524D02*
X9537858Y-9728000D01*
X9537858Y-9728000D02*
X9528334Y-9708952D01*
X9528334Y-9708952D02*
X9528334Y-9537524D01*
X9709286Y-9728000D02*
X9690239Y-9737524D01*
X9690239Y-9737524D02*
X9652143Y-9737524D01*
X9652143Y-9737524D02*
X9633096Y-9728000D01*
X9633096Y-9728000D02*
X9623572Y-9708952D01*
X9623572Y-9708952D02*
X9623572Y-9632762D01*
X9623572Y-9632762D02*
X9633096Y-9613714D01*
X9633096Y-9613714D02*
X9652143Y-9604190D01*
X9652143Y-9604190D02*
X9690239Y-9604190D01*
X9690239Y-9604190D02*
X9709286Y-9613714D01*
X9709286Y-9613714D02*
X9718810Y-9632762D01*
X9718810Y-9632762D02*
X9718810Y-9651810D01*
X9718810Y-9651810D02*
X9623572Y-9670857D01*
X9795000Y-9728000D02*
X9814048Y-9737524D01*
X9814048Y-9737524D02*
X9852143Y-9737524D01*
X9852143Y-9737524D02*
X9871191Y-9728000D01*
X9871191Y-9728000D02*
X9880715Y-9708952D01*
X9880715Y-9708952D02*
X9880715Y-9699429D01*
X9880715Y-9699429D02*
X9871191Y-9680381D01*
X9871191Y-9680381D02*
X9852143Y-9670857D01*
X9852143Y-9670857D02*
X9823572Y-9670857D01*
X9823572Y-9670857D02*
X9804524Y-9661333D01*
X9804524Y-9661333D02*
X9795000Y-9642286D01*
X9795000Y-9642286D02*
X9795000Y-9632762D01*
X9795000Y-9632762D02*
X9804524Y-9613714D01*
X9804524Y-9613714D02*
X9823572Y-9604190D01*
X9823572Y-9604190D02*
X9852143Y-9604190D01*
X9852143Y-9604190D02*
X9871191Y-9613714D01*
X9947381Y-9813714D02*
X9956905Y-9804190D01*
X9956905Y-9804190D02*
X9975953Y-9775619D01*
X9975953Y-9775619D02*
X9985477Y-9756571D01*
X9985477Y-9756571D02*
X9995000Y-9728000D01*
X9995000Y-9728000D02*
X10004524Y-9680381D01*
X10004524Y-9680381D02*
X10004524Y-9642286D01*
X10004524Y-9642286D02*
X9995000Y-9594667D01*
X9995000Y-9594667D02*
X9985477Y-9566095D01*
X9985477Y-9566095D02*
X9975953Y-9547048D01*
X9975953Y-9547048D02*
X9956905Y-9518476D01*
X9956905Y-9518476D02*
X9947381Y-9508952D01*
D13*
X4995000Y-9909000D02*
G75*
G03*
X4995000Y-9909000I-40000J0D01*
G01*
D11*
X5280714Y-9801524D02*
X5299762Y-9801524D01*
X5299762Y-9801524D02*
X5318810Y-9811048D01*
X5318810Y-9811048D02*
X5328333Y-9820571D01*
X5328333Y-9820571D02*
X5337857Y-9839619D01*
X5337857Y-9839619D02*
X5347381Y-9877714D01*
X5347381Y-9877714D02*
X5347381Y-9925333D01*
X5347381Y-9925333D02*
X5337857Y-9963429D01*
X5337857Y-9963429D02*
X5328333Y-9982476D01*
X5328333Y-9982476D02*
X5318810Y-9992000D01*
X5318810Y-9992000D02*
X5299762Y-10001524D01*
X5299762Y-10001524D02*
X5280714Y-10001524D01*
X5280714Y-10001524D02*
X5261667Y-9992000D01*
X5261667Y-9992000D02*
X5252143Y-9982476D01*
X5252143Y-9982476D02*
X5242619Y-9963429D01*
X5242619Y-9963429D02*
X5233095Y-9925333D01*
X5233095Y-9925333D02*
X5233095Y-9877714D01*
X5233095Y-9877714D02*
X5242619Y-9839619D01*
X5242619Y-9839619D02*
X5252143Y-9820571D01*
X5252143Y-9820571D02*
X5261667Y-9811048D01*
X5261667Y-9811048D02*
X5280714Y-9801524D01*
X5433095Y-9982476D02*
X5442619Y-9992000D01*
X5442619Y-9992000D02*
X5433095Y-10001524D01*
X5433095Y-10001524D02*
X5423571Y-9992000D01*
X5423571Y-9992000D02*
X5433095Y-9982476D01*
X5433095Y-9982476D02*
X5433095Y-10001524D01*
X5556905Y-9887238D02*
X5537857Y-9877714D01*
X5537857Y-9877714D02*
X5528333Y-9868190D01*
X5528333Y-9868190D02*
X5518810Y-9849143D01*
X5518810Y-9849143D02*
X5518810Y-9839619D01*
X5518810Y-9839619D02*
X5528333Y-9820571D01*
X5528333Y-9820571D02*
X5537857Y-9811048D01*
X5537857Y-9811048D02*
X5556905Y-9801524D01*
X5556905Y-9801524D02*
X5595000Y-9801524D01*
X5595000Y-9801524D02*
X5614048Y-9811048D01*
X5614048Y-9811048D02*
X5623571Y-9820571D01*
X5623571Y-9820571D02*
X5633095Y-9839619D01*
X5633095Y-9839619D02*
X5633095Y-9849143D01*
X5633095Y-9849143D02*
X5623571Y-9868190D01*
X5623571Y-9868190D02*
X5614048Y-9877714D01*
X5614048Y-9877714D02*
X5595000Y-9887238D01*
X5595000Y-9887238D02*
X5556905Y-9887238D01*
X5556905Y-9887238D02*
X5537857Y-9896762D01*
X5537857Y-9896762D02*
X5528333Y-9906286D01*
X5528333Y-9906286D02*
X5518810Y-9925333D01*
X5518810Y-9925333D02*
X5518810Y-9963429D01*
X5518810Y-9963429D02*
X5528333Y-9982476D01*
X5528333Y-9982476D02*
X5537857Y-9992000D01*
X5537857Y-9992000D02*
X5556905Y-10001524D01*
X5556905Y-10001524D02*
X5595000Y-10001524D01*
X5595000Y-10001524D02*
X5614048Y-9992000D01*
X5614048Y-9992000D02*
X5623571Y-9982476D01*
X5623571Y-9982476D02*
X5633095Y-9963429D01*
X5633095Y-9963429D02*
X5633095Y-9925333D01*
X5633095Y-9925333D02*
X5623571Y-9906286D01*
X5623571Y-9906286D02*
X5614048Y-9896762D01*
X5614048Y-9896762D02*
X5595000Y-9887238D01*
X5756905Y-9801524D02*
X5775952Y-9801524D01*
X5775952Y-9801524D02*
X5795000Y-9811048D01*
X5795000Y-9811048D02*
X5804524Y-9820571D01*
X5804524Y-9820571D02*
X5814048Y-9839619D01*
X5814048Y-9839619D02*
X5823571Y-9877714D01*
X5823571Y-9877714D02*
X5823571Y-9925333D01*
X5823571Y-9925333D02*
X5814048Y-9963429D01*
X5814048Y-9963429D02*
X5804524Y-9982476D01*
X5804524Y-9982476D02*
X5795000Y-9992000D01*
X5795000Y-9992000D02*
X5775952Y-10001524D01*
X5775952Y-10001524D02*
X5756905Y-10001524D01*
X5756905Y-10001524D02*
X5737857Y-9992000D01*
X5737857Y-9992000D02*
X5728333Y-9982476D01*
X5728333Y-9982476D02*
X5718809Y-9963429D01*
X5718809Y-9963429D02*
X5709286Y-9925333D01*
X5709286Y-9925333D02*
X5709286Y-9877714D01*
X5709286Y-9877714D02*
X5718809Y-9839619D01*
X5718809Y-9839619D02*
X5728333Y-9820571D01*
X5728333Y-9820571D02*
X5737857Y-9811048D01*
X5737857Y-9811048D02*
X5756905Y-9801524D01*
X5947381Y-9801524D02*
X5966429Y-9801524D01*
X5966429Y-9801524D02*
X5985476Y-9811048D01*
X5985476Y-9811048D02*
X5995000Y-9820571D01*
X5995000Y-9820571D02*
X6004524Y-9839619D01*
X6004524Y-9839619D02*
X6014048Y-9877714D01*
X6014048Y-9877714D02*
X6014048Y-9925333D01*
X6014048Y-9925333D02*
X6004524Y-9963429D01*
X6004524Y-9963429D02*
X5995000Y-9982476D01*
X5995000Y-9982476D02*
X5985476Y-9992000D01*
X5985476Y-9992000D02*
X5966429Y-10001524D01*
X5966429Y-10001524D02*
X5947381Y-10001524D01*
X5947381Y-10001524D02*
X5928333Y-9992000D01*
X5928333Y-9992000D02*
X5918809Y-9982476D01*
X5918809Y-9982476D02*
X5909286Y-9963429D01*
X5909286Y-9963429D02*
X5899762Y-9925333D01*
X5899762Y-9925333D02*
X5899762Y-9877714D01*
X5899762Y-9877714D02*
X5909286Y-9839619D01*
X5909286Y-9839619D02*
X5918809Y-9820571D01*
X5918809Y-9820571D02*
X5928333Y-9811048D01*
X5928333Y-9811048D02*
X5947381Y-9801524D01*
X6099762Y-10001524D02*
X6099762Y-9868190D01*
X6099762Y-9887238D02*
X6109286Y-9877714D01*
X6109286Y-9877714D02*
X6128333Y-9868190D01*
X6128333Y-9868190D02*
X6156905Y-9868190D01*
X6156905Y-9868190D02*
X6175952Y-9877714D01*
X6175952Y-9877714D02*
X6185476Y-9896762D01*
X6185476Y-9896762D02*
X6185476Y-10001524D01*
X6185476Y-9896762D02*
X6195000Y-9877714D01*
X6195000Y-9877714D02*
X6214048Y-9868190D01*
X6214048Y-9868190D02*
X6242619Y-9868190D01*
X6242619Y-9868190D02*
X6261667Y-9877714D01*
X6261667Y-9877714D02*
X6271190Y-9896762D01*
X6271190Y-9896762D02*
X6271190Y-10001524D01*
X6366429Y-10001524D02*
X6366429Y-9868190D01*
X6366429Y-9887238D02*
X6375952Y-9877714D01*
X6375952Y-9877714D02*
X6395000Y-9868190D01*
X6395000Y-9868190D02*
X6423571Y-9868190D01*
X6423571Y-9868190D02*
X6442619Y-9877714D01*
X6442619Y-9877714D02*
X6452143Y-9896762D01*
X6452143Y-9896762D02*
X6452143Y-10001524D01*
X6452143Y-9896762D02*
X6461667Y-9877714D01*
X6461667Y-9877714D02*
X6480714Y-9868190D01*
X6480714Y-9868190D02*
X6509286Y-9868190D01*
X6509286Y-9868190D02*
X6528333Y-9877714D01*
X6528333Y-9877714D02*
X6537857Y-9896762D01*
X6537857Y-9896762D02*
X6537857Y-10001524D01*
X6928333Y-9792000D02*
X6756905Y-10049143D01*
X7185476Y-9801524D02*
X7204524Y-9801524D01*
X7204524Y-9801524D02*
X7223572Y-9811048D01*
X7223572Y-9811048D02*
X7233095Y-9820571D01*
X7233095Y-9820571D02*
X7242619Y-9839619D01*
X7242619Y-9839619D02*
X7252143Y-9877714D01*
X7252143Y-9877714D02*
X7252143Y-9925333D01*
X7252143Y-9925333D02*
X7242619Y-9963429D01*
X7242619Y-9963429D02*
X7233095Y-9982476D01*
X7233095Y-9982476D02*
X7223572Y-9992000D01*
X7223572Y-9992000D02*
X7204524Y-10001524D01*
X7204524Y-10001524D02*
X7185476Y-10001524D01*
X7185476Y-10001524D02*
X7166429Y-9992000D01*
X7166429Y-9992000D02*
X7156905Y-9982476D01*
X7156905Y-9982476D02*
X7147381Y-9963429D01*
X7147381Y-9963429D02*
X7137857Y-9925333D01*
X7137857Y-9925333D02*
X7137857Y-9877714D01*
X7137857Y-9877714D02*
X7147381Y-9839619D01*
X7147381Y-9839619D02*
X7156905Y-9820571D01*
X7156905Y-9820571D02*
X7166429Y-9811048D01*
X7166429Y-9811048D02*
X7185476Y-9801524D01*
X7337857Y-9982476D02*
X7347381Y-9992000D01*
X7347381Y-9992000D02*
X7337857Y-10001524D01*
X7337857Y-10001524D02*
X7328333Y-9992000D01*
X7328333Y-9992000D02*
X7337857Y-9982476D01*
X7337857Y-9982476D02*
X7337857Y-10001524D01*
X7471191Y-9801524D02*
X7490238Y-9801524D01*
X7490238Y-9801524D02*
X7509286Y-9811048D01*
X7509286Y-9811048D02*
X7518810Y-9820571D01*
X7518810Y-9820571D02*
X7528333Y-9839619D01*
X7528333Y-9839619D02*
X7537857Y-9877714D01*
X7537857Y-9877714D02*
X7537857Y-9925333D01*
X7537857Y-9925333D02*
X7528333Y-9963429D01*
X7528333Y-9963429D02*
X7518810Y-9982476D01*
X7518810Y-9982476D02*
X7509286Y-9992000D01*
X7509286Y-9992000D02*
X7490238Y-10001524D01*
X7490238Y-10001524D02*
X7471191Y-10001524D01*
X7471191Y-10001524D02*
X7452143Y-9992000D01*
X7452143Y-9992000D02*
X7442619Y-9982476D01*
X7442619Y-9982476D02*
X7433095Y-9963429D01*
X7433095Y-9963429D02*
X7423572Y-9925333D01*
X7423572Y-9925333D02*
X7423572Y-9877714D01*
X7423572Y-9877714D02*
X7433095Y-9839619D01*
X7433095Y-9839619D02*
X7442619Y-9820571D01*
X7442619Y-9820571D02*
X7452143Y-9811048D01*
X7452143Y-9811048D02*
X7471191Y-9801524D01*
X7604524Y-9801524D02*
X7728333Y-9801524D01*
X7728333Y-9801524D02*
X7661667Y-9877714D01*
X7661667Y-9877714D02*
X7690238Y-9877714D01*
X7690238Y-9877714D02*
X7709286Y-9887238D01*
X7709286Y-9887238D02*
X7718810Y-9896762D01*
X7718810Y-9896762D02*
X7728333Y-9915810D01*
X7728333Y-9915810D02*
X7728333Y-9963429D01*
X7728333Y-9963429D02*
X7718810Y-9982476D01*
X7718810Y-9982476D02*
X7709286Y-9992000D01*
X7709286Y-9992000D02*
X7690238Y-10001524D01*
X7690238Y-10001524D02*
X7633095Y-10001524D01*
X7633095Y-10001524D02*
X7614048Y-9992000D01*
X7614048Y-9992000D02*
X7604524Y-9982476D01*
X7918810Y-10001524D02*
X7804524Y-10001524D01*
X7861667Y-10001524D02*
X7861667Y-9801524D01*
X7861667Y-9801524D02*
X7842619Y-9830095D01*
X7842619Y-9830095D02*
X7823572Y-9849143D01*
X7823572Y-9849143D02*
X7804524Y-9858667D01*
X8099762Y-9801524D02*
X8004524Y-9801524D01*
X8004524Y-9801524D02*
X7995000Y-9896762D01*
X7995000Y-9896762D02*
X8004524Y-9887238D01*
X8004524Y-9887238D02*
X8023572Y-9877714D01*
X8023572Y-9877714D02*
X8071191Y-9877714D01*
X8071191Y-9877714D02*
X8090238Y-9887238D01*
X8090238Y-9887238D02*
X8099762Y-9896762D01*
X8099762Y-9896762D02*
X8109286Y-9915810D01*
X8109286Y-9915810D02*
X8109286Y-9963429D01*
X8109286Y-9963429D02*
X8099762Y-9982476D01*
X8099762Y-9982476D02*
X8090238Y-9992000D01*
X8090238Y-9992000D02*
X8071191Y-10001524D01*
X8071191Y-10001524D02*
X8023572Y-10001524D01*
X8023572Y-10001524D02*
X8004524Y-9992000D01*
X8004524Y-9992000D02*
X7995000Y-9982476D01*
X8185476Y-9801524D02*
X8185476Y-9839619D01*
X8261667Y-9801524D02*
X8261667Y-9839619D01*
X8556905Y-10077714D02*
X8547381Y-10068190D01*
X8547381Y-10068190D02*
X8528334Y-10039619D01*
X8528334Y-10039619D02*
X8518810Y-10020571D01*
X8518810Y-10020571D02*
X8509286Y-9992000D01*
X8509286Y-9992000D02*
X8499762Y-9944381D01*
X8499762Y-9944381D02*
X8499762Y-9906286D01*
X8499762Y-9906286D02*
X8509286Y-9858667D01*
X8509286Y-9858667D02*
X8518810Y-9830095D01*
X8518810Y-9830095D02*
X8528334Y-9811048D01*
X8528334Y-9811048D02*
X8547381Y-9782476D01*
X8547381Y-9782476D02*
X8556905Y-9772952D01*
X8737857Y-10001524D02*
X8623572Y-10001524D01*
X8680715Y-10001524D02*
X8680715Y-9801524D01*
X8680715Y-9801524D02*
X8661667Y-9830095D01*
X8661667Y-9830095D02*
X8642619Y-9849143D01*
X8642619Y-9849143D02*
X8623572Y-9858667D01*
X8928334Y-10001524D02*
X8814048Y-10001524D01*
X8871191Y-10001524D02*
X8871191Y-9801524D01*
X8871191Y-9801524D02*
X8852143Y-9830095D01*
X8852143Y-9830095D02*
X8833096Y-9849143D01*
X8833096Y-9849143D02*
X8814048Y-9858667D01*
X9042619Y-9887238D02*
X9023572Y-9877714D01*
X9023572Y-9877714D02*
X9014048Y-9868190D01*
X9014048Y-9868190D02*
X9004524Y-9849143D01*
X9004524Y-9849143D02*
X9004524Y-9839619D01*
X9004524Y-9839619D02*
X9014048Y-9820571D01*
X9014048Y-9820571D02*
X9023572Y-9811048D01*
X9023572Y-9811048D02*
X9042619Y-9801524D01*
X9042619Y-9801524D02*
X9080715Y-9801524D01*
X9080715Y-9801524D02*
X9099762Y-9811048D01*
X9099762Y-9811048D02*
X9109286Y-9820571D01*
X9109286Y-9820571D02*
X9118810Y-9839619D01*
X9118810Y-9839619D02*
X9118810Y-9849143D01*
X9118810Y-9849143D02*
X9109286Y-9868190D01*
X9109286Y-9868190D02*
X9099762Y-9877714D01*
X9099762Y-9877714D02*
X9080715Y-9887238D01*
X9080715Y-9887238D02*
X9042619Y-9887238D01*
X9042619Y-9887238D02*
X9023572Y-9896762D01*
X9023572Y-9896762D02*
X9014048Y-9906286D01*
X9014048Y-9906286D02*
X9004524Y-9925333D01*
X9004524Y-9925333D02*
X9004524Y-9963429D01*
X9004524Y-9963429D02*
X9014048Y-9982476D01*
X9014048Y-9982476D02*
X9023572Y-9992000D01*
X9023572Y-9992000D02*
X9042619Y-10001524D01*
X9042619Y-10001524D02*
X9080715Y-10001524D01*
X9080715Y-10001524D02*
X9099762Y-9992000D01*
X9099762Y-9992000D02*
X9109286Y-9982476D01*
X9109286Y-9982476D02*
X9118810Y-9963429D01*
X9118810Y-9963429D02*
X9118810Y-9925333D01*
X9118810Y-9925333D02*
X9109286Y-9906286D01*
X9109286Y-9906286D02*
X9099762Y-9896762D01*
X9099762Y-9896762D02*
X9080715Y-9887238D01*
X9356905Y-10001524D02*
X9356905Y-9801524D01*
X9442619Y-10001524D02*
X9442619Y-9896762D01*
X9442619Y-9896762D02*
X9433096Y-9877714D01*
X9433096Y-9877714D02*
X9414048Y-9868190D01*
X9414048Y-9868190D02*
X9385477Y-9868190D01*
X9385477Y-9868190D02*
X9366429Y-9877714D01*
X9366429Y-9877714D02*
X9356905Y-9887238D01*
X9566429Y-10001524D02*
X9547381Y-9992000D01*
X9547381Y-9992000D02*
X9537858Y-9982476D01*
X9537858Y-9982476D02*
X9528334Y-9963429D01*
X9528334Y-9963429D02*
X9528334Y-9906286D01*
X9528334Y-9906286D02*
X9537858Y-9887238D01*
X9537858Y-9887238D02*
X9547381Y-9877714D01*
X9547381Y-9877714D02*
X9566429Y-9868190D01*
X9566429Y-9868190D02*
X9595000Y-9868190D01*
X9595000Y-9868190D02*
X9614048Y-9877714D01*
X9614048Y-9877714D02*
X9623572Y-9887238D01*
X9623572Y-9887238D02*
X9633096Y-9906286D01*
X9633096Y-9906286D02*
X9633096Y-9963429D01*
X9633096Y-9963429D02*
X9623572Y-9982476D01*
X9623572Y-9982476D02*
X9614048Y-9992000D01*
X9614048Y-9992000D02*
X9595000Y-10001524D01*
X9595000Y-10001524D02*
X9566429Y-10001524D01*
X9747381Y-10001524D02*
X9728334Y-9992000D01*
X9728334Y-9992000D02*
X9718810Y-9972952D01*
X9718810Y-9972952D02*
X9718810Y-9801524D01*
X9899762Y-9992000D02*
X9880715Y-10001524D01*
X9880715Y-10001524D02*
X9842619Y-10001524D01*
X9842619Y-10001524D02*
X9823572Y-9992000D01*
X9823572Y-9992000D02*
X9814048Y-9972952D01*
X9814048Y-9972952D02*
X9814048Y-9896762D01*
X9814048Y-9896762D02*
X9823572Y-9877714D01*
X9823572Y-9877714D02*
X9842619Y-9868190D01*
X9842619Y-9868190D02*
X9880715Y-9868190D01*
X9880715Y-9868190D02*
X9899762Y-9877714D01*
X9899762Y-9877714D02*
X9909286Y-9896762D01*
X9909286Y-9896762D02*
X9909286Y-9915810D01*
X9909286Y-9915810D02*
X9814048Y-9934857D01*
X9985477Y-9992000D02*
X10004524Y-10001524D01*
X10004524Y-10001524D02*
X10042619Y-10001524D01*
X10042619Y-10001524D02*
X10061667Y-9992000D01*
X10061667Y-9992000D02*
X10071191Y-9972952D01*
X10071191Y-9972952D02*
X10071191Y-9963429D01*
X10071191Y-9963429D02*
X10061667Y-9944381D01*
X10061667Y-9944381D02*
X10042619Y-9934857D01*
X10042619Y-9934857D02*
X10014048Y-9934857D01*
X10014048Y-9934857D02*
X9995000Y-9925333D01*
X9995000Y-9925333D02*
X9985477Y-9906286D01*
X9985477Y-9906286D02*
X9985477Y-9896762D01*
X9985477Y-9896762D02*
X9995000Y-9877714D01*
X9995000Y-9877714D02*
X10014048Y-9868190D01*
X10014048Y-9868190D02*
X10042619Y-9868190D01*
X10042619Y-9868190D02*
X10061667Y-9877714D01*
X10137858Y-10077714D02*
X10147381Y-10068190D01*
X10147381Y-10068190D02*
X10166429Y-10039619D01*
X10166429Y-10039619D02*
X10175953Y-10020571D01*
X10175953Y-10020571D02*
X10185477Y-9992000D01*
X10185477Y-9992000D02*
X10195000Y-9944381D01*
X10195000Y-9944381D02*
X10195000Y-9906286D01*
X10195000Y-9906286D02*
X10185477Y-9858667D01*
X10185477Y-9858667D02*
X10175953Y-9830095D01*
X10175953Y-9830095D02*
X10166429Y-9811048D01*
X10166429Y-9811048D02*
X10147381Y-9782476D01*
X10147381Y-9782476D02*
X10137858Y-9772952D01*
D10*
X4945000Y-10123000D02*
X4945000Y-10223000D01*
X4895000Y-10173000D02*
X4995000Y-10173000D01*
D11*
X5347381Y-10265524D02*
X5233095Y-10265524D01*
X5290238Y-10265524D02*
X5290238Y-10065524D01*
X5290238Y-10065524D02*
X5271190Y-10094095D01*
X5271190Y-10094095D02*
X5252143Y-10113143D01*
X5252143Y-10113143D02*
X5233095Y-10122667D01*
X5433095Y-10246476D02*
X5442619Y-10256000D01*
X5442619Y-10256000D02*
X5433095Y-10265524D01*
X5433095Y-10265524D02*
X5423571Y-10256000D01*
X5423571Y-10256000D02*
X5433095Y-10246476D01*
X5433095Y-10246476D02*
X5433095Y-10265524D01*
X5566429Y-10065524D02*
X5585476Y-10065524D01*
X5585476Y-10065524D02*
X5604524Y-10075048D01*
X5604524Y-10075048D02*
X5614048Y-10084571D01*
X5614048Y-10084571D02*
X5623571Y-10103619D01*
X5623571Y-10103619D02*
X5633095Y-10141714D01*
X5633095Y-10141714D02*
X5633095Y-10189333D01*
X5633095Y-10189333D02*
X5623571Y-10227429D01*
X5623571Y-10227429D02*
X5614048Y-10246476D01*
X5614048Y-10246476D02*
X5604524Y-10256000D01*
X5604524Y-10256000D02*
X5585476Y-10265524D01*
X5585476Y-10265524D02*
X5566429Y-10265524D01*
X5566429Y-10265524D02*
X5547381Y-10256000D01*
X5547381Y-10256000D02*
X5537857Y-10246476D01*
X5537857Y-10246476D02*
X5528333Y-10227429D01*
X5528333Y-10227429D02*
X5518810Y-10189333D01*
X5518810Y-10189333D02*
X5518810Y-10141714D01*
X5518810Y-10141714D02*
X5528333Y-10103619D01*
X5528333Y-10103619D02*
X5537857Y-10084571D01*
X5537857Y-10084571D02*
X5547381Y-10075048D01*
X5547381Y-10075048D02*
X5566429Y-10065524D01*
X5756905Y-10065524D02*
X5775952Y-10065524D01*
X5775952Y-10065524D02*
X5795000Y-10075048D01*
X5795000Y-10075048D02*
X5804524Y-10084571D01*
X5804524Y-10084571D02*
X5814048Y-10103619D01*
X5814048Y-10103619D02*
X5823571Y-10141714D01*
X5823571Y-10141714D02*
X5823571Y-10189333D01*
X5823571Y-10189333D02*
X5814048Y-10227429D01*
X5814048Y-10227429D02*
X5804524Y-10246476D01*
X5804524Y-10246476D02*
X5795000Y-10256000D01*
X5795000Y-10256000D02*
X5775952Y-10265524D01*
X5775952Y-10265524D02*
X5756905Y-10265524D01*
X5756905Y-10265524D02*
X5737857Y-10256000D01*
X5737857Y-10256000D02*
X5728333Y-10246476D01*
X5728333Y-10246476D02*
X5718809Y-10227429D01*
X5718809Y-10227429D02*
X5709286Y-10189333D01*
X5709286Y-10189333D02*
X5709286Y-10141714D01*
X5709286Y-10141714D02*
X5718809Y-10103619D01*
X5718809Y-10103619D02*
X5728333Y-10084571D01*
X5728333Y-10084571D02*
X5737857Y-10075048D01*
X5737857Y-10075048D02*
X5756905Y-10065524D01*
X5947381Y-10065524D02*
X5966429Y-10065524D01*
X5966429Y-10065524D02*
X5985476Y-10075048D01*
X5985476Y-10075048D02*
X5995000Y-10084571D01*
X5995000Y-10084571D02*
X6004524Y-10103619D01*
X6004524Y-10103619D02*
X6014048Y-10141714D01*
X6014048Y-10141714D02*
X6014048Y-10189333D01*
X6014048Y-10189333D02*
X6004524Y-10227429D01*
X6004524Y-10227429D02*
X5995000Y-10246476D01*
X5995000Y-10246476D02*
X5985476Y-10256000D01*
X5985476Y-10256000D02*
X5966429Y-10265524D01*
X5966429Y-10265524D02*
X5947381Y-10265524D01*
X5947381Y-10265524D02*
X5928333Y-10256000D01*
X5928333Y-10256000D02*
X5918809Y-10246476D01*
X5918809Y-10246476D02*
X5909286Y-10227429D01*
X5909286Y-10227429D02*
X5899762Y-10189333D01*
X5899762Y-10189333D02*
X5899762Y-10141714D01*
X5899762Y-10141714D02*
X5909286Y-10103619D01*
X5909286Y-10103619D02*
X5918809Y-10084571D01*
X5918809Y-10084571D02*
X5928333Y-10075048D01*
X5928333Y-10075048D02*
X5947381Y-10065524D01*
X6099762Y-10265524D02*
X6099762Y-10132190D01*
X6099762Y-10151238D02*
X6109286Y-10141714D01*
X6109286Y-10141714D02*
X6128333Y-10132190D01*
X6128333Y-10132190D02*
X6156905Y-10132190D01*
X6156905Y-10132190D02*
X6175952Y-10141714D01*
X6175952Y-10141714D02*
X6185476Y-10160762D01*
X6185476Y-10160762D02*
X6185476Y-10265524D01*
X6185476Y-10160762D02*
X6195000Y-10141714D01*
X6195000Y-10141714D02*
X6214048Y-10132190D01*
X6214048Y-10132190D02*
X6242619Y-10132190D01*
X6242619Y-10132190D02*
X6261667Y-10141714D01*
X6261667Y-10141714D02*
X6271190Y-10160762D01*
X6271190Y-10160762D02*
X6271190Y-10265524D01*
X6366429Y-10265524D02*
X6366429Y-10132190D01*
X6366429Y-10151238D02*
X6375952Y-10141714D01*
X6375952Y-10141714D02*
X6395000Y-10132190D01*
X6395000Y-10132190D02*
X6423571Y-10132190D01*
X6423571Y-10132190D02*
X6442619Y-10141714D01*
X6442619Y-10141714D02*
X6452143Y-10160762D01*
X6452143Y-10160762D02*
X6452143Y-10265524D01*
X6452143Y-10160762D02*
X6461667Y-10141714D01*
X6461667Y-10141714D02*
X6480714Y-10132190D01*
X6480714Y-10132190D02*
X6509286Y-10132190D01*
X6509286Y-10132190D02*
X6528333Y-10141714D01*
X6528333Y-10141714D02*
X6537857Y-10160762D01*
X6537857Y-10160762D02*
X6537857Y-10265524D01*
X6928333Y-10056000D02*
X6756905Y-10313143D01*
X7185476Y-10065524D02*
X7204524Y-10065524D01*
X7204524Y-10065524D02*
X7223572Y-10075048D01*
X7223572Y-10075048D02*
X7233095Y-10084571D01*
X7233095Y-10084571D02*
X7242619Y-10103619D01*
X7242619Y-10103619D02*
X7252143Y-10141714D01*
X7252143Y-10141714D02*
X7252143Y-10189333D01*
X7252143Y-10189333D02*
X7242619Y-10227429D01*
X7242619Y-10227429D02*
X7233095Y-10246476D01*
X7233095Y-10246476D02*
X7223572Y-10256000D01*
X7223572Y-10256000D02*
X7204524Y-10265524D01*
X7204524Y-10265524D02*
X7185476Y-10265524D01*
X7185476Y-10265524D02*
X7166429Y-10256000D01*
X7166429Y-10256000D02*
X7156905Y-10246476D01*
X7156905Y-10246476D02*
X7147381Y-10227429D01*
X7147381Y-10227429D02*
X7137857Y-10189333D01*
X7137857Y-10189333D02*
X7137857Y-10141714D01*
X7137857Y-10141714D02*
X7147381Y-10103619D01*
X7147381Y-10103619D02*
X7156905Y-10084571D01*
X7156905Y-10084571D02*
X7166429Y-10075048D01*
X7166429Y-10075048D02*
X7185476Y-10065524D01*
X7337857Y-10246476D02*
X7347381Y-10256000D01*
X7347381Y-10256000D02*
X7337857Y-10265524D01*
X7337857Y-10265524D02*
X7328333Y-10256000D01*
X7328333Y-10256000D02*
X7337857Y-10246476D01*
X7337857Y-10246476D02*
X7337857Y-10265524D01*
X7471191Y-10065524D02*
X7490238Y-10065524D01*
X7490238Y-10065524D02*
X7509286Y-10075048D01*
X7509286Y-10075048D02*
X7518810Y-10084571D01*
X7518810Y-10084571D02*
X7528333Y-10103619D01*
X7528333Y-10103619D02*
X7537857Y-10141714D01*
X7537857Y-10141714D02*
X7537857Y-10189333D01*
X7537857Y-10189333D02*
X7528333Y-10227429D01*
X7528333Y-10227429D02*
X7518810Y-10246476D01*
X7518810Y-10246476D02*
X7509286Y-10256000D01*
X7509286Y-10256000D02*
X7490238Y-10265524D01*
X7490238Y-10265524D02*
X7471191Y-10265524D01*
X7471191Y-10265524D02*
X7452143Y-10256000D01*
X7452143Y-10256000D02*
X7442619Y-10246476D01*
X7442619Y-10246476D02*
X7433095Y-10227429D01*
X7433095Y-10227429D02*
X7423572Y-10189333D01*
X7423572Y-10189333D02*
X7423572Y-10141714D01*
X7423572Y-10141714D02*
X7433095Y-10103619D01*
X7433095Y-10103619D02*
X7442619Y-10084571D01*
X7442619Y-10084571D02*
X7452143Y-10075048D01*
X7452143Y-10075048D02*
X7471191Y-10065524D01*
X7604524Y-10065524D02*
X7728333Y-10065524D01*
X7728333Y-10065524D02*
X7661667Y-10141714D01*
X7661667Y-10141714D02*
X7690238Y-10141714D01*
X7690238Y-10141714D02*
X7709286Y-10151238D01*
X7709286Y-10151238D02*
X7718810Y-10160762D01*
X7718810Y-10160762D02*
X7728333Y-10179810D01*
X7728333Y-10179810D02*
X7728333Y-10227429D01*
X7728333Y-10227429D02*
X7718810Y-10246476D01*
X7718810Y-10246476D02*
X7709286Y-10256000D01*
X7709286Y-10256000D02*
X7690238Y-10265524D01*
X7690238Y-10265524D02*
X7633095Y-10265524D01*
X7633095Y-10265524D02*
X7614048Y-10256000D01*
X7614048Y-10256000D02*
X7604524Y-10246476D01*
X7823572Y-10265524D02*
X7861667Y-10265524D01*
X7861667Y-10265524D02*
X7880714Y-10256000D01*
X7880714Y-10256000D02*
X7890238Y-10246476D01*
X7890238Y-10246476D02*
X7909286Y-10217905D01*
X7909286Y-10217905D02*
X7918810Y-10179810D01*
X7918810Y-10179810D02*
X7918810Y-10103619D01*
X7918810Y-10103619D02*
X7909286Y-10084571D01*
X7909286Y-10084571D02*
X7899762Y-10075048D01*
X7899762Y-10075048D02*
X7880714Y-10065524D01*
X7880714Y-10065524D02*
X7842619Y-10065524D01*
X7842619Y-10065524D02*
X7823572Y-10075048D01*
X7823572Y-10075048D02*
X7814048Y-10084571D01*
X7814048Y-10084571D02*
X7804524Y-10103619D01*
X7804524Y-10103619D02*
X7804524Y-10151238D01*
X7804524Y-10151238D02*
X7814048Y-10170286D01*
X7814048Y-10170286D02*
X7823572Y-10179810D01*
X7823572Y-10179810D02*
X7842619Y-10189333D01*
X7842619Y-10189333D02*
X7880714Y-10189333D01*
X7880714Y-10189333D02*
X7899762Y-10179810D01*
X7899762Y-10179810D02*
X7909286Y-10170286D01*
X7909286Y-10170286D02*
X7918810Y-10151238D01*
X8090238Y-10132190D02*
X8090238Y-10265524D01*
X8042619Y-10056000D02*
X7995000Y-10198857D01*
X7995000Y-10198857D02*
X8118810Y-10198857D01*
X8185476Y-10065524D02*
X8185476Y-10103619D01*
X8261667Y-10065524D02*
X8261667Y-10103619D01*
X8556905Y-10341714D02*
X8547381Y-10332190D01*
X8547381Y-10332190D02*
X8528334Y-10303619D01*
X8528334Y-10303619D02*
X8518810Y-10284571D01*
X8518810Y-10284571D02*
X8509286Y-10256000D01*
X8509286Y-10256000D02*
X8499762Y-10208381D01*
X8499762Y-10208381D02*
X8499762Y-10170286D01*
X8499762Y-10170286D02*
X8509286Y-10122667D01*
X8509286Y-10122667D02*
X8518810Y-10094095D01*
X8518810Y-10094095D02*
X8528334Y-10075048D01*
X8528334Y-10075048D02*
X8547381Y-10046476D01*
X8547381Y-10046476D02*
X8556905Y-10036952D01*
X8623572Y-10084571D02*
X8633096Y-10075048D01*
X8633096Y-10075048D02*
X8652143Y-10065524D01*
X8652143Y-10065524D02*
X8699762Y-10065524D01*
X8699762Y-10065524D02*
X8718810Y-10075048D01*
X8718810Y-10075048D02*
X8728334Y-10084571D01*
X8728334Y-10084571D02*
X8737857Y-10103619D01*
X8737857Y-10103619D02*
X8737857Y-10122667D01*
X8737857Y-10122667D02*
X8728334Y-10151238D01*
X8728334Y-10151238D02*
X8614048Y-10265524D01*
X8614048Y-10265524D02*
X8737857Y-10265524D01*
X8975953Y-10265524D02*
X8975953Y-10065524D01*
X9061667Y-10265524D02*
X9061667Y-10160762D01*
X9061667Y-10160762D02*
X9052143Y-10141714D01*
X9052143Y-10141714D02*
X9033096Y-10132190D01*
X9033096Y-10132190D02*
X9004524Y-10132190D01*
X9004524Y-10132190D02*
X8985477Y-10141714D01*
X8985477Y-10141714D02*
X8975953Y-10151238D01*
X9185477Y-10265524D02*
X9166429Y-10256000D01*
X9166429Y-10256000D02*
X9156905Y-10246476D01*
X9156905Y-10246476D02*
X9147381Y-10227429D01*
X9147381Y-10227429D02*
X9147381Y-10170286D01*
X9147381Y-10170286D02*
X9156905Y-10151238D01*
X9156905Y-10151238D02*
X9166429Y-10141714D01*
X9166429Y-10141714D02*
X9185477Y-10132190D01*
X9185477Y-10132190D02*
X9214048Y-10132190D01*
X9214048Y-10132190D02*
X9233096Y-10141714D01*
X9233096Y-10141714D02*
X9242619Y-10151238D01*
X9242619Y-10151238D02*
X9252143Y-10170286D01*
X9252143Y-10170286D02*
X9252143Y-10227429D01*
X9252143Y-10227429D02*
X9242619Y-10246476D01*
X9242619Y-10246476D02*
X9233096Y-10256000D01*
X9233096Y-10256000D02*
X9214048Y-10265524D01*
X9214048Y-10265524D02*
X9185477Y-10265524D01*
X9366429Y-10265524D02*
X9347381Y-10256000D01*
X9347381Y-10256000D02*
X9337858Y-10236952D01*
X9337858Y-10236952D02*
X9337858Y-10065524D01*
X9518810Y-10256000D02*
X9499762Y-10265524D01*
X9499762Y-10265524D02*
X9461667Y-10265524D01*
X9461667Y-10265524D02*
X9442619Y-10256000D01*
X9442619Y-10256000D02*
X9433096Y-10236952D01*
X9433096Y-10236952D02*
X9433096Y-10160762D01*
X9433096Y-10160762D02*
X9442619Y-10141714D01*
X9442619Y-10141714D02*
X9461667Y-10132190D01*
X9461667Y-10132190D02*
X9499762Y-10132190D01*
X9499762Y-10132190D02*
X9518810Y-10141714D01*
X9518810Y-10141714D02*
X9528334Y-10160762D01*
X9528334Y-10160762D02*
X9528334Y-10179810D01*
X9528334Y-10179810D02*
X9433096Y-10198857D01*
X9604524Y-10256000D02*
X9623572Y-10265524D01*
X9623572Y-10265524D02*
X9661667Y-10265524D01*
X9661667Y-10265524D02*
X9680715Y-10256000D01*
X9680715Y-10256000D02*
X9690239Y-10236952D01*
X9690239Y-10236952D02*
X9690239Y-10227429D01*
X9690239Y-10227429D02*
X9680715Y-10208381D01*
X9680715Y-10208381D02*
X9661667Y-10198857D01*
X9661667Y-10198857D02*
X9633096Y-10198857D01*
X9633096Y-10198857D02*
X9614048Y-10189333D01*
X9614048Y-10189333D02*
X9604524Y-10170286D01*
X9604524Y-10170286D02*
X9604524Y-10160762D01*
X9604524Y-10160762D02*
X9614048Y-10141714D01*
X9614048Y-10141714D02*
X9633096Y-10132190D01*
X9633096Y-10132190D02*
X9661667Y-10132190D01*
X9661667Y-10132190D02*
X9680715Y-10141714D01*
X9756905Y-10341714D02*
X9766429Y-10332190D01*
X9766429Y-10332190D02*
X9785477Y-10303619D01*
X9785477Y-10303619D02*
X9795000Y-10284571D01*
X9795000Y-10284571D02*
X9804524Y-10256000D01*
X9804524Y-10256000D02*
X9814048Y-10208381D01*
X9814048Y-10208381D02*
X9814048Y-10170286D01*
X9814048Y-10170286D02*
X9804524Y-10122667D01*
X9804524Y-10122667D02*
X9795000Y-10094095D01*
X9795000Y-10094095D02*
X9785477Y-10075048D01*
X9785477Y-10075048D02*
X9766429Y-10046476D01*
X9766429Y-10046476D02*
X9756905Y-10036952D01*
D10*
X4980356Y-10472356D02*
X4980356Y-10401644D01*
X4909644Y-10401644D01*
X4909644Y-10472356D01*
X4980356Y-10472356D01*
D11*
X5347381Y-10529524D02*
X5233095Y-10529524D01*
X5290238Y-10529524D02*
X5290238Y-10329524D01*
X5290238Y-10329524D02*
X5271190Y-10358095D01*
X5271190Y-10358095D02*
X5252143Y-10377143D01*
X5252143Y-10377143D02*
X5233095Y-10386667D01*
X5433095Y-10510476D02*
X5442619Y-10520000D01*
X5442619Y-10520000D02*
X5433095Y-10529524D01*
X5433095Y-10529524D02*
X5423571Y-10520000D01*
X5423571Y-10520000D02*
X5433095Y-10510476D01*
X5433095Y-10510476D02*
X5433095Y-10529524D01*
X5566429Y-10329524D02*
X5585476Y-10329524D01*
X5585476Y-10329524D02*
X5604524Y-10339048D01*
X5604524Y-10339048D02*
X5614048Y-10348571D01*
X5614048Y-10348571D02*
X5623571Y-10367619D01*
X5623571Y-10367619D02*
X5633095Y-10405714D01*
X5633095Y-10405714D02*
X5633095Y-10453333D01*
X5633095Y-10453333D02*
X5623571Y-10491429D01*
X5623571Y-10491429D02*
X5614048Y-10510476D01*
X5614048Y-10510476D02*
X5604524Y-10520000D01*
X5604524Y-10520000D02*
X5585476Y-10529524D01*
X5585476Y-10529524D02*
X5566429Y-10529524D01*
X5566429Y-10529524D02*
X5547381Y-10520000D01*
X5547381Y-10520000D02*
X5537857Y-10510476D01*
X5537857Y-10510476D02*
X5528333Y-10491429D01*
X5528333Y-10491429D02*
X5518810Y-10453333D01*
X5518810Y-10453333D02*
X5518810Y-10405714D01*
X5518810Y-10405714D02*
X5528333Y-10367619D01*
X5528333Y-10367619D02*
X5537857Y-10348571D01*
X5537857Y-10348571D02*
X5547381Y-10339048D01*
X5547381Y-10339048D02*
X5566429Y-10329524D01*
X5756905Y-10329524D02*
X5775952Y-10329524D01*
X5775952Y-10329524D02*
X5795000Y-10339048D01*
X5795000Y-10339048D02*
X5804524Y-10348571D01*
X5804524Y-10348571D02*
X5814048Y-10367619D01*
X5814048Y-10367619D02*
X5823571Y-10405714D01*
X5823571Y-10405714D02*
X5823571Y-10453333D01*
X5823571Y-10453333D02*
X5814048Y-10491429D01*
X5814048Y-10491429D02*
X5804524Y-10510476D01*
X5804524Y-10510476D02*
X5795000Y-10520000D01*
X5795000Y-10520000D02*
X5775952Y-10529524D01*
X5775952Y-10529524D02*
X5756905Y-10529524D01*
X5756905Y-10529524D02*
X5737857Y-10520000D01*
X5737857Y-10520000D02*
X5728333Y-10510476D01*
X5728333Y-10510476D02*
X5718809Y-10491429D01*
X5718809Y-10491429D02*
X5709286Y-10453333D01*
X5709286Y-10453333D02*
X5709286Y-10405714D01*
X5709286Y-10405714D02*
X5718809Y-10367619D01*
X5718809Y-10367619D02*
X5728333Y-10348571D01*
X5728333Y-10348571D02*
X5737857Y-10339048D01*
X5737857Y-10339048D02*
X5756905Y-10329524D01*
X5947381Y-10329524D02*
X5966429Y-10329524D01*
X5966429Y-10329524D02*
X5985476Y-10339048D01*
X5985476Y-10339048D02*
X5995000Y-10348571D01*
X5995000Y-10348571D02*
X6004524Y-10367619D01*
X6004524Y-10367619D02*
X6014048Y-10405714D01*
X6014048Y-10405714D02*
X6014048Y-10453333D01*
X6014048Y-10453333D02*
X6004524Y-10491429D01*
X6004524Y-10491429D02*
X5995000Y-10510476D01*
X5995000Y-10510476D02*
X5985476Y-10520000D01*
X5985476Y-10520000D02*
X5966429Y-10529524D01*
X5966429Y-10529524D02*
X5947381Y-10529524D01*
X5947381Y-10529524D02*
X5928333Y-10520000D01*
X5928333Y-10520000D02*
X5918809Y-10510476D01*
X5918809Y-10510476D02*
X5909286Y-10491429D01*
X5909286Y-10491429D02*
X5899762Y-10453333D01*
X5899762Y-10453333D02*
X5899762Y-10405714D01*
X5899762Y-10405714D02*
X5909286Y-10367619D01*
X5909286Y-10367619D02*
X5918809Y-10348571D01*
X5918809Y-10348571D02*
X5928333Y-10339048D01*
X5928333Y-10339048D02*
X5947381Y-10329524D01*
X6099762Y-10529524D02*
X6099762Y-10396190D01*
X6099762Y-10415238D02*
X6109286Y-10405714D01*
X6109286Y-10405714D02*
X6128333Y-10396190D01*
X6128333Y-10396190D02*
X6156905Y-10396190D01*
X6156905Y-10396190D02*
X6175952Y-10405714D01*
X6175952Y-10405714D02*
X6185476Y-10424762D01*
X6185476Y-10424762D02*
X6185476Y-10529524D01*
X6185476Y-10424762D02*
X6195000Y-10405714D01*
X6195000Y-10405714D02*
X6214048Y-10396190D01*
X6214048Y-10396190D02*
X6242619Y-10396190D01*
X6242619Y-10396190D02*
X6261667Y-10405714D01*
X6261667Y-10405714D02*
X6271190Y-10424762D01*
X6271190Y-10424762D02*
X6271190Y-10529524D01*
X6366429Y-10529524D02*
X6366429Y-10396190D01*
X6366429Y-10415238D02*
X6375952Y-10405714D01*
X6375952Y-10405714D02*
X6395000Y-10396190D01*
X6395000Y-10396190D02*
X6423571Y-10396190D01*
X6423571Y-10396190D02*
X6442619Y-10405714D01*
X6442619Y-10405714D02*
X6452143Y-10424762D01*
X6452143Y-10424762D02*
X6452143Y-10529524D01*
X6452143Y-10424762D02*
X6461667Y-10405714D01*
X6461667Y-10405714D02*
X6480714Y-10396190D01*
X6480714Y-10396190D02*
X6509286Y-10396190D01*
X6509286Y-10396190D02*
X6528333Y-10405714D01*
X6528333Y-10405714D02*
X6537857Y-10424762D01*
X6537857Y-10424762D02*
X6537857Y-10529524D01*
X6928333Y-10320000D02*
X6756905Y-10577143D01*
X7185476Y-10329524D02*
X7204524Y-10329524D01*
X7204524Y-10329524D02*
X7223572Y-10339048D01*
X7223572Y-10339048D02*
X7233095Y-10348571D01*
X7233095Y-10348571D02*
X7242619Y-10367619D01*
X7242619Y-10367619D02*
X7252143Y-10405714D01*
X7252143Y-10405714D02*
X7252143Y-10453333D01*
X7252143Y-10453333D02*
X7242619Y-10491429D01*
X7242619Y-10491429D02*
X7233095Y-10510476D01*
X7233095Y-10510476D02*
X7223572Y-10520000D01*
X7223572Y-10520000D02*
X7204524Y-10529524D01*
X7204524Y-10529524D02*
X7185476Y-10529524D01*
X7185476Y-10529524D02*
X7166429Y-10520000D01*
X7166429Y-10520000D02*
X7156905Y-10510476D01*
X7156905Y-10510476D02*
X7147381Y-10491429D01*
X7147381Y-10491429D02*
X7137857Y-10453333D01*
X7137857Y-10453333D02*
X7137857Y-10405714D01*
X7137857Y-10405714D02*
X7147381Y-10367619D01*
X7147381Y-10367619D02*
X7156905Y-10348571D01*
X7156905Y-10348571D02*
X7166429Y-10339048D01*
X7166429Y-10339048D02*
X7185476Y-10329524D01*
X7337857Y-10510476D02*
X7347381Y-10520000D01*
X7347381Y-10520000D02*
X7337857Y-10529524D01*
X7337857Y-10529524D02*
X7328333Y-10520000D01*
X7328333Y-10520000D02*
X7337857Y-10510476D01*
X7337857Y-10510476D02*
X7337857Y-10529524D01*
X7471191Y-10329524D02*
X7490238Y-10329524D01*
X7490238Y-10329524D02*
X7509286Y-10339048D01*
X7509286Y-10339048D02*
X7518810Y-10348571D01*
X7518810Y-10348571D02*
X7528333Y-10367619D01*
X7528333Y-10367619D02*
X7537857Y-10405714D01*
X7537857Y-10405714D02*
X7537857Y-10453333D01*
X7537857Y-10453333D02*
X7528333Y-10491429D01*
X7528333Y-10491429D02*
X7518810Y-10510476D01*
X7518810Y-10510476D02*
X7509286Y-10520000D01*
X7509286Y-10520000D02*
X7490238Y-10529524D01*
X7490238Y-10529524D02*
X7471191Y-10529524D01*
X7471191Y-10529524D02*
X7452143Y-10520000D01*
X7452143Y-10520000D02*
X7442619Y-10510476D01*
X7442619Y-10510476D02*
X7433095Y-10491429D01*
X7433095Y-10491429D02*
X7423572Y-10453333D01*
X7423572Y-10453333D02*
X7423572Y-10405714D01*
X7423572Y-10405714D02*
X7433095Y-10367619D01*
X7433095Y-10367619D02*
X7442619Y-10348571D01*
X7442619Y-10348571D02*
X7452143Y-10339048D01*
X7452143Y-10339048D02*
X7471191Y-10329524D01*
X7604524Y-10329524D02*
X7728333Y-10329524D01*
X7728333Y-10329524D02*
X7661667Y-10405714D01*
X7661667Y-10405714D02*
X7690238Y-10405714D01*
X7690238Y-10405714D02*
X7709286Y-10415238D01*
X7709286Y-10415238D02*
X7718810Y-10424762D01*
X7718810Y-10424762D02*
X7728333Y-10443810D01*
X7728333Y-10443810D02*
X7728333Y-10491429D01*
X7728333Y-10491429D02*
X7718810Y-10510476D01*
X7718810Y-10510476D02*
X7709286Y-10520000D01*
X7709286Y-10520000D02*
X7690238Y-10529524D01*
X7690238Y-10529524D02*
X7633095Y-10529524D01*
X7633095Y-10529524D02*
X7614048Y-10520000D01*
X7614048Y-10520000D02*
X7604524Y-10510476D01*
X7823572Y-10529524D02*
X7861667Y-10529524D01*
X7861667Y-10529524D02*
X7880714Y-10520000D01*
X7880714Y-10520000D02*
X7890238Y-10510476D01*
X7890238Y-10510476D02*
X7909286Y-10481905D01*
X7909286Y-10481905D02*
X7918810Y-10443810D01*
X7918810Y-10443810D02*
X7918810Y-10367619D01*
X7918810Y-10367619D02*
X7909286Y-10348571D01*
X7909286Y-10348571D02*
X7899762Y-10339048D01*
X7899762Y-10339048D02*
X7880714Y-10329524D01*
X7880714Y-10329524D02*
X7842619Y-10329524D01*
X7842619Y-10329524D02*
X7823572Y-10339048D01*
X7823572Y-10339048D02*
X7814048Y-10348571D01*
X7814048Y-10348571D02*
X7804524Y-10367619D01*
X7804524Y-10367619D02*
X7804524Y-10415238D01*
X7804524Y-10415238D02*
X7814048Y-10434286D01*
X7814048Y-10434286D02*
X7823572Y-10443810D01*
X7823572Y-10443810D02*
X7842619Y-10453333D01*
X7842619Y-10453333D02*
X7880714Y-10453333D01*
X7880714Y-10453333D02*
X7899762Y-10443810D01*
X7899762Y-10443810D02*
X7909286Y-10434286D01*
X7909286Y-10434286D02*
X7918810Y-10415238D01*
X8090238Y-10396190D02*
X8090238Y-10529524D01*
X8042619Y-10320000D02*
X7995000Y-10462857D01*
X7995000Y-10462857D02*
X8118810Y-10462857D01*
X8185476Y-10329524D02*
X8185476Y-10367619D01*
X8261667Y-10329524D02*
X8261667Y-10367619D01*
X8556905Y-10605714D02*
X8547381Y-10596190D01*
X8547381Y-10596190D02*
X8528334Y-10567619D01*
X8528334Y-10567619D02*
X8518810Y-10548571D01*
X8518810Y-10548571D02*
X8509286Y-10520000D01*
X8509286Y-10520000D02*
X8499762Y-10472381D01*
X8499762Y-10472381D02*
X8499762Y-10434286D01*
X8499762Y-10434286D02*
X8509286Y-10386667D01*
X8509286Y-10386667D02*
X8518810Y-10358095D01*
X8518810Y-10358095D02*
X8528334Y-10339048D01*
X8528334Y-10339048D02*
X8547381Y-10310476D01*
X8547381Y-10310476D02*
X8556905Y-10300952D01*
X8718810Y-10396190D02*
X8718810Y-10529524D01*
X8671191Y-10320000D02*
X8623572Y-10462857D01*
X8623572Y-10462857D02*
X8747381Y-10462857D01*
X8975953Y-10529524D02*
X8975953Y-10329524D01*
X9061667Y-10529524D02*
X9061667Y-10424762D01*
X9061667Y-10424762D02*
X9052143Y-10405714D01*
X9052143Y-10405714D02*
X9033096Y-10396190D01*
X9033096Y-10396190D02*
X9004524Y-10396190D01*
X9004524Y-10396190D02*
X8985477Y-10405714D01*
X8985477Y-10405714D02*
X8975953Y-10415238D01*
X9185477Y-10529524D02*
X9166429Y-10520000D01*
X9166429Y-10520000D02*
X9156905Y-10510476D01*
X9156905Y-10510476D02*
X9147381Y-10491429D01*
X9147381Y-10491429D02*
X9147381Y-10434286D01*
X9147381Y-10434286D02*
X9156905Y-10415238D01*
X9156905Y-10415238D02*
X9166429Y-10405714D01*
X9166429Y-10405714D02*
X9185477Y-10396190D01*
X9185477Y-10396190D02*
X9214048Y-10396190D01*
X9214048Y-10396190D02*
X9233096Y-10405714D01*
X9233096Y-10405714D02*
X9242619Y-10415238D01*
X9242619Y-10415238D02*
X9252143Y-10434286D01*
X9252143Y-10434286D02*
X9252143Y-10491429D01*
X9252143Y-10491429D02*
X9242619Y-10510476D01*
X9242619Y-10510476D02*
X9233096Y-10520000D01*
X9233096Y-10520000D02*
X9214048Y-10529524D01*
X9214048Y-10529524D02*
X9185477Y-10529524D01*
X9366429Y-10529524D02*
X9347381Y-10520000D01*
X9347381Y-10520000D02*
X9337858Y-10500952D01*
X9337858Y-10500952D02*
X9337858Y-10329524D01*
X9518810Y-10520000D02*
X9499762Y-10529524D01*
X9499762Y-10529524D02*
X9461667Y-10529524D01*
X9461667Y-10529524D02*
X9442619Y-10520000D01*
X9442619Y-10520000D02*
X9433096Y-10500952D01*
X9433096Y-10500952D02*
X9433096Y-10424762D01*
X9433096Y-10424762D02*
X9442619Y-10405714D01*
X9442619Y-10405714D02*
X9461667Y-10396190D01*
X9461667Y-10396190D02*
X9499762Y-10396190D01*
X9499762Y-10396190D02*
X9518810Y-10405714D01*
X9518810Y-10405714D02*
X9528334Y-10424762D01*
X9528334Y-10424762D02*
X9528334Y-10443810D01*
X9528334Y-10443810D02*
X9433096Y-10462857D01*
X9604524Y-10520000D02*
X9623572Y-10529524D01*
X9623572Y-10529524D02*
X9661667Y-10529524D01*
X9661667Y-10529524D02*
X9680715Y-10520000D01*
X9680715Y-10520000D02*
X9690239Y-10500952D01*
X9690239Y-10500952D02*
X9690239Y-10491429D01*
X9690239Y-10491429D02*
X9680715Y-10472381D01*
X9680715Y-10472381D02*
X9661667Y-10462857D01*
X9661667Y-10462857D02*
X9633096Y-10462857D01*
X9633096Y-10462857D02*
X9614048Y-10453333D01*
X9614048Y-10453333D02*
X9604524Y-10434286D01*
X9604524Y-10434286D02*
X9604524Y-10424762D01*
X9604524Y-10424762D02*
X9614048Y-10405714D01*
X9614048Y-10405714D02*
X9633096Y-10396190D01*
X9633096Y-10396190D02*
X9661667Y-10396190D01*
X9661667Y-10396190D02*
X9680715Y-10405714D01*
X9928334Y-10453333D02*
X10080715Y-10453333D01*
X10004524Y-10529524D02*
X10004524Y-10377143D01*
X10414048Y-10396190D02*
X10414048Y-10529524D01*
X10366429Y-10320000D02*
X10318810Y-10462857D01*
X10318810Y-10462857D02*
X10442620Y-10462857D01*
X10661667Y-10520000D02*
X10680715Y-10529524D01*
X10680715Y-10529524D02*
X10718810Y-10529524D01*
X10718810Y-10529524D02*
X10737858Y-10520000D01*
X10737858Y-10520000D02*
X10747382Y-10500952D01*
X10747382Y-10500952D02*
X10747382Y-10491429D01*
X10747382Y-10491429D02*
X10737858Y-10472381D01*
X10737858Y-10472381D02*
X10718810Y-10462857D01*
X10718810Y-10462857D02*
X10690239Y-10462857D01*
X10690239Y-10462857D02*
X10671191Y-10453333D01*
X10671191Y-10453333D02*
X10661667Y-10434286D01*
X10661667Y-10434286D02*
X10661667Y-10424762D01*
X10661667Y-10424762D02*
X10671191Y-10405714D01*
X10671191Y-10405714D02*
X10690239Y-10396190D01*
X10690239Y-10396190D02*
X10718810Y-10396190D01*
X10718810Y-10396190D02*
X10737858Y-10405714D01*
X10861667Y-10529524D02*
X10842620Y-10520000D01*
X10842620Y-10520000D02*
X10833096Y-10500952D01*
X10833096Y-10500952D02*
X10833096Y-10329524D01*
X10966429Y-10529524D02*
X10947382Y-10520000D01*
X10947382Y-10520000D02*
X10937858Y-10510476D01*
X10937858Y-10510476D02*
X10928334Y-10491429D01*
X10928334Y-10491429D02*
X10928334Y-10434286D01*
X10928334Y-10434286D02*
X10937858Y-10415238D01*
X10937858Y-10415238D02*
X10947382Y-10405714D01*
X10947382Y-10405714D02*
X10966429Y-10396190D01*
X10966429Y-10396190D02*
X10995001Y-10396190D01*
X10995001Y-10396190D02*
X11014048Y-10405714D01*
X11014048Y-10405714D02*
X11023572Y-10415238D01*
X11023572Y-10415238D02*
X11033096Y-10434286D01*
X11033096Y-10434286D02*
X11033096Y-10491429D01*
X11033096Y-10491429D02*
X11023572Y-10510476D01*
X11023572Y-10510476D02*
X11014048Y-10520000D01*
X11014048Y-10520000D02*
X10995001Y-10529524D01*
X10995001Y-10529524D02*
X10966429Y-10529524D01*
X11090239Y-10396190D02*
X11166429Y-10396190D01*
X11118810Y-10329524D02*
X11118810Y-10500952D01*
X11118810Y-10500952D02*
X11128334Y-10520000D01*
X11128334Y-10520000D02*
X11147382Y-10529524D01*
X11147382Y-10529524D02*
X11166429Y-10529524D01*
X11223572Y-10520000D02*
X11242620Y-10529524D01*
X11242620Y-10529524D02*
X11280715Y-10529524D01*
X11280715Y-10529524D02*
X11299762Y-10520000D01*
X11299762Y-10520000D02*
X11309286Y-10500952D01*
X11309286Y-10500952D02*
X11309286Y-10491429D01*
X11309286Y-10491429D02*
X11299762Y-10472381D01*
X11299762Y-10472381D02*
X11280715Y-10462857D01*
X11280715Y-10462857D02*
X11252143Y-10462857D01*
X11252143Y-10462857D02*
X11233096Y-10453333D01*
X11233096Y-10453333D02*
X11223572Y-10434286D01*
X11223572Y-10434286D02*
X11223572Y-10424762D01*
X11223572Y-10424762D02*
X11233096Y-10405714D01*
X11233096Y-10405714D02*
X11252143Y-10396190D01*
X11252143Y-10396190D02*
X11280715Y-10396190D01*
X11280715Y-10396190D02*
X11299762Y-10405714D01*
X11375953Y-10605714D02*
X11385477Y-10596190D01*
X11385477Y-10596190D02*
X11404524Y-10567619D01*
X11404524Y-10567619D02*
X11414048Y-10548571D01*
X11414048Y-10548571D02*
X11423572Y-10520000D01*
X11423572Y-10520000D02*
X11433096Y-10472381D01*
X11433096Y-10472381D02*
X11433096Y-10434286D01*
X11433096Y-10434286D02*
X11423572Y-10386667D01*
X11423572Y-10386667D02*
X11414048Y-10358095D01*
X11414048Y-10358095D02*
X11404524Y-10339048D01*
X11404524Y-10339048D02*
X11385477Y-10310476D01*
X11385477Y-10310476D02*
X11375953Y-10300952D01*
D14*
X4930000Y-10766000D02*
X4995000Y-10701000D01*
X4930000Y-10636000D01*
X4865000Y-10701000D01*
X4930000Y-10766000D01*
D11*
X5347381Y-10793524D02*
X5233095Y-10793524D01*
X5290238Y-10793524D02*
X5290238Y-10593524D01*
X5290238Y-10593524D02*
X5271190Y-10622095D01*
X5271190Y-10622095D02*
X5252143Y-10641143D01*
X5252143Y-10641143D02*
X5233095Y-10650667D01*
X5433095Y-10774476D02*
X5442619Y-10784000D01*
X5442619Y-10784000D02*
X5433095Y-10793524D01*
X5433095Y-10793524D02*
X5423571Y-10784000D01*
X5423571Y-10784000D02*
X5433095Y-10774476D01*
X5433095Y-10774476D02*
X5433095Y-10793524D01*
X5509286Y-10593524D02*
X5633095Y-10593524D01*
X5633095Y-10593524D02*
X5566429Y-10669714D01*
X5566429Y-10669714D02*
X5595000Y-10669714D01*
X5595000Y-10669714D02*
X5614048Y-10679238D01*
X5614048Y-10679238D02*
X5623571Y-10688762D01*
X5623571Y-10688762D02*
X5633095Y-10707810D01*
X5633095Y-10707810D02*
X5633095Y-10755429D01*
X5633095Y-10755429D02*
X5623571Y-10774476D01*
X5623571Y-10774476D02*
X5614048Y-10784000D01*
X5614048Y-10784000D02*
X5595000Y-10793524D01*
X5595000Y-10793524D02*
X5537857Y-10793524D01*
X5537857Y-10793524D02*
X5518810Y-10784000D01*
X5518810Y-10784000D02*
X5509286Y-10774476D01*
X5756905Y-10593524D02*
X5775952Y-10593524D01*
X5775952Y-10593524D02*
X5795000Y-10603048D01*
X5795000Y-10603048D02*
X5804524Y-10612571D01*
X5804524Y-10612571D02*
X5814048Y-10631619D01*
X5814048Y-10631619D02*
X5823571Y-10669714D01*
X5823571Y-10669714D02*
X5823571Y-10717333D01*
X5823571Y-10717333D02*
X5814048Y-10755429D01*
X5814048Y-10755429D02*
X5804524Y-10774476D01*
X5804524Y-10774476D02*
X5795000Y-10784000D01*
X5795000Y-10784000D02*
X5775952Y-10793524D01*
X5775952Y-10793524D02*
X5756905Y-10793524D01*
X5756905Y-10793524D02*
X5737857Y-10784000D01*
X5737857Y-10784000D02*
X5728333Y-10774476D01*
X5728333Y-10774476D02*
X5718809Y-10755429D01*
X5718809Y-10755429D02*
X5709286Y-10717333D01*
X5709286Y-10717333D02*
X5709286Y-10669714D01*
X5709286Y-10669714D02*
X5718809Y-10631619D01*
X5718809Y-10631619D02*
X5728333Y-10612571D01*
X5728333Y-10612571D02*
X5737857Y-10603048D01*
X5737857Y-10603048D02*
X5756905Y-10593524D01*
X5947381Y-10593524D02*
X5966429Y-10593524D01*
X5966429Y-10593524D02*
X5985476Y-10603048D01*
X5985476Y-10603048D02*
X5995000Y-10612571D01*
X5995000Y-10612571D02*
X6004524Y-10631619D01*
X6004524Y-10631619D02*
X6014048Y-10669714D01*
X6014048Y-10669714D02*
X6014048Y-10717333D01*
X6014048Y-10717333D02*
X6004524Y-10755429D01*
X6004524Y-10755429D02*
X5995000Y-10774476D01*
X5995000Y-10774476D02*
X5985476Y-10784000D01*
X5985476Y-10784000D02*
X5966429Y-10793524D01*
X5966429Y-10793524D02*
X5947381Y-10793524D01*
X5947381Y-10793524D02*
X5928333Y-10784000D01*
X5928333Y-10784000D02*
X5918809Y-10774476D01*
X5918809Y-10774476D02*
X5909286Y-10755429D01*
X5909286Y-10755429D02*
X5899762Y-10717333D01*
X5899762Y-10717333D02*
X5899762Y-10669714D01*
X5899762Y-10669714D02*
X5909286Y-10631619D01*
X5909286Y-10631619D02*
X5918809Y-10612571D01*
X5918809Y-10612571D02*
X5928333Y-10603048D01*
X5928333Y-10603048D02*
X5947381Y-10593524D01*
X6099762Y-10793524D02*
X6099762Y-10660190D01*
X6099762Y-10679238D02*
X6109286Y-10669714D01*
X6109286Y-10669714D02*
X6128333Y-10660190D01*
X6128333Y-10660190D02*
X6156905Y-10660190D01*
X6156905Y-10660190D02*
X6175952Y-10669714D01*
X6175952Y-10669714D02*
X6185476Y-10688762D01*
X6185476Y-10688762D02*
X6185476Y-10793524D01*
X6185476Y-10688762D02*
X6195000Y-10669714D01*
X6195000Y-10669714D02*
X6214048Y-10660190D01*
X6214048Y-10660190D02*
X6242619Y-10660190D01*
X6242619Y-10660190D02*
X6261667Y-10669714D01*
X6261667Y-10669714D02*
X6271190Y-10688762D01*
X6271190Y-10688762D02*
X6271190Y-10793524D01*
X6366429Y-10793524D02*
X6366429Y-10660190D01*
X6366429Y-10679238D02*
X6375952Y-10669714D01*
X6375952Y-10669714D02*
X6395000Y-10660190D01*
X6395000Y-10660190D02*
X6423571Y-10660190D01*
X6423571Y-10660190D02*
X6442619Y-10669714D01*
X6442619Y-10669714D02*
X6452143Y-10688762D01*
X6452143Y-10688762D02*
X6452143Y-10793524D01*
X6452143Y-10688762D02*
X6461667Y-10669714D01*
X6461667Y-10669714D02*
X6480714Y-10660190D01*
X6480714Y-10660190D02*
X6509286Y-10660190D01*
X6509286Y-10660190D02*
X6528333Y-10669714D01*
X6528333Y-10669714D02*
X6537857Y-10688762D01*
X6537857Y-10688762D02*
X6537857Y-10793524D01*
X6928333Y-10584000D02*
X6756905Y-10841143D01*
X7185476Y-10593524D02*
X7204524Y-10593524D01*
X7204524Y-10593524D02*
X7223572Y-10603048D01*
X7223572Y-10603048D02*
X7233095Y-10612571D01*
X7233095Y-10612571D02*
X7242619Y-10631619D01*
X7242619Y-10631619D02*
X7252143Y-10669714D01*
X7252143Y-10669714D02*
X7252143Y-10717333D01*
X7252143Y-10717333D02*
X7242619Y-10755429D01*
X7242619Y-10755429D02*
X7233095Y-10774476D01*
X7233095Y-10774476D02*
X7223572Y-10784000D01*
X7223572Y-10784000D02*
X7204524Y-10793524D01*
X7204524Y-10793524D02*
X7185476Y-10793524D01*
X7185476Y-10793524D02*
X7166429Y-10784000D01*
X7166429Y-10784000D02*
X7156905Y-10774476D01*
X7156905Y-10774476D02*
X7147381Y-10755429D01*
X7147381Y-10755429D02*
X7137857Y-10717333D01*
X7137857Y-10717333D02*
X7137857Y-10669714D01*
X7137857Y-10669714D02*
X7147381Y-10631619D01*
X7147381Y-10631619D02*
X7156905Y-10612571D01*
X7156905Y-10612571D02*
X7166429Y-10603048D01*
X7166429Y-10603048D02*
X7185476Y-10593524D01*
X7337857Y-10774476D02*
X7347381Y-10784000D01*
X7347381Y-10784000D02*
X7337857Y-10793524D01*
X7337857Y-10793524D02*
X7328333Y-10784000D01*
X7328333Y-10784000D02*
X7337857Y-10774476D01*
X7337857Y-10774476D02*
X7337857Y-10793524D01*
X7471191Y-10593524D02*
X7490238Y-10593524D01*
X7490238Y-10593524D02*
X7509286Y-10603048D01*
X7509286Y-10603048D02*
X7518810Y-10612571D01*
X7518810Y-10612571D02*
X7528333Y-10631619D01*
X7528333Y-10631619D02*
X7537857Y-10669714D01*
X7537857Y-10669714D02*
X7537857Y-10717333D01*
X7537857Y-10717333D02*
X7528333Y-10755429D01*
X7528333Y-10755429D02*
X7518810Y-10774476D01*
X7518810Y-10774476D02*
X7509286Y-10784000D01*
X7509286Y-10784000D02*
X7490238Y-10793524D01*
X7490238Y-10793524D02*
X7471191Y-10793524D01*
X7471191Y-10793524D02*
X7452143Y-10784000D01*
X7452143Y-10784000D02*
X7442619Y-10774476D01*
X7442619Y-10774476D02*
X7433095Y-10755429D01*
X7433095Y-10755429D02*
X7423572Y-10717333D01*
X7423572Y-10717333D02*
X7423572Y-10669714D01*
X7423572Y-10669714D02*
X7433095Y-10631619D01*
X7433095Y-10631619D02*
X7442619Y-10612571D01*
X7442619Y-10612571D02*
X7452143Y-10603048D01*
X7452143Y-10603048D02*
X7471191Y-10593524D01*
X7718810Y-10593524D02*
X7623572Y-10593524D01*
X7623572Y-10593524D02*
X7614048Y-10688762D01*
X7614048Y-10688762D02*
X7623572Y-10679238D01*
X7623572Y-10679238D02*
X7642619Y-10669714D01*
X7642619Y-10669714D02*
X7690238Y-10669714D01*
X7690238Y-10669714D02*
X7709286Y-10679238D01*
X7709286Y-10679238D02*
X7718810Y-10688762D01*
X7718810Y-10688762D02*
X7728333Y-10707810D01*
X7728333Y-10707810D02*
X7728333Y-10755429D01*
X7728333Y-10755429D02*
X7718810Y-10774476D01*
X7718810Y-10774476D02*
X7709286Y-10784000D01*
X7709286Y-10784000D02*
X7690238Y-10793524D01*
X7690238Y-10793524D02*
X7642619Y-10793524D01*
X7642619Y-10793524D02*
X7623572Y-10784000D01*
X7623572Y-10784000D02*
X7614048Y-10774476D01*
X7918810Y-10793524D02*
X7804524Y-10793524D01*
X7861667Y-10793524D02*
X7861667Y-10593524D01*
X7861667Y-10593524D02*
X7842619Y-10622095D01*
X7842619Y-10622095D02*
X7823572Y-10641143D01*
X7823572Y-10641143D02*
X7804524Y-10650667D01*
X7995000Y-10612571D02*
X8004524Y-10603048D01*
X8004524Y-10603048D02*
X8023572Y-10593524D01*
X8023572Y-10593524D02*
X8071191Y-10593524D01*
X8071191Y-10593524D02*
X8090238Y-10603048D01*
X8090238Y-10603048D02*
X8099762Y-10612571D01*
X8099762Y-10612571D02*
X8109286Y-10631619D01*
X8109286Y-10631619D02*
X8109286Y-10650667D01*
X8109286Y-10650667D02*
X8099762Y-10679238D01*
X8099762Y-10679238D02*
X7985476Y-10793524D01*
X7985476Y-10793524D02*
X8109286Y-10793524D01*
X8185476Y-10593524D02*
X8185476Y-10631619D01*
X8261667Y-10593524D02*
X8261667Y-10631619D01*
X8556905Y-10869714D02*
X8547381Y-10860190D01*
X8547381Y-10860190D02*
X8528334Y-10831619D01*
X8528334Y-10831619D02*
X8518810Y-10812571D01*
X8518810Y-10812571D02*
X8509286Y-10784000D01*
X8509286Y-10784000D02*
X8499762Y-10736381D01*
X8499762Y-10736381D02*
X8499762Y-10698286D01*
X8499762Y-10698286D02*
X8509286Y-10650667D01*
X8509286Y-10650667D02*
X8518810Y-10622095D01*
X8518810Y-10622095D02*
X8528334Y-10603048D01*
X8528334Y-10603048D02*
X8547381Y-10574476D01*
X8547381Y-10574476D02*
X8556905Y-10564952D01*
X8623572Y-10612571D02*
X8633096Y-10603048D01*
X8633096Y-10603048D02*
X8652143Y-10593524D01*
X8652143Y-10593524D02*
X8699762Y-10593524D01*
X8699762Y-10593524D02*
X8718810Y-10603048D01*
X8718810Y-10603048D02*
X8728334Y-10612571D01*
X8728334Y-10612571D02*
X8737857Y-10631619D01*
X8737857Y-10631619D02*
X8737857Y-10650667D01*
X8737857Y-10650667D02*
X8728334Y-10679238D01*
X8728334Y-10679238D02*
X8614048Y-10793524D01*
X8614048Y-10793524D02*
X8737857Y-10793524D01*
X8975953Y-10793524D02*
X8975953Y-10593524D01*
X9061667Y-10793524D02*
X9061667Y-10688762D01*
X9061667Y-10688762D02*
X9052143Y-10669714D01*
X9052143Y-10669714D02*
X9033096Y-10660190D01*
X9033096Y-10660190D02*
X9004524Y-10660190D01*
X9004524Y-10660190D02*
X8985477Y-10669714D01*
X8985477Y-10669714D02*
X8975953Y-10679238D01*
X9185477Y-10793524D02*
X9166429Y-10784000D01*
X9166429Y-10784000D02*
X9156905Y-10774476D01*
X9156905Y-10774476D02*
X9147381Y-10755429D01*
X9147381Y-10755429D02*
X9147381Y-10698286D01*
X9147381Y-10698286D02*
X9156905Y-10679238D01*
X9156905Y-10679238D02*
X9166429Y-10669714D01*
X9166429Y-10669714D02*
X9185477Y-10660190D01*
X9185477Y-10660190D02*
X9214048Y-10660190D01*
X9214048Y-10660190D02*
X9233096Y-10669714D01*
X9233096Y-10669714D02*
X9242619Y-10679238D01*
X9242619Y-10679238D02*
X9252143Y-10698286D01*
X9252143Y-10698286D02*
X9252143Y-10755429D01*
X9252143Y-10755429D02*
X9242619Y-10774476D01*
X9242619Y-10774476D02*
X9233096Y-10784000D01*
X9233096Y-10784000D02*
X9214048Y-10793524D01*
X9214048Y-10793524D02*
X9185477Y-10793524D01*
X9366429Y-10793524D02*
X9347381Y-10784000D01*
X9347381Y-10784000D02*
X9337858Y-10764952D01*
X9337858Y-10764952D02*
X9337858Y-10593524D01*
X9518810Y-10784000D02*
X9499762Y-10793524D01*
X9499762Y-10793524D02*
X9461667Y-10793524D01*
X9461667Y-10793524D02*
X9442619Y-10784000D01*
X9442619Y-10784000D02*
X9433096Y-10764952D01*
X9433096Y-10764952D02*
X9433096Y-10688762D01*
X9433096Y-10688762D02*
X9442619Y-10669714D01*
X9442619Y-10669714D02*
X9461667Y-10660190D01*
X9461667Y-10660190D02*
X9499762Y-10660190D01*
X9499762Y-10660190D02*
X9518810Y-10669714D01*
X9518810Y-10669714D02*
X9528334Y-10688762D01*
X9528334Y-10688762D02*
X9528334Y-10707810D01*
X9528334Y-10707810D02*
X9433096Y-10726857D01*
X9604524Y-10784000D02*
X9623572Y-10793524D01*
X9623572Y-10793524D02*
X9661667Y-10793524D01*
X9661667Y-10793524D02*
X9680715Y-10784000D01*
X9680715Y-10784000D02*
X9690239Y-10764952D01*
X9690239Y-10764952D02*
X9690239Y-10755429D01*
X9690239Y-10755429D02*
X9680715Y-10736381D01*
X9680715Y-10736381D02*
X9661667Y-10726857D01*
X9661667Y-10726857D02*
X9633096Y-10726857D01*
X9633096Y-10726857D02*
X9614048Y-10717333D01*
X9614048Y-10717333D02*
X9604524Y-10698286D01*
X9604524Y-10698286D02*
X9604524Y-10688762D01*
X9604524Y-10688762D02*
X9614048Y-10669714D01*
X9614048Y-10669714D02*
X9633096Y-10660190D01*
X9633096Y-10660190D02*
X9661667Y-10660190D01*
X9661667Y-10660190D02*
X9680715Y-10669714D01*
X9756905Y-10869714D02*
X9766429Y-10860190D01*
X9766429Y-10860190D02*
X9785477Y-10831619D01*
X9785477Y-10831619D02*
X9795000Y-10812571D01*
X9795000Y-10812571D02*
X9804524Y-10784000D01*
X9804524Y-10784000D02*
X9814048Y-10736381D01*
X9814048Y-10736381D02*
X9814048Y-10698286D01*
X9814048Y-10698286D02*
X9804524Y-10650667D01*
X9804524Y-10650667D02*
X9795000Y-10622095D01*
X9795000Y-10622095D02*
X9785477Y-10603048D01*
X9785477Y-10603048D02*
X9766429Y-10574476D01*
X9766429Y-10574476D02*
X9756905Y-10564952D01*
X4795000Y-10865000D02*
X4995000Y-11065000D01*
X4995000Y-10865000D02*
X4795000Y-11065000D01*
X4995000Y-10965000D02*
G75*
G03*
X4995000Y-10965000I-100000J0D01*
G01*
X5233095Y-10876571D02*
X5242619Y-10867048D01*
X5242619Y-10867048D02*
X5261667Y-10857524D01*
X5261667Y-10857524D02*
X5309286Y-10857524D01*
X5309286Y-10857524D02*
X5328333Y-10867048D01*
X5328333Y-10867048D02*
X5337857Y-10876571D01*
X5337857Y-10876571D02*
X5347381Y-10895619D01*
X5347381Y-10895619D02*
X5347381Y-10914667D01*
X5347381Y-10914667D02*
X5337857Y-10943238D01*
X5337857Y-10943238D02*
X5223571Y-11057524D01*
X5223571Y-11057524D02*
X5347381Y-11057524D01*
X5433095Y-11038476D02*
X5442619Y-11048000D01*
X5442619Y-11048000D02*
X5433095Y-11057524D01*
X5433095Y-11057524D02*
X5423571Y-11048000D01*
X5423571Y-11048000D02*
X5433095Y-11038476D01*
X5433095Y-11038476D02*
X5433095Y-11057524D01*
X5614048Y-10857524D02*
X5575952Y-10857524D01*
X5575952Y-10857524D02*
X5556905Y-10867048D01*
X5556905Y-10867048D02*
X5547381Y-10876571D01*
X5547381Y-10876571D02*
X5528333Y-10905143D01*
X5528333Y-10905143D02*
X5518810Y-10943238D01*
X5518810Y-10943238D02*
X5518810Y-11019429D01*
X5518810Y-11019429D02*
X5528333Y-11038476D01*
X5528333Y-11038476D02*
X5537857Y-11048000D01*
X5537857Y-11048000D02*
X5556905Y-11057524D01*
X5556905Y-11057524D02*
X5595000Y-11057524D01*
X5595000Y-11057524D02*
X5614048Y-11048000D01*
X5614048Y-11048000D02*
X5623571Y-11038476D01*
X5623571Y-11038476D02*
X5633095Y-11019429D01*
X5633095Y-11019429D02*
X5633095Y-10971810D01*
X5633095Y-10971810D02*
X5623571Y-10952762D01*
X5623571Y-10952762D02*
X5614048Y-10943238D01*
X5614048Y-10943238D02*
X5595000Y-10933714D01*
X5595000Y-10933714D02*
X5556905Y-10933714D01*
X5556905Y-10933714D02*
X5537857Y-10943238D01*
X5537857Y-10943238D02*
X5528333Y-10952762D01*
X5528333Y-10952762D02*
X5518810Y-10971810D01*
X5756905Y-10857524D02*
X5775952Y-10857524D01*
X5775952Y-10857524D02*
X5795000Y-10867048D01*
X5795000Y-10867048D02*
X5804524Y-10876571D01*
X5804524Y-10876571D02*
X5814048Y-10895619D01*
X5814048Y-10895619D02*
X5823571Y-10933714D01*
X5823571Y-10933714D02*
X5823571Y-10981333D01*
X5823571Y-10981333D02*
X5814048Y-11019429D01*
X5814048Y-11019429D02*
X5804524Y-11038476D01*
X5804524Y-11038476D02*
X5795000Y-11048000D01*
X5795000Y-11048000D02*
X5775952Y-11057524D01*
X5775952Y-11057524D02*
X5756905Y-11057524D01*
X5756905Y-11057524D02*
X5737857Y-11048000D01*
X5737857Y-11048000D02*
X5728333Y-11038476D01*
X5728333Y-11038476D02*
X5718809Y-11019429D01*
X5718809Y-11019429D02*
X5709286Y-10981333D01*
X5709286Y-10981333D02*
X5709286Y-10933714D01*
X5709286Y-10933714D02*
X5718809Y-10895619D01*
X5718809Y-10895619D02*
X5728333Y-10876571D01*
X5728333Y-10876571D02*
X5737857Y-10867048D01*
X5737857Y-10867048D02*
X5756905Y-10857524D01*
X5947381Y-10857524D02*
X5966429Y-10857524D01*
X5966429Y-10857524D02*
X5985476Y-10867048D01*
X5985476Y-10867048D02*
X5995000Y-10876571D01*
X5995000Y-10876571D02*
X6004524Y-10895619D01*
X6004524Y-10895619D02*
X6014048Y-10933714D01*
X6014048Y-10933714D02*
X6014048Y-10981333D01*
X6014048Y-10981333D02*
X6004524Y-11019429D01*
X6004524Y-11019429D02*
X5995000Y-11038476D01*
X5995000Y-11038476D02*
X5985476Y-11048000D01*
X5985476Y-11048000D02*
X5966429Y-11057524D01*
X5966429Y-11057524D02*
X5947381Y-11057524D01*
X5947381Y-11057524D02*
X5928333Y-11048000D01*
X5928333Y-11048000D02*
X5918809Y-11038476D01*
X5918809Y-11038476D02*
X5909286Y-11019429D01*
X5909286Y-11019429D02*
X5899762Y-10981333D01*
X5899762Y-10981333D02*
X5899762Y-10933714D01*
X5899762Y-10933714D02*
X5909286Y-10895619D01*
X5909286Y-10895619D02*
X5918809Y-10876571D01*
X5918809Y-10876571D02*
X5928333Y-10867048D01*
X5928333Y-10867048D02*
X5947381Y-10857524D01*
X6099762Y-11057524D02*
X6099762Y-10924190D01*
X6099762Y-10943238D02*
X6109286Y-10933714D01*
X6109286Y-10933714D02*
X6128333Y-10924190D01*
X6128333Y-10924190D02*
X6156905Y-10924190D01*
X6156905Y-10924190D02*
X6175952Y-10933714D01*
X6175952Y-10933714D02*
X6185476Y-10952762D01*
X6185476Y-10952762D02*
X6185476Y-11057524D01*
X6185476Y-10952762D02*
X6195000Y-10933714D01*
X6195000Y-10933714D02*
X6214048Y-10924190D01*
X6214048Y-10924190D02*
X6242619Y-10924190D01*
X6242619Y-10924190D02*
X6261667Y-10933714D01*
X6261667Y-10933714D02*
X6271190Y-10952762D01*
X6271190Y-10952762D02*
X6271190Y-11057524D01*
X6366429Y-11057524D02*
X6366429Y-10924190D01*
X6366429Y-10943238D02*
X6375952Y-10933714D01*
X6375952Y-10933714D02*
X6395000Y-10924190D01*
X6395000Y-10924190D02*
X6423571Y-10924190D01*
X6423571Y-10924190D02*
X6442619Y-10933714D01*
X6442619Y-10933714D02*
X6452143Y-10952762D01*
X6452143Y-10952762D02*
X6452143Y-11057524D01*
X6452143Y-10952762D02*
X6461667Y-10933714D01*
X6461667Y-10933714D02*
X6480714Y-10924190D01*
X6480714Y-10924190D02*
X6509286Y-10924190D01*
X6509286Y-10924190D02*
X6528333Y-10933714D01*
X6528333Y-10933714D02*
X6537857Y-10952762D01*
X6537857Y-10952762D02*
X6537857Y-11057524D01*
X6928333Y-10848000D02*
X6756905Y-11105143D01*
X7185476Y-10857524D02*
X7204524Y-10857524D01*
X7204524Y-10857524D02*
X7223572Y-10867048D01*
X7223572Y-10867048D02*
X7233095Y-10876571D01*
X7233095Y-10876571D02*
X7242619Y-10895619D01*
X7242619Y-10895619D02*
X7252143Y-10933714D01*
X7252143Y-10933714D02*
X7252143Y-10981333D01*
X7252143Y-10981333D02*
X7242619Y-11019429D01*
X7242619Y-11019429D02*
X7233095Y-11038476D01*
X7233095Y-11038476D02*
X7223572Y-11048000D01*
X7223572Y-11048000D02*
X7204524Y-11057524D01*
X7204524Y-11057524D02*
X7185476Y-11057524D01*
X7185476Y-11057524D02*
X7166429Y-11048000D01*
X7166429Y-11048000D02*
X7156905Y-11038476D01*
X7156905Y-11038476D02*
X7147381Y-11019429D01*
X7147381Y-11019429D02*
X7137857Y-10981333D01*
X7137857Y-10981333D02*
X7137857Y-10933714D01*
X7137857Y-10933714D02*
X7147381Y-10895619D01*
X7147381Y-10895619D02*
X7156905Y-10876571D01*
X7156905Y-10876571D02*
X7166429Y-10867048D01*
X7166429Y-10867048D02*
X7185476Y-10857524D01*
X7337857Y-11038476D02*
X7347381Y-11048000D01*
X7347381Y-11048000D02*
X7337857Y-11057524D01*
X7337857Y-11057524D02*
X7328333Y-11048000D01*
X7328333Y-11048000D02*
X7337857Y-11038476D01*
X7337857Y-11038476D02*
X7337857Y-11057524D01*
X7537857Y-11057524D02*
X7423572Y-11057524D01*
X7480714Y-11057524D02*
X7480714Y-10857524D01*
X7480714Y-10857524D02*
X7461667Y-10886095D01*
X7461667Y-10886095D02*
X7442619Y-10905143D01*
X7442619Y-10905143D02*
X7423572Y-10914667D01*
X7661667Y-10857524D02*
X7680714Y-10857524D01*
X7680714Y-10857524D02*
X7699762Y-10867048D01*
X7699762Y-10867048D02*
X7709286Y-10876571D01*
X7709286Y-10876571D02*
X7718810Y-10895619D01*
X7718810Y-10895619D02*
X7728333Y-10933714D01*
X7728333Y-10933714D02*
X7728333Y-10981333D01*
X7728333Y-10981333D02*
X7718810Y-11019429D01*
X7718810Y-11019429D02*
X7709286Y-11038476D01*
X7709286Y-11038476D02*
X7699762Y-11048000D01*
X7699762Y-11048000D02*
X7680714Y-11057524D01*
X7680714Y-11057524D02*
X7661667Y-11057524D01*
X7661667Y-11057524D02*
X7642619Y-11048000D01*
X7642619Y-11048000D02*
X7633095Y-11038476D01*
X7633095Y-11038476D02*
X7623572Y-11019429D01*
X7623572Y-11019429D02*
X7614048Y-10981333D01*
X7614048Y-10981333D02*
X7614048Y-10933714D01*
X7614048Y-10933714D02*
X7623572Y-10895619D01*
X7623572Y-10895619D02*
X7633095Y-10876571D01*
X7633095Y-10876571D02*
X7642619Y-10867048D01*
X7642619Y-10867048D02*
X7661667Y-10857524D01*
X7804524Y-10876571D02*
X7814048Y-10867048D01*
X7814048Y-10867048D02*
X7833095Y-10857524D01*
X7833095Y-10857524D02*
X7880714Y-10857524D01*
X7880714Y-10857524D02*
X7899762Y-10867048D01*
X7899762Y-10867048D02*
X7909286Y-10876571D01*
X7909286Y-10876571D02*
X7918810Y-10895619D01*
X7918810Y-10895619D02*
X7918810Y-10914667D01*
X7918810Y-10914667D02*
X7909286Y-10943238D01*
X7909286Y-10943238D02*
X7795000Y-11057524D01*
X7795000Y-11057524D02*
X7918810Y-11057524D01*
X8090238Y-10924190D02*
X8090238Y-11057524D01*
X8042619Y-10848000D02*
X7995000Y-10990857D01*
X7995000Y-10990857D02*
X8118810Y-10990857D01*
X8185476Y-10857524D02*
X8185476Y-10895619D01*
X8261667Y-10857524D02*
X8261667Y-10895619D01*
X8556905Y-11133714D02*
X8547381Y-11124190D01*
X8547381Y-11124190D02*
X8528334Y-11095619D01*
X8528334Y-11095619D02*
X8518810Y-11076571D01*
X8518810Y-11076571D02*
X8509286Y-11048000D01*
X8509286Y-11048000D02*
X8499762Y-11000381D01*
X8499762Y-11000381D02*
X8499762Y-10962286D01*
X8499762Y-10962286D02*
X8509286Y-10914667D01*
X8509286Y-10914667D02*
X8518810Y-10886095D01*
X8518810Y-10886095D02*
X8528334Y-10867048D01*
X8528334Y-10867048D02*
X8547381Y-10838476D01*
X8547381Y-10838476D02*
X8556905Y-10828952D01*
X8623572Y-10876571D02*
X8633096Y-10867048D01*
X8633096Y-10867048D02*
X8652143Y-10857524D01*
X8652143Y-10857524D02*
X8699762Y-10857524D01*
X8699762Y-10857524D02*
X8718810Y-10867048D01*
X8718810Y-10867048D02*
X8728334Y-10876571D01*
X8728334Y-10876571D02*
X8737857Y-10895619D01*
X8737857Y-10895619D02*
X8737857Y-10914667D01*
X8737857Y-10914667D02*
X8728334Y-10943238D01*
X8728334Y-10943238D02*
X8614048Y-11057524D01*
X8614048Y-11057524D02*
X8737857Y-11057524D01*
X8975953Y-11057524D02*
X8975953Y-10857524D01*
X9061667Y-11057524D02*
X9061667Y-10952762D01*
X9061667Y-10952762D02*
X9052143Y-10933714D01*
X9052143Y-10933714D02*
X9033096Y-10924190D01*
X9033096Y-10924190D02*
X9004524Y-10924190D01*
X9004524Y-10924190D02*
X8985477Y-10933714D01*
X8985477Y-10933714D02*
X8975953Y-10943238D01*
X9185477Y-11057524D02*
X9166429Y-11048000D01*
X9166429Y-11048000D02*
X9156905Y-11038476D01*
X9156905Y-11038476D02*
X9147381Y-11019429D01*
X9147381Y-11019429D02*
X9147381Y-10962286D01*
X9147381Y-10962286D02*
X9156905Y-10943238D01*
X9156905Y-10943238D02*
X9166429Y-10933714D01*
X9166429Y-10933714D02*
X9185477Y-10924190D01*
X9185477Y-10924190D02*
X9214048Y-10924190D01*
X9214048Y-10924190D02*
X9233096Y-10933714D01*
X9233096Y-10933714D02*
X9242619Y-10943238D01*
X9242619Y-10943238D02*
X9252143Y-10962286D01*
X9252143Y-10962286D02*
X9252143Y-11019429D01*
X9252143Y-11019429D02*
X9242619Y-11038476D01*
X9242619Y-11038476D02*
X9233096Y-11048000D01*
X9233096Y-11048000D02*
X9214048Y-11057524D01*
X9214048Y-11057524D02*
X9185477Y-11057524D01*
X9366429Y-11057524D02*
X9347381Y-11048000D01*
X9347381Y-11048000D02*
X9337858Y-11028952D01*
X9337858Y-11028952D02*
X9337858Y-10857524D01*
X9518810Y-11048000D02*
X9499762Y-11057524D01*
X9499762Y-11057524D02*
X9461667Y-11057524D01*
X9461667Y-11057524D02*
X9442619Y-11048000D01*
X9442619Y-11048000D02*
X9433096Y-11028952D01*
X9433096Y-11028952D02*
X9433096Y-10952762D01*
X9433096Y-10952762D02*
X9442619Y-10933714D01*
X9442619Y-10933714D02*
X9461667Y-10924190D01*
X9461667Y-10924190D02*
X9499762Y-10924190D01*
X9499762Y-10924190D02*
X9518810Y-10933714D01*
X9518810Y-10933714D02*
X9528334Y-10952762D01*
X9528334Y-10952762D02*
X9528334Y-10971810D01*
X9528334Y-10971810D02*
X9433096Y-10990857D01*
X9604524Y-11048000D02*
X9623572Y-11057524D01*
X9623572Y-11057524D02*
X9661667Y-11057524D01*
X9661667Y-11057524D02*
X9680715Y-11048000D01*
X9680715Y-11048000D02*
X9690239Y-11028952D01*
X9690239Y-11028952D02*
X9690239Y-11019429D01*
X9690239Y-11019429D02*
X9680715Y-11000381D01*
X9680715Y-11000381D02*
X9661667Y-10990857D01*
X9661667Y-10990857D02*
X9633096Y-10990857D01*
X9633096Y-10990857D02*
X9614048Y-10981333D01*
X9614048Y-10981333D02*
X9604524Y-10962286D01*
X9604524Y-10962286D02*
X9604524Y-10952762D01*
X9604524Y-10952762D02*
X9614048Y-10933714D01*
X9614048Y-10933714D02*
X9633096Y-10924190D01*
X9633096Y-10924190D02*
X9661667Y-10924190D01*
X9661667Y-10924190D02*
X9680715Y-10933714D01*
X9756905Y-11133714D02*
X9766429Y-11124190D01*
X9766429Y-11124190D02*
X9785477Y-11095619D01*
X9785477Y-11095619D02*
X9795000Y-11076571D01*
X9795000Y-11076571D02*
X9804524Y-11048000D01*
X9804524Y-11048000D02*
X9814048Y-11000381D01*
X9814048Y-11000381D02*
X9814048Y-10962286D01*
X9814048Y-10962286D02*
X9804524Y-10914667D01*
X9804524Y-10914667D02*
X9795000Y-10886095D01*
X9795000Y-10886095D02*
X9785477Y-10867048D01*
X9785477Y-10867048D02*
X9766429Y-10838476D01*
X9766429Y-10838476D02*
X9756905Y-10828952D01*
M02*
